%TF.GenerationSoftware,KiCad,Pcbnew,6.0.11-2627ca5db0~126~ubuntu20.04.1*%
%TF.CreationDate,2024-05-08T21:41:55+05:00*%
%TF.ProjectId,19RPI24,31395250-4932-4342-9e6b-696361645f70,rev?*%
%TF.SameCoordinates,Original*%
%TF.FileFunction,Drillmap*%
%TF.FilePolarity,Positive*%
%FSLAX45Y45*%
G04 Gerber Fmt 4.5, Leading zero omitted, Abs format (unit mm)*
G04 Created by KiCad (PCBNEW 6.0.11-2627ca5db0~126~ubuntu20.04.1) date 2024-05-08 21:41:55*
%MOMM*%
%LPD*%
G01*
G04 APERTURE LIST*
%ADD10C,0.100000*%
%ADD11C,0.200000*%
%ADD12C,0.065000*%
%ADD13C,0.150000*%
G04 APERTURE END LIST*
D10*
X2900000Y-2900000D02*
G75*
G03*
X2550000Y-3250000I0J-350000D01*
G01*
X5900000Y-4400000D02*
G75*
G03*
X5800000Y-4500000I0J-100000D01*
G01*
X2550000Y-11050000D02*
X2550000Y-3250000D01*
X3040000Y-9050000D02*
G75*
G03*
X3040000Y-9050000I-140000J0D01*
G01*
X2550000Y-11050000D02*
G75*
G03*
X2900000Y-11400000I350000J0D01*
G01*
X6400000Y-4500000D02*
G75*
G03*
X6300000Y-4400000I-100000J0D01*
G01*
X8150000Y-3250000D02*
G75*
G03*
X7800000Y-2900000I-350000J0D01*
G01*
X3040000Y-3250000D02*
G75*
G03*
X3040000Y-3250000I-140000J0D01*
G01*
X5800000Y-4850000D02*
G75*
G03*
X5900000Y-4950000I100000J0D01*
G01*
X6400000Y-4850000D02*
X6400000Y-4500000D01*
X7800000Y-11400000D02*
G75*
G03*
X8150000Y-11050000I0J350000D01*
G01*
X5900000Y-4950000D02*
X6300000Y-4950000D01*
X5800000Y-4500000D02*
X5800000Y-4850000D01*
X6300000Y-4400000D02*
X5900000Y-4400000D01*
X6300000Y-4950000D02*
G75*
G03*
X6400000Y-4850000I0J100000D01*
G01*
X7800000Y-11400000D02*
X2900000Y-11400000D01*
X2900000Y-2900000D02*
X7800000Y-2900000D01*
X7940000Y-3250000D02*
G75*
G03*
X7940000Y-3250000I-140000J0D01*
G01*
X7940000Y-9050000D02*
G75*
G03*
X7940000Y-9050000I-140000J0D01*
G01*
X8150000Y-3250000D02*
X8150000Y-11050000D01*
D11*
D12*
X3094000Y-3638500D02*
X3159000Y-3703500D01*
X3159000Y-3638500D02*
X3094000Y-3703500D01*
X3094000Y-4216500D02*
X3159000Y-4281500D01*
X3159000Y-4216500D02*
X3094000Y-4281500D01*
D10*
X4984695Y-3262208D02*
G75*
G03*
X4984695Y-3262208I-50000J0D01*
G01*
X5784695Y-3262208D02*
G75*
G03*
X5784695Y-3262208I-50000J0D01*
G01*
D13*
X2722500Y-8175000D02*
X2722500Y-8325000D01*
X2647500Y-8250000D02*
X2797500Y-8250000D01*
X3422500Y-8175000D02*
X3422500Y-8325000D01*
X3347500Y-8250000D02*
X3497500Y-8250000D01*
D11*
X2802619Y-11715476D02*
X2802619Y-11515476D01*
X2850238Y-11515476D01*
X2878809Y-11525000D01*
X2897857Y-11544048D01*
X2907381Y-11563095D01*
X2916905Y-11601190D01*
X2916905Y-11629762D01*
X2907381Y-11667857D01*
X2897857Y-11686905D01*
X2878809Y-11705952D01*
X2850238Y-11715476D01*
X2802619Y-11715476D01*
X3002619Y-11715476D02*
X3002619Y-11582143D01*
X3002619Y-11620238D02*
X3012143Y-11601190D01*
X3021667Y-11591667D01*
X3040714Y-11582143D01*
X3059762Y-11582143D01*
X3126428Y-11715476D02*
X3126428Y-11582143D01*
X3126428Y-11515476D02*
X3116905Y-11525000D01*
X3126428Y-11534524D01*
X3135952Y-11525000D01*
X3126428Y-11515476D01*
X3126428Y-11534524D01*
X3250238Y-11715476D02*
X3231190Y-11705952D01*
X3221667Y-11686905D01*
X3221667Y-11515476D01*
X3355000Y-11715476D02*
X3335952Y-11705952D01*
X3326428Y-11686905D01*
X3326428Y-11515476D01*
X3583571Y-11715476D02*
X3583571Y-11515476D01*
X3650238Y-11658333D01*
X3716905Y-11515476D01*
X3716905Y-11715476D01*
X3897857Y-11715476D02*
X3897857Y-11610714D01*
X3888333Y-11591667D01*
X3869286Y-11582143D01*
X3831190Y-11582143D01*
X3812143Y-11591667D01*
X3897857Y-11705952D02*
X3878809Y-11715476D01*
X3831190Y-11715476D01*
X3812143Y-11705952D01*
X3802619Y-11686905D01*
X3802619Y-11667857D01*
X3812143Y-11648809D01*
X3831190Y-11639286D01*
X3878809Y-11639286D01*
X3897857Y-11629762D01*
X3993095Y-11582143D02*
X3993095Y-11782143D01*
X3993095Y-11591667D02*
X4012143Y-11582143D01*
X4050238Y-11582143D01*
X4069286Y-11591667D01*
X4078809Y-11601190D01*
X4088333Y-11620238D01*
X4088333Y-11677381D01*
X4078809Y-11696428D01*
X4069286Y-11705952D01*
X4050238Y-11715476D01*
X4012143Y-11715476D01*
X3993095Y-11705952D01*
X4174048Y-11696428D02*
X4183571Y-11705952D01*
X4174048Y-11715476D01*
X4164524Y-11705952D01*
X4174048Y-11696428D01*
X4174048Y-11715476D01*
X4174048Y-11591667D02*
X4183571Y-11601190D01*
X4174048Y-11610714D01*
X4164524Y-11601190D01*
X4174048Y-11591667D01*
X4174048Y-11610714D01*
D12*
X2480000Y-12012500D02*
X2545000Y-12077500D01*
X2545000Y-12012500D02*
X2480000Y-12077500D01*
D11*
X2840714Y-11935476D02*
X2859762Y-11935476D01*
X2878809Y-11945000D01*
X2888333Y-11954524D01*
X2897857Y-11973571D01*
X2907381Y-12011667D01*
X2907381Y-12059286D01*
X2897857Y-12097381D01*
X2888333Y-12116428D01*
X2878809Y-12125952D01*
X2859762Y-12135476D01*
X2840714Y-12135476D01*
X2821667Y-12125952D01*
X2812143Y-12116428D01*
X2802619Y-12097381D01*
X2793095Y-12059286D01*
X2793095Y-12011667D01*
X2802619Y-11973571D01*
X2812143Y-11954524D01*
X2821667Y-11945000D01*
X2840714Y-11935476D01*
X2993095Y-12116428D02*
X3002619Y-12125952D01*
X2993095Y-12135476D01*
X2983571Y-12125952D01*
X2993095Y-12116428D01*
X2993095Y-12135476D01*
X3174048Y-11935476D02*
X3135952Y-11935476D01*
X3116905Y-11945000D01*
X3107381Y-11954524D01*
X3088333Y-11983095D01*
X3078809Y-12021190D01*
X3078809Y-12097381D01*
X3088333Y-12116428D01*
X3097857Y-12125952D01*
X3116905Y-12135476D01*
X3155000Y-12135476D01*
X3174048Y-12125952D01*
X3183571Y-12116428D01*
X3193095Y-12097381D01*
X3193095Y-12049762D01*
X3183571Y-12030714D01*
X3174048Y-12021190D01*
X3155000Y-12011667D01*
X3116905Y-12011667D01*
X3097857Y-12021190D01*
X3088333Y-12030714D01*
X3078809Y-12049762D01*
X3374048Y-11935476D02*
X3278809Y-11935476D01*
X3269286Y-12030714D01*
X3278809Y-12021190D01*
X3297857Y-12011667D01*
X3345476Y-12011667D01*
X3364524Y-12021190D01*
X3374048Y-12030714D01*
X3383571Y-12049762D01*
X3383571Y-12097381D01*
X3374048Y-12116428D01*
X3364524Y-12125952D01*
X3345476Y-12135476D01*
X3297857Y-12135476D01*
X3278809Y-12125952D01*
X3269286Y-12116428D01*
X3507381Y-11935476D02*
X3526428Y-11935476D01*
X3545476Y-11945000D01*
X3555000Y-11954524D01*
X3564524Y-11973571D01*
X3574048Y-12011667D01*
X3574048Y-12059286D01*
X3564524Y-12097381D01*
X3555000Y-12116428D01*
X3545476Y-12125952D01*
X3526428Y-12135476D01*
X3507381Y-12135476D01*
X3488333Y-12125952D01*
X3478809Y-12116428D01*
X3469286Y-12097381D01*
X3459762Y-12059286D01*
X3459762Y-12011667D01*
X3469286Y-11973571D01*
X3478809Y-11954524D01*
X3488333Y-11945000D01*
X3507381Y-11935476D01*
X3659762Y-12135476D02*
X3659762Y-12002143D01*
X3659762Y-12021190D02*
X3669286Y-12011667D01*
X3688333Y-12002143D01*
X3716905Y-12002143D01*
X3735952Y-12011667D01*
X3745476Y-12030714D01*
X3745476Y-12135476D01*
X3745476Y-12030714D02*
X3755000Y-12011667D01*
X3774048Y-12002143D01*
X3802619Y-12002143D01*
X3821667Y-12011667D01*
X3831190Y-12030714D01*
X3831190Y-12135476D01*
X3926428Y-12135476D02*
X3926428Y-12002143D01*
X3926428Y-12021190D02*
X3935952Y-12011667D01*
X3955000Y-12002143D01*
X3983571Y-12002143D01*
X4002619Y-12011667D01*
X4012143Y-12030714D01*
X4012143Y-12135476D01*
X4012143Y-12030714D02*
X4021667Y-12011667D01*
X4040714Y-12002143D01*
X4069286Y-12002143D01*
X4088333Y-12011667D01*
X4097857Y-12030714D01*
X4097857Y-12135476D01*
X4488333Y-11925952D02*
X4316905Y-12183095D01*
X4745476Y-11935476D02*
X4764524Y-11935476D01*
X4783571Y-11945000D01*
X4793095Y-11954524D01*
X4802619Y-11973571D01*
X4812143Y-12011667D01*
X4812143Y-12059286D01*
X4802619Y-12097381D01*
X4793095Y-12116428D01*
X4783571Y-12125952D01*
X4764524Y-12135476D01*
X4745476Y-12135476D01*
X4726429Y-12125952D01*
X4716905Y-12116428D01*
X4707381Y-12097381D01*
X4697857Y-12059286D01*
X4697857Y-12011667D01*
X4707381Y-11973571D01*
X4716905Y-11954524D01*
X4726429Y-11945000D01*
X4745476Y-11935476D01*
X4897857Y-12116428D02*
X4907381Y-12125952D01*
X4897857Y-12135476D01*
X4888333Y-12125952D01*
X4897857Y-12116428D01*
X4897857Y-12135476D01*
X5031190Y-11935476D02*
X5050238Y-11935476D01*
X5069286Y-11945000D01*
X5078810Y-11954524D01*
X5088333Y-11973571D01*
X5097857Y-12011667D01*
X5097857Y-12059286D01*
X5088333Y-12097381D01*
X5078810Y-12116428D01*
X5069286Y-12125952D01*
X5050238Y-12135476D01*
X5031190Y-12135476D01*
X5012143Y-12125952D01*
X5002619Y-12116428D01*
X4993095Y-12097381D01*
X4983571Y-12059286D01*
X4983571Y-12011667D01*
X4993095Y-11973571D01*
X5002619Y-11954524D01*
X5012143Y-11945000D01*
X5031190Y-11935476D01*
X5174048Y-11954524D02*
X5183571Y-11945000D01*
X5202619Y-11935476D01*
X5250238Y-11935476D01*
X5269286Y-11945000D01*
X5278810Y-11954524D01*
X5288333Y-11973571D01*
X5288333Y-11992619D01*
X5278810Y-12021190D01*
X5164524Y-12135476D01*
X5288333Y-12135476D01*
X5469286Y-11935476D02*
X5374048Y-11935476D01*
X5364524Y-12030714D01*
X5374048Y-12021190D01*
X5393095Y-12011667D01*
X5440714Y-12011667D01*
X5459762Y-12021190D01*
X5469286Y-12030714D01*
X5478810Y-12049762D01*
X5478810Y-12097381D01*
X5469286Y-12116428D01*
X5459762Y-12125952D01*
X5440714Y-12135476D01*
X5393095Y-12135476D01*
X5374048Y-12125952D01*
X5364524Y-12116428D01*
X5650238Y-11935476D02*
X5612143Y-11935476D01*
X5593095Y-11945000D01*
X5583571Y-11954524D01*
X5564524Y-11983095D01*
X5555000Y-12021190D01*
X5555000Y-12097381D01*
X5564524Y-12116428D01*
X5574048Y-12125952D01*
X5593095Y-12135476D01*
X5631190Y-12135476D01*
X5650238Y-12125952D01*
X5659762Y-12116428D01*
X5669286Y-12097381D01*
X5669286Y-12049762D01*
X5659762Y-12030714D01*
X5650238Y-12021190D01*
X5631190Y-12011667D01*
X5593095Y-12011667D01*
X5574048Y-12021190D01*
X5564524Y-12030714D01*
X5555000Y-12049762D01*
X5745476Y-11935476D02*
X5745476Y-11973571D01*
X5821667Y-11935476D02*
X5821667Y-11973571D01*
X6116905Y-12211667D02*
X6107381Y-12202143D01*
X6088333Y-12173571D01*
X6078809Y-12154524D01*
X6069286Y-12125952D01*
X6059762Y-12078333D01*
X6059762Y-12040238D01*
X6069286Y-11992619D01*
X6078809Y-11964048D01*
X6088333Y-11945000D01*
X6107381Y-11916428D01*
X6116905Y-11906905D01*
X6183571Y-11954524D02*
X6193095Y-11945000D01*
X6212143Y-11935476D01*
X6259762Y-11935476D01*
X6278809Y-11945000D01*
X6288333Y-11954524D01*
X6297857Y-11973571D01*
X6297857Y-11992619D01*
X6288333Y-12021190D01*
X6174048Y-12135476D01*
X6297857Y-12135476D01*
X6535952Y-12135476D02*
X6535952Y-11935476D01*
X6621667Y-12135476D02*
X6621667Y-12030714D01*
X6612143Y-12011667D01*
X6593095Y-12002143D01*
X6564524Y-12002143D01*
X6545476Y-12011667D01*
X6535952Y-12021190D01*
X6745476Y-12135476D02*
X6726428Y-12125952D01*
X6716905Y-12116428D01*
X6707381Y-12097381D01*
X6707381Y-12040238D01*
X6716905Y-12021190D01*
X6726428Y-12011667D01*
X6745476Y-12002143D01*
X6774048Y-12002143D01*
X6793095Y-12011667D01*
X6802619Y-12021190D01*
X6812143Y-12040238D01*
X6812143Y-12097381D01*
X6802619Y-12116428D01*
X6793095Y-12125952D01*
X6774048Y-12135476D01*
X6745476Y-12135476D01*
X6926428Y-12135476D02*
X6907381Y-12125952D01*
X6897857Y-12106905D01*
X6897857Y-11935476D01*
X7078809Y-12125952D02*
X7059762Y-12135476D01*
X7021667Y-12135476D01*
X7002619Y-12125952D01*
X6993095Y-12106905D01*
X6993095Y-12030714D01*
X7002619Y-12011667D01*
X7021667Y-12002143D01*
X7059762Y-12002143D01*
X7078809Y-12011667D01*
X7088333Y-12030714D01*
X7088333Y-12049762D01*
X6993095Y-12068809D01*
X7164524Y-12125952D02*
X7183571Y-12135476D01*
X7221667Y-12135476D01*
X7240714Y-12125952D01*
X7250238Y-12106905D01*
X7250238Y-12097381D01*
X7240714Y-12078333D01*
X7221667Y-12068809D01*
X7193095Y-12068809D01*
X7174048Y-12059286D01*
X7164524Y-12040238D01*
X7164524Y-12030714D01*
X7174048Y-12011667D01*
X7193095Y-12002143D01*
X7221667Y-12002143D01*
X7240714Y-12011667D01*
X7316905Y-12211667D02*
X7326428Y-12202143D01*
X7345476Y-12173571D01*
X7355000Y-12154524D01*
X7364524Y-12125952D01*
X7374048Y-12078333D01*
X7374048Y-12040238D01*
X7364524Y-11992619D01*
X7355000Y-11964048D01*
X7345476Y-11945000D01*
X7326428Y-11916428D01*
X7316905Y-11906905D01*
X7678809Y-12211667D02*
X7669286Y-12202143D01*
X7650238Y-12173571D01*
X7640714Y-12154524D01*
X7631190Y-12125952D01*
X7621667Y-12078333D01*
X7621667Y-12040238D01*
X7631190Y-11992619D01*
X7640714Y-11964048D01*
X7650238Y-11945000D01*
X7669286Y-11916428D01*
X7678809Y-11906905D01*
X7755000Y-12002143D02*
X7755000Y-12135476D01*
X7755000Y-12021190D02*
X7764524Y-12011667D01*
X7783571Y-12002143D01*
X7812143Y-12002143D01*
X7831190Y-12011667D01*
X7840714Y-12030714D01*
X7840714Y-12135476D01*
X7964524Y-12135476D02*
X7945476Y-12125952D01*
X7935952Y-12116428D01*
X7926428Y-12097381D01*
X7926428Y-12040238D01*
X7935952Y-12021190D01*
X7945476Y-12011667D01*
X7964524Y-12002143D01*
X7993095Y-12002143D01*
X8012143Y-12011667D01*
X8021667Y-12021190D01*
X8031190Y-12040238D01*
X8031190Y-12097381D01*
X8021667Y-12116428D01*
X8012143Y-12125952D01*
X7993095Y-12135476D01*
X7964524Y-12135476D01*
X8088333Y-12002143D02*
X8164524Y-12002143D01*
X8116905Y-11935476D02*
X8116905Y-12106905D01*
X8126428Y-12125952D01*
X8145476Y-12135476D01*
X8164524Y-12135476D01*
X8383571Y-12002143D02*
X8383571Y-12202143D01*
X8383571Y-12011667D02*
X8402619Y-12002143D01*
X8440714Y-12002143D01*
X8459762Y-12011667D01*
X8469286Y-12021190D01*
X8478810Y-12040238D01*
X8478810Y-12097381D01*
X8469286Y-12116428D01*
X8459762Y-12125952D01*
X8440714Y-12135476D01*
X8402619Y-12135476D01*
X8383571Y-12125952D01*
X8593095Y-12135476D02*
X8574048Y-12125952D01*
X8564524Y-12106905D01*
X8564524Y-11935476D01*
X8755000Y-12135476D02*
X8755000Y-12030714D01*
X8745476Y-12011667D01*
X8726429Y-12002143D01*
X8688333Y-12002143D01*
X8669286Y-12011667D01*
X8755000Y-12125952D02*
X8735952Y-12135476D01*
X8688333Y-12135476D01*
X8669286Y-12125952D01*
X8659762Y-12106905D01*
X8659762Y-12087857D01*
X8669286Y-12068809D01*
X8688333Y-12059286D01*
X8735952Y-12059286D01*
X8755000Y-12049762D01*
X8821667Y-12002143D02*
X8897857Y-12002143D01*
X8850238Y-11935476D02*
X8850238Y-12106905D01*
X8859762Y-12125952D01*
X8878810Y-12135476D01*
X8897857Y-12135476D01*
X9040714Y-12125952D02*
X9021667Y-12135476D01*
X8983571Y-12135476D01*
X8964524Y-12125952D01*
X8955000Y-12106905D01*
X8955000Y-12030714D01*
X8964524Y-12011667D01*
X8983571Y-12002143D01*
X9021667Y-12002143D01*
X9040714Y-12011667D01*
X9050238Y-12030714D01*
X9050238Y-12049762D01*
X8955000Y-12068809D01*
X9221667Y-12135476D02*
X9221667Y-11935476D01*
X9221667Y-12125952D02*
X9202619Y-12135476D01*
X9164524Y-12135476D01*
X9145476Y-12125952D01*
X9135952Y-12116428D01*
X9126429Y-12097381D01*
X9126429Y-12040238D01*
X9135952Y-12021190D01*
X9145476Y-12011667D01*
X9164524Y-12002143D01*
X9202619Y-12002143D01*
X9221667Y-12011667D01*
X9297857Y-12211667D02*
X9307381Y-12202143D01*
X9326429Y-12173571D01*
X9335952Y-12154524D01*
X9345476Y-12125952D01*
X9355000Y-12078333D01*
X9355000Y-12040238D01*
X9345476Y-11992619D01*
X9335952Y-11964048D01*
X9326429Y-11945000D01*
X9307381Y-11916428D01*
X9297857Y-11906905D01*
D10*
X2545000Y-12309000D02*
G75*
G03*
X2545000Y-12309000I-50000J0D01*
G01*
D11*
X2907381Y-12399476D02*
X2793095Y-12399476D01*
X2850238Y-12399476D02*
X2850238Y-12199476D01*
X2831190Y-12228048D01*
X2812143Y-12247095D01*
X2793095Y-12256619D01*
X2993095Y-12380428D02*
X3002619Y-12389952D01*
X2993095Y-12399476D01*
X2983571Y-12389952D01*
X2993095Y-12380428D01*
X2993095Y-12399476D01*
X3126428Y-12199476D02*
X3145476Y-12199476D01*
X3164524Y-12209000D01*
X3174048Y-12218524D01*
X3183571Y-12237571D01*
X3193095Y-12275667D01*
X3193095Y-12323286D01*
X3183571Y-12361381D01*
X3174048Y-12380428D01*
X3164524Y-12389952D01*
X3145476Y-12399476D01*
X3126428Y-12399476D01*
X3107381Y-12389952D01*
X3097857Y-12380428D01*
X3088333Y-12361381D01*
X3078809Y-12323286D01*
X3078809Y-12275667D01*
X3088333Y-12237571D01*
X3097857Y-12218524D01*
X3107381Y-12209000D01*
X3126428Y-12199476D01*
X3316905Y-12199476D02*
X3335952Y-12199476D01*
X3355000Y-12209000D01*
X3364524Y-12218524D01*
X3374048Y-12237571D01*
X3383571Y-12275667D01*
X3383571Y-12323286D01*
X3374048Y-12361381D01*
X3364524Y-12380428D01*
X3355000Y-12389952D01*
X3335952Y-12399476D01*
X3316905Y-12399476D01*
X3297857Y-12389952D01*
X3288333Y-12380428D01*
X3278809Y-12361381D01*
X3269286Y-12323286D01*
X3269286Y-12275667D01*
X3278809Y-12237571D01*
X3288333Y-12218524D01*
X3297857Y-12209000D01*
X3316905Y-12199476D01*
X3507381Y-12199476D02*
X3526428Y-12199476D01*
X3545476Y-12209000D01*
X3555000Y-12218524D01*
X3564524Y-12237571D01*
X3574048Y-12275667D01*
X3574048Y-12323286D01*
X3564524Y-12361381D01*
X3555000Y-12380428D01*
X3545476Y-12389952D01*
X3526428Y-12399476D01*
X3507381Y-12399476D01*
X3488333Y-12389952D01*
X3478809Y-12380428D01*
X3469286Y-12361381D01*
X3459762Y-12323286D01*
X3459762Y-12275667D01*
X3469286Y-12237571D01*
X3478809Y-12218524D01*
X3488333Y-12209000D01*
X3507381Y-12199476D01*
X3659762Y-12399476D02*
X3659762Y-12266143D01*
X3659762Y-12285190D02*
X3669286Y-12275667D01*
X3688333Y-12266143D01*
X3716905Y-12266143D01*
X3735952Y-12275667D01*
X3745476Y-12294714D01*
X3745476Y-12399476D01*
X3745476Y-12294714D02*
X3755000Y-12275667D01*
X3774048Y-12266143D01*
X3802619Y-12266143D01*
X3821667Y-12275667D01*
X3831190Y-12294714D01*
X3831190Y-12399476D01*
X3926428Y-12399476D02*
X3926428Y-12266143D01*
X3926428Y-12285190D02*
X3935952Y-12275667D01*
X3955000Y-12266143D01*
X3983571Y-12266143D01*
X4002619Y-12275667D01*
X4012143Y-12294714D01*
X4012143Y-12399476D01*
X4012143Y-12294714D02*
X4021667Y-12275667D01*
X4040714Y-12266143D01*
X4069286Y-12266143D01*
X4088333Y-12275667D01*
X4097857Y-12294714D01*
X4097857Y-12399476D01*
X4488333Y-12189952D02*
X4316905Y-12447095D01*
X4745476Y-12199476D02*
X4764524Y-12199476D01*
X4783571Y-12209000D01*
X4793095Y-12218524D01*
X4802619Y-12237571D01*
X4812143Y-12275667D01*
X4812143Y-12323286D01*
X4802619Y-12361381D01*
X4793095Y-12380428D01*
X4783571Y-12389952D01*
X4764524Y-12399476D01*
X4745476Y-12399476D01*
X4726429Y-12389952D01*
X4716905Y-12380428D01*
X4707381Y-12361381D01*
X4697857Y-12323286D01*
X4697857Y-12275667D01*
X4707381Y-12237571D01*
X4716905Y-12218524D01*
X4726429Y-12209000D01*
X4745476Y-12199476D01*
X4897857Y-12380428D02*
X4907381Y-12389952D01*
X4897857Y-12399476D01*
X4888333Y-12389952D01*
X4897857Y-12380428D01*
X4897857Y-12399476D01*
X5031190Y-12199476D02*
X5050238Y-12199476D01*
X5069286Y-12209000D01*
X5078810Y-12218524D01*
X5088333Y-12237571D01*
X5097857Y-12275667D01*
X5097857Y-12323286D01*
X5088333Y-12361381D01*
X5078810Y-12380428D01*
X5069286Y-12389952D01*
X5050238Y-12399476D01*
X5031190Y-12399476D01*
X5012143Y-12389952D01*
X5002619Y-12380428D01*
X4993095Y-12361381D01*
X4983571Y-12323286D01*
X4983571Y-12275667D01*
X4993095Y-12237571D01*
X5002619Y-12218524D01*
X5012143Y-12209000D01*
X5031190Y-12199476D01*
X5164524Y-12199476D02*
X5288333Y-12199476D01*
X5221667Y-12275667D01*
X5250238Y-12275667D01*
X5269286Y-12285190D01*
X5278810Y-12294714D01*
X5288333Y-12313762D01*
X5288333Y-12361381D01*
X5278810Y-12380428D01*
X5269286Y-12389952D01*
X5250238Y-12399476D01*
X5193095Y-12399476D01*
X5174048Y-12389952D01*
X5164524Y-12380428D01*
X5383571Y-12399476D02*
X5421667Y-12399476D01*
X5440714Y-12389952D01*
X5450238Y-12380428D01*
X5469286Y-12351857D01*
X5478810Y-12313762D01*
X5478810Y-12237571D01*
X5469286Y-12218524D01*
X5459762Y-12209000D01*
X5440714Y-12199476D01*
X5402619Y-12199476D01*
X5383571Y-12209000D01*
X5374048Y-12218524D01*
X5364524Y-12237571D01*
X5364524Y-12285190D01*
X5374048Y-12304238D01*
X5383571Y-12313762D01*
X5402619Y-12323286D01*
X5440714Y-12323286D01*
X5459762Y-12313762D01*
X5469286Y-12304238D01*
X5478810Y-12285190D01*
X5650238Y-12266143D02*
X5650238Y-12399476D01*
X5602619Y-12189952D02*
X5555000Y-12332809D01*
X5678809Y-12332809D01*
X5745476Y-12199476D02*
X5745476Y-12237571D01*
X5821667Y-12199476D02*
X5821667Y-12237571D01*
X6116905Y-12475667D02*
X6107381Y-12466143D01*
X6088333Y-12437571D01*
X6078809Y-12418524D01*
X6069286Y-12389952D01*
X6059762Y-12342333D01*
X6059762Y-12304238D01*
X6069286Y-12256619D01*
X6078809Y-12228048D01*
X6088333Y-12209000D01*
X6107381Y-12180428D01*
X6116905Y-12170905D01*
X6183571Y-12218524D02*
X6193095Y-12209000D01*
X6212143Y-12199476D01*
X6259762Y-12199476D01*
X6278809Y-12209000D01*
X6288333Y-12218524D01*
X6297857Y-12237571D01*
X6297857Y-12256619D01*
X6288333Y-12285190D01*
X6174048Y-12399476D01*
X6297857Y-12399476D01*
X6535952Y-12399476D02*
X6535952Y-12199476D01*
X6621667Y-12399476D02*
X6621667Y-12294714D01*
X6612143Y-12275667D01*
X6593095Y-12266143D01*
X6564524Y-12266143D01*
X6545476Y-12275667D01*
X6535952Y-12285190D01*
X6745476Y-12399476D02*
X6726428Y-12389952D01*
X6716905Y-12380428D01*
X6707381Y-12361381D01*
X6707381Y-12304238D01*
X6716905Y-12285190D01*
X6726428Y-12275667D01*
X6745476Y-12266143D01*
X6774048Y-12266143D01*
X6793095Y-12275667D01*
X6802619Y-12285190D01*
X6812143Y-12304238D01*
X6812143Y-12361381D01*
X6802619Y-12380428D01*
X6793095Y-12389952D01*
X6774048Y-12399476D01*
X6745476Y-12399476D01*
X6926428Y-12399476D02*
X6907381Y-12389952D01*
X6897857Y-12370905D01*
X6897857Y-12199476D01*
X7078809Y-12389952D02*
X7059762Y-12399476D01*
X7021667Y-12399476D01*
X7002619Y-12389952D01*
X6993095Y-12370905D01*
X6993095Y-12294714D01*
X7002619Y-12275667D01*
X7021667Y-12266143D01*
X7059762Y-12266143D01*
X7078809Y-12275667D01*
X7088333Y-12294714D01*
X7088333Y-12313762D01*
X6993095Y-12332809D01*
X7164524Y-12389952D02*
X7183571Y-12399476D01*
X7221667Y-12399476D01*
X7240714Y-12389952D01*
X7250238Y-12370905D01*
X7250238Y-12361381D01*
X7240714Y-12342333D01*
X7221667Y-12332809D01*
X7193095Y-12332809D01*
X7174048Y-12323286D01*
X7164524Y-12304238D01*
X7164524Y-12294714D01*
X7174048Y-12275667D01*
X7193095Y-12266143D01*
X7221667Y-12266143D01*
X7240714Y-12275667D01*
X7316905Y-12475667D02*
X7326428Y-12466143D01*
X7345476Y-12437571D01*
X7355000Y-12418524D01*
X7364524Y-12389952D01*
X7374048Y-12342333D01*
X7374048Y-12304238D01*
X7364524Y-12256619D01*
X7355000Y-12228048D01*
X7345476Y-12209000D01*
X7326428Y-12180428D01*
X7316905Y-12170905D01*
X7678809Y-12475667D02*
X7669286Y-12466143D01*
X7650238Y-12437571D01*
X7640714Y-12418524D01*
X7631190Y-12389952D01*
X7621667Y-12342333D01*
X7621667Y-12304238D01*
X7631190Y-12256619D01*
X7640714Y-12228048D01*
X7650238Y-12209000D01*
X7669286Y-12180428D01*
X7678809Y-12170905D01*
X7755000Y-12266143D02*
X7755000Y-12399476D01*
X7755000Y-12285190D02*
X7764524Y-12275667D01*
X7783571Y-12266143D01*
X7812143Y-12266143D01*
X7831190Y-12275667D01*
X7840714Y-12294714D01*
X7840714Y-12399476D01*
X7964524Y-12399476D02*
X7945476Y-12389952D01*
X7935952Y-12380428D01*
X7926428Y-12361381D01*
X7926428Y-12304238D01*
X7935952Y-12285190D01*
X7945476Y-12275667D01*
X7964524Y-12266143D01*
X7993095Y-12266143D01*
X8012143Y-12275667D01*
X8021667Y-12285190D01*
X8031190Y-12304238D01*
X8031190Y-12361381D01*
X8021667Y-12380428D01*
X8012143Y-12389952D01*
X7993095Y-12399476D01*
X7964524Y-12399476D01*
X8088333Y-12266143D02*
X8164524Y-12266143D01*
X8116905Y-12199476D02*
X8116905Y-12370905D01*
X8126428Y-12389952D01*
X8145476Y-12399476D01*
X8164524Y-12399476D01*
X8383571Y-12266143D02*
X8383571Y-12466143D01*
X8383571Y-12275667D02*
X8402619Y-12266143D01*
X8440714Y-12266143D01*
X8459762Y-12275667D01*
X8469286Y-12285190D01*
X8478810Y-12304238D01*
X8478810Y-12361381D01*
X8469286Y-12380428D01*
X8459762Y-12389952D01*
X8440714Y-12399476D01*
X8402619Y-12399476D01*
X8383571Y-12389952D01*
X8593095Y-12399476D02*
X8574048Y-12389952D01*
X8564524Y-12370905D01*
X8564524Y-12199476D01*
X8755000Y-12399476D02*
X8755000Y-12294714D01*
X8745476Y-12275667D01*
X8726429Y-12266143D01*
X8688333Y-12266143D01*
X8669286Y-12275667D01*
X8755000Y-12389952D02*
X8735952Y-12399476D01*
X8688333Y-12399476D01*
X8669286Y-12389952D01*
X8659762Y-12370905D01*
X8659762Y-12351857D01*
X8669286Y-12332809D01*
X8688333Y-12323286D01*
X8735952Y-12323286D01*
X8755000Y-12313762D01*
X8821667Y-12266143D02*
X8897857Y-12266143D01*
X8850238Y-12199476D02*
X8850238Y-12370905D01*
X8859762Y-12389952D01*
X8878810Y-12399476D01*
X8897857Y-12399476D01*
X9040714Y-12389952D02*
X9021667Y-12399476D01*
X8983571Y-12399476D01*
X8964524Y-12389952D01*
X8955000Y-12370905D01*
X8955000Y-12294714D01*
X8964524Y-12275667D01*
X8983571Y-12266143D01*
X9021667Y-12266143D01*
X9040714Y-12275667D01*
X9050238Y-12294714D01*
X9050238Y-12313762D01*
X8955000Y-12332809D01*
X9221667Y-12399476D02*
X9221667Y-12199476D01*
X9221667Y-12389952D02*
X9202619Y-12399476D01*
X9164524Y-12399476D01*
X9145476Y-12389952D01*
X9135952Y-12380428D01*
X9126429Y-12361381D01*
X9126429Y-12304238D01*
X9135952Y-12285190D01*
X9145476Y-12275667D01*
X9164524Y-12266143D01*
X9202619Y-12266143D01*
X9221667Y-12275667D01*
X9297857Y-12475667D02*
X9307381Y-12466143D01*
X9326429Y-12437571D01*
X9335952Y-12418524D01*
X9345476Y-12389952D01*
X9355000Y-12342333D01*
X9355000Y-12304238D01*
X9345476Y-12256619D01*
X9335952Y-12228048D01*
X9326429Y-12209000D01*
X9307381Y-12180428D01*
X9297857Y-12170905D01*
D13*
X2470000Y-12498000D02*
X2470000Y-12648000D01*
X2395000Y-12573000D02*
X2545000Y-12573000D01*
D11*
X2907381Y-12663476D02*
X2793095Y-12663476D01*
X2850238Y-12663476D02*
X2850238Y-12463476D01*
X2831190Y-12492048D01*
X2812143Y-12511095D01*
X2793095Y-12520619D01*
X2993095Y-12644428D02*
X3002619Y-12653952D01*
X2993095Y-12663476D01*
X2983571Y-12653952D01*
X2993095Y-12644428D01*
X2993095Y-12663476D01*
X3183571Y-12463476D02*
X3088333Y-12463476D01*
X3078809Y-12558714D01*
X3088333Y-12549190D01*
X3107381Y-12539667D01*
X3155000Y-12539667D01*
X3174048Y-12549190D01*
X3183571Y-12558714D01*
X3193095Y-12577762D01*
X3193095Y-12625381D01*
X3183571Y-12644428D01*
X3174048Y-12653952D01*
X3155000Y-12663476D01*
X3107381Y-12663476D01*
X3088333Y-12653952D01*
X3078809Y-12644428D01*
X3316905Y-12463476D02*
X3335952Y-12463476D01*
X3355000Y-12473000D01*
X3364524Y-12482524D01*
X3374048Y-12501571D01*
X3383571Y-12539667D01*
X3383571Y-12587286D01*
X3374048Y-12625381D01*
X3364524Y-12644428D01*
X3355000Y-12653952D01*
X3335952Y-12663476D01*
X3316905Y-12663476D01*
X3297857Y-12653952D01*
X3288333Y-12644428D01*
X3278809Y-12625381D01*
X3269286Y-12587286D01*
X3269286Y-12539667D01*
X3278809Y-12501571D01*
X3288333Y-12482524D01*
X3297857Y-12473000D01*
X3316905Y-12463476D01*
X3507381Y-12463476D02*
X3526428Y-12463476D01*
X3545476Y-12473000D01*
X3555000Y-12482524D01*
X3564524Y-12501571D01*
X3574048Y-12539667D01*
X3574048Y-12587286D01*
X3564524Y-12625381D01*
X3555000Y-12644428D01*
X3545476Y-12653952D01*
X3526428Y-12663476D01*
X3507381Y-12663476D01*
X3488333Y-12653952D01*
X3478809Y-12644428D01*
X3469286Y-12625381D01*
X3459762Y-12587286D01*
X3459762Y-12539667D01*
X3469286Y-12501571D01*
X3478809Y-12482524D01*
X3488333Y-12473000D01*
X3507381Y-12463476D01*
X3659762Y-12663476D02*
X3659762Y-12530143D01*
X3659762Y-12549190D02*
X3669286Y-12539667D01*
X3688333Y-12530143D01*
X3716905Y-12530143D01*
X3735952Y-12539667D01*
X3745476Y-12558714D01*
X3745476Y-12663476D01*
X3745476Y-12558714D02*
X3755000Y-12539667D01*
X3774048Y-12530143D01*
X3802619Y-12530143D01*
X3821667Y-12539667D01*
X3831190Y-12558714D01*
X3831190Y-12663476D01*
X3926428Y-12663476D02*
X3926428Y-12530143D01*
X3926428Y-12549190D02*
X3935952Y-12539667D01*
X3955000Y-12530143D01*
X3983571Y-12530143D01*
X4002619Y-12539667D01*
X4012143Y-12558714D01*
X4012143Y-12663476D01*
X4012143Y-12558714D02*
X4021667Y-12539667D01*
X4040714Y-12530143D01*
X4069286Y-12530143D01*
X4088333Y-12539667D01*
X4097857Y-12558714D01*
X4097857Y-12663476D01*
X4488333Y-12453952D02*
X4316905Y-12711095D01*
X4745476Y-12463476D02*
X4764524Y-12463476D01*
X4783571Y-12473000D01*
X4793095Y-12482524D01*
X4802619Y-12501571D01*
X4812143Y-12539667D01*
X4812143Y-12587286D01*
X4802619Y-12625381D01*
X4793095Y-12644428D01*
X4783571Y-12653952D01*
X4764524Y-12663476D01*
X4745476Y-12663476D01*
X4726429Y-12653952D01*
X4716905Y-12644428D01*
X4707381Y-12625381D01*
X4697857Y-12587286D01*
X4697857Y-12539667D01*
X4707381Y-12501571D01*
X4716905Y-12482524D01*
X4726429Y-12473000D01*
X4745476Y-12463476D01*
X4897857Y-12644428D02*
X4907381Y-12653952D01*
X4897857Y-12663476D01*
X4888333Y-12653952D01*
X4897857Y-12644428D01*
X4897857Y-12663476D01*
X5031190Y-12463476D02*
X5050238Y-12463476D01*
X5069286Y-12473000D01*
X5078810Y-12482524D01*
X5088333Y-12501571D01*
X5097857Y-12539667D01*
X5097857Y-12587286D01*
X5088333Y-12625381D01*
X5078810Y-12644428D01*
X5069286Y-12653952D01*
X5050238Y-12663476D01*
X5031190Y-12663476D01*
X5012143Y-12653952D01*
X5002619Y-12644428D01*
X4993095Y-12625381D01*
X4983571Y-12587286D01*
X4983571Y-12539667D01*
X4993095Y-12501571D01*
X5002619Y-12482524D01*
X5012143Y-12473000D01*
X5031190Y-12463476D01*
X5278810Y-12463476D02*
X5183571Y-12463476D01*
X5174048Y-12558714D01*
X5183571Y-12549190D01*
X5202619Y-12539667D01*
X5250238Y-12539667D01*
X5269286Y-12549190D01*
X5278810Y-12558714D01*
X5288333Y-12577762D01*
X5288333Y-12625381D01*
X5278810Y-12644428D01*
X5269286Y-12653952D01*
X5250238Y-12663476D01*
X5202619Y-12663476D01*
X5183571Y-12653952D01*
X5174048Y-12644428D01*
X5383571Y-12663476D02*
X5421667Y-12663476D01*
X5440714Y-12653952D01*
X5450238Y-12644428D01*
X5469286Y-12615857D01*
X5478810Y-12577762D01*
X5478810Y-12501571D01*
X5469286Y-12482524D01*
X5459762Y-12473000D01*
X5440714Y-12463476D01*
X5402619Y-12463476D01*
X5383571Y-12473000D01*
X5374048Y-12482524D01*
X5364524Y-12501571D01*
X5364524Y-12549190D01*
X5374048Y-12568238D01*
X5383571Y-12577762D01*
X5402619Y-12587286D01*
X5440714Y-12587286D01*
X5459762Y-12577762D01*
X5469286Y-12568238D01*
X5478810Y-12549190D01*
X5669286Y-12663476D02*
X5555000Y-12663476D01*
X5612143Y-12663476D02*
X5612143Y-12463476D01*
X5593095Y-12492048D01*
X5574048Y-12511095D01*
X5555000Y-12520619D01*
X5745476Y-12463476D02*
X5745476Y-12501571D01*
X5821667Y-12463476D02*
X5821667Y-12501571D01*
X6116905Y-12739667D02*
X6107381Y-12730143D01*
X6088333Y-12701571D01*
X6078809Y-12682524D01*
X6069286Y-12653952D01*
X6059762Y-12606333D01*
X6059762Y-12568238D01*
X6069286Y-12520619D01*
X6078809Y-12492048D01*
X6088333Y-12473000D01*
X6107381Y-12444428D01*
X6116905Y-12434905D01*
X6183571Y-12482524D02*
X6193095Y-12473000D01*
X6212143Y-12463476D01*
X6259762Y-12463476D01*
X6278809Y-12473000D01*
X6288333Y-12482524D01*
X6297857Y-12501571D01*
X6297857Y-12520619D01*
X6288333Y-12549190D01*
X6174048Y-12663476D01*
X6297857Y-12663476D01*
X6535952Y-12663476D02*
X6535952Y-12463476D01*
X6621667Y-12663476D02*
X6621667Y-12558714D01*
X6612143Y-12539667D01*
X6593095Y-12530143D01*
X6564524Y-12530143D01*
X6545476Y-12539667D01*
X6535952Y-12549190D01*
X6745476Y-12663476D02*
X6726428Y-12653952D01*
X6716905Y-12644428D01*
X6707381Y-12625381D01*
X6707381Y-12568238D01*
X6716905Y-12549190D01*
X6726428Y-12539667D01*
X6745476Y-12530143D01*
X6774048Y-12530143D01*
X6793095Y-12539667D01*
X6802619Y-12549190D01*
X6812143Y-12568238D01*
X6812143Y-12625381D01*
X6802619Y-12644428D01*
X6793095Y-12653952D01*
X6774048Y-12663476D01*
X6745476Y-12663476D01*
X6926428Y-12663476D02*
X6907381Y-12653952D01*
X6897857Y-12634905D01*
X6897857Y-12463476D01*
X7078809Y-12653952D02*
X7059762Y-12663476D01*
X7021667Y-12663476D01*
X7002619Y-12653952D01*
X6993095Y-12634905D01*
X6993095Y-12558714D01*
X7002619Y-12539667D01*
X7021667Y-12530143D01*
X7059762Y-12530143D01*
X7078809Y-12539667D01*
X7088333Y-12558714D01*
X7088333Y-12577762D01*
X6993095Y-12596809D01*
X7164524Y-12653952D02*
X7183571Y-12663476D01*
X7221667Y-12663476D01*
X7240714Y-12653952D01*
X7250238Y-12634905D01*
X7250238Y-12625381D01*
X7240714Y-12606333D01*
X7221667Y-12596809D01*
X7193095Y-12596809D01*
X7174048Y-12587286D01*
X7164524Y-12568238D01*
X7164524Y-12558714D01*
X7174048Y-12539667D01*
X7193095Y-12530143D01*
X7221667Y-12530143D01*
X7240714Y-12539667D01*
X7316905Y-12739667D02*
X7326428Y-12730143D01*
X7345476Y-12701571D01*
X7355000Y-12682524D01*
X7364524Y-12653952D01*
X7374048Y-12606333D01*
X7374048Y-12568238D01*
X7364524Y-12520619D01*
X7355000Y-12492048D01*
X7345476Y-12473000D01*
X7326428Y-12444428D01*
X7316905Y-12434905D01*
X7678809Y-12739667D02*
X7669286Y-12730143D01*
X7650238Y-12701571D01*
X7640714Y-12682524D01*
X7631190Y-12653952D01*
X7621667Y-12606333D01*
X7621667Y-12568238D01*
X7631190Y-12520619D01*
X7640714Y-12492048D01*
X7650238Y-12473000D01*
X7669286Y-12444428D01*
X7678809Y-12434905D01*
X7755000Y-12530143D02*
X7755000Y-12663476D01*
X7755000Y-12549190D02*
X7764524Y-12539667D01*
X7783571Y-12530143D01*
X7812143Y-12530143D01*
X7831190Y-12539667D01*
X7840714Y-12558714D01*
X7840714Y-12663476D01*
X7964524Y-12663476D02*
X7945476Y-12653952D01*
X7935952Y-12644428D01*
X7926428Y-12625381D01*
X7926428Y-12568238D01*
X7935952Y-12549190D01*
X7945476Y-12539667D01*
X7964524Y-12530143D01*
X7993095Y-12530143D01*
X8012143Y-12539667D01*
X8021667Y-12549190D01*
X8031190Y-12568238D01*
X8031190Y-12625381D01*
X8021667Y-12644428D01*
X8012143Y-12653952D01*
X7993095Y-12663476D01*
X7964524Y-12663476D01*
X8088333Y-12530143D02*
X8164524Y-12530143D01*
X8116905Y-12463476D02*
X8116905Y-12634905D01*
X8126428Y-12653952D01*
X8145476Y-12663476D01*
X8164524Y-12663476D01*
X8383571Y-12530143D02*
X8383571Y-12730143D01*
X8383571Y-12539667D02*
X8402619Y-12530143D01*
X8440714Y-12530143D01*
X8459762Y-12539667D01*
X8469286Y-12549190D01*
X8478810Y-12568238D01*
X8478810Y-12625381D01*
X8469286Y-12644428D01*
X8459762Y-12653952D01*
X8440714Y-12663476D01*
X8402619Y-12663476D01*
X8383571Y-12653952D01*
X8593095Y-12663476D02*
X8574048Y-12653952D01*
X8564524Y-12634905D01*
X8564524Y-12463476D01*
X8755000Y-12663476D02*
X8755000Y-12558714D01*
X8745476Y-12539667D01*
X8726429Y-12530143D01*
X8688333Y-12530143D01*
X8669286Y-12539667D01*
X8755000Y-12653952D02*
X8735952Y-12663476D01*
X8688333Y-12663476D01*
X8669286Y-12653952D01*
X8659762Y-12634905D01*
X8659762Y-12615857D01*
X8669286Y-12596809D01*
X8688333Y-12587286D01*
X8735952Y-12587286D01*
X8755000Y-12577762D01*
X8821667Y-12530143D02*
X8897857Y-12530143D01*
X8850238Y-12463476D02*
X8850238Y-12634905D01*
X8859762Y-12653952D01*
X8878810Y-12663476D01*
X8897857Y-12663476D01*
X9040714Y-12653952D02*
X9021667Y-12663476D01*
X8983571Y-12663476D01*
X8964524Y-12653952D01*
X8955000Y-12634905D01*
X8955000Y-12558714D01*
X8964524Y-12539667D01*
X8983571Y-12530143D01*
X9021667Y-12530143D01*
X9040714Y-12539667D01*
X9050238Y-12558714D01*
X9050238Y-12577762D01*
X8955000Y-12596809D01*
X9221667Y-12663476D02*
X9221667Y-12463476D01*
X9221667Y-12653952D02*
X9202619Y-12663476D01*
X9164524Y-12663476D01*
X9145476Y-12653952D01*
X9135952Y-12644428D01*
X9126429Y-12625381D01*
X9126429Y-12568238D01*
X9135952Y-12549190D01*
X9145476Y-12539667D01*
X9164524Y-12530143D01*
X9202619Y-12530143D01*
X9221667Y-12539667D01*
X9297857Y-12739667D02*
X9307381Y-12730143D01*
X9326429Y-12701571D01*
X9335952Y-12682524D01*
X9345476Y-12653952D01*
X9355000Y-12606333D01*
X9355000Y-12568238D01*
X9345476Y-12520619D01*
X9335952Y-12492048D01*
X9326429Y-12473000D01*
X9307381Y-12444428D01*
X9297857Y-12434905D01*
M02*
