G04 #@! TF.GenerationSoftware,KiCad,Pcbnew,6.0.11-2627ca5db0~126~ubuntu20.04.1*
G04 #@! TF.CreationDate,2024-05-08T21:41:51+05:00*
G04 #@! TF.ProjectId,19RPI24,31395250-4932-4342-9e6b-696361645f70,rev?*
G04 #@! TF.SameCoordinates,Original*
G04 #@! TF.FileFunction,Legend,Bot*
G04 #@! TF.FilePolarity,Positive*
%FSLAX46Y46*%
G04 Gerber Fmt 4.6, Leading zero omitted, Abs format (unit mm)*
G04 Created by KiCad (PCBNEW 6.0.11-2627ca5db0~126~ubuntu20.04.1) date 2024-05-08 21:41:51*
%MOMM*%
%LPD*%
G01*
G04 APERTURE LIST*
G04 Aperture macros list*
%AMRoundRect*
0 Rectangle with rounded corners*
0 $1 Rounding radius*
0 $2 $3 $4 $5 $6 $7 $8 $9 X,Y pos of 4 corners*
0 Add a 4 corners polygon primitive as box body*
4,1,4,$2,$3,$4,$5,$6,$7,$8,$9,$2,$3,0*
0 Add four circle primitives for the rounded corners*
1,1,$1+$1,$2,$3*
1,1,$1+$1,$4,$5*
1,1,$1+$1,$6,$7*
1,1,$1+$1,$8,$9*
0 Add four rect primitives between the rounded corners*
20,1,$1+$1,$2,$3,$4,$5,0*
20,1,$1+$1,$4,$5,$6,$7,0*
20,1,$1+$1,$6,$7,$8,$9,0*
20,1,$1+$1,$8,$9,$2,$3,0*%
%AMFreePoly0*
4,1,31,0.278115,0.855951,0.450000,0.779423,0.602218,0.668830,0.728115,0.529007,0.822191,0.366063,0.880333,0.187121,0.900000,0.000000,0.880333,-0.187121,0.822191,-0.366063,0.728115,-0.529007,0.602218,-0.668830,0.450000,-0.779423,0.278115,-0.855951,0.094076,-0.895070,-0.094076,-0.895070,-0.278115,-0.855951,-0.450000,-0.779423,-0.602218,-0.668830,-0.728115,-0.529007,-0.822191,-0.366063,
-0.880333,-0.187121,-0.900000,0.000000,-0.880333,0.187121,-0.822191,0.366063,-0.728115,0.529007,-0.602218,0.668830,-0.450000,0.779423,-0.278115,0.855951,-0.094076,0.895070,0.094076,0.895070,0.278115,0.855951,0.278115,0.855951,$1*%
%AMFreePoly1*
4,1,22,0.500000,-0.750000,0.000000,-0.750000,0.000000,-0.745033,-0.079941,-0.743568,-0.215256,-0.701293,-0.333266,-0.622738,-0.424486,-0.514219,-0.481581,-0.384460,-0.499164,-0.250000,-0.500000,-0.250000,-0.500000,0.250000,-0.499164,0.250000,-0.499963,0.256109,-0.478152,0.396186,-0.417904,0.524511,-0.324060,0.630769,-0.204165,0.706417,-0.067858,0.745374,0.000000,0.744959,0.000000,0.750000,
0.500000,0.750000,0.500000,-0.750000,0.500000,-0.750000,$1*%
%AMFreePoly2*
4,1,20,0.000000,0.744959,0.073905,0.744508,0.209726,0.703889,0.328688,0.626782,0.421226,0.519385,0.479903,0.390333,0.500000,0.250000,0.500000,-0.250000,0.499851,-0.262216,0.476331,-0.402017,0.414519,-0.529596,0.319384,-0.634700,0.198574,-0.708877,0.061801,-0.746166,0.000000,-0.745033,0.000000,-0.750000,-0.500000,-0.750000,-0.500000,0.750000,0.000000,0.750000,0.000000,0.744959,
0.000000,0.744959,$1*%
G04 Aperture macros list end*
%ADD10C,0.150000*%
%ADD11C,0.125000*%
%ADD12C,0.120000*%
%ADD13C,0.250000*%
%ADD14C,1.000000*%
%ADD15R,1.500000X1.500000*%
%ADD16C,1.500000*%
%ADD17C,3.000000*%
%ADD18R,1.700000X1.700000*%
%ADD19O,1.700000X1.700000*%
%ADD20RoundRect,0.350000X-1.300000X0.350000X-1.300000X-0.350000X1.300000X-0.350000X1.300000X0.350000X0*%
%ADD21RoundRect,0.350000X-0.700000X0.350000X-0.700000X-0.350000X0.700000X-0.350000X0.700000X0.350000X0*%
%ADD22C,1.700000*%
%ADD23O,2.000000X3.500000*%
%ADD24O,4.000000X2.000000*%
%ADD25RoundRect,0.350000X-0.450000X-0.350000X0.450000X-0.350000X0.450000X0.350000X-0.450000X0.350000X0*%
%ADD26C,1.800000*%
%ADD27C,0.650000*%
%ADD28O,1.600000X1.000000*%
%ADD29O,2.100000X1.000000*%
%ADD30O,1.700000X2.000000*%
%ADD31O,1.100000X1.100000*%
%ADD32RoundRect,1.000000X-1.000000X1.500000X-1.000000X-1.500000X1.000000X-1.500000X1.000000X1.500000X0*%
%ADD33R,1.600000X1.600000*%
%ADD34C,1.600000*%
%ADD35O,5.000000X1.600000*%
%ADD36RoundRect,0.400000X-2.100000X-0.400000X2.100000X-0.400000X2.100000X0.400000X-2.100000X0.400000X0*%
%ADD37RoundRect,0.250000X0.450000X-0.350000X0.450000X0.350000X-0.450000X0.350000X-0.450000X-0.350000X0*%
%ADD38RoundRect,0.250000X0.337500X0.475000X-0.337500X0.475000X-0.337500X-0.475000X0.337500X-0.475000X0*%
%ADD39RoundRect,0.250000X-0.350000X-0.450000X0.350000X-0.450000X0.350000X0.450000X-0.350000X0.450000X0*%
%ADD40RoundRect,0.250000X-0.475000X0.337500X-0.475000X-0.337500X0.475000X-0.337500X0.475000X0.337500X0*%
%ADD41RoundRect,0.250000X0.350000X0.450000X-0.350000X0.450000X-0.350000X-0.450000X0.350000X-0.450000X0*%
%ADD42FreePoly0,180.000000*%
%ADD43RoundRect,0.250000X-0.337500X-0.475000X0.337500X-0.475000X0.337500X0.475000X-0.337500X0.475000X0*%
%ADD44FreePoly1,270.000000*%
%ADD45FreePoly2,270.000000*%
%ADD46RoundRect,0.250000X-0.450000X0.350000X-0.450000X-0.350000X0.450000X-0.350000X0.450000X0.350000X0*%
%ADD47FreePoly1,90.000000*%
%ADD48FreePoly2,90.000000*%
%ADD49R,1.200000X0.400000*%
%ADD50R,0.700000X1.600000*%
%ADD51R,1.200000X2.200000*%
%ADD52R,1.200000X1.400000*%
%ADD53R,1.600000X1.400000*%
%ADD54FreePoly0,270.000000*%
%ADD55RoundRect,0.150000X0.150000X-0.587500X0.150000X0.587500X-0.150000X0.587500X-0.150000X-0.587500X0*%
%ADD56RoundRect,0.150000X-0.150000X0.587500X-0.150000X-0.587500X0.150000X-0.587500X0.150000X0.587500X0*%
%ADD57RoundRect,0.250000X0.475000X-0.337500X0.475000X0.337500X-0.475000X0.337500X-0.475000X-0.337500X0*%
%ADD58R,3.048000X1.392000*%
%ADD59R,2.921000X1.392000*%
%ADD60R,1.600000X1.200000*%
%ADD61RoundRect,0.150000X0.837500X0.150000X-0.837500X0.150000X-0.837500X-0.150000X0.837500X-0.150000X0*%
G04 APERTURE END LIST*
D10*
X58719102Y-71714682D02*
X58720000Y-73658621D01*
X66845268Y-84923391D02*
X66654791Y-85113867D01*
X66845268Y-85304343D01*
X67035744Y-85113867D01*
X66845268Y-84923391D01*
X66845268Y-85304343D01*
X80322000Y-70492904D02*
X80279142Y-70397666D01*
X80279142Y-70254809D01*
X80322000Y-70111952D01*
X80407714Y-70016714D01*
X80493428Y-69969095D01*
X80664857Y-69921476D01*
X80793428Y-69921476D01*
X80964857Y-69969095D01*
X81050571Y-70016714D01*
X81136285Y-70111952D01*
X81179142Y-70254809D01*
X81179142Y-70350047D01*
X81136285Y-70492904D01*
X81093428Y-70540523D01*
X80793428Y-70540523D01*
X80793428Y-70350047D01*
X75718142Y-82867523D02*
X75718142Y-82296095D01*
X75718142Y-82581809D02*
X74818142Y-82581809D01*
X74946714Y-82486571D01*
X75032428Y-82391333D01*
X75075285Y-82296095D01*
X74818142Y-83772285D02*
X74818142Y-83296095D01*
X75246714Y-83248476D01*
X75203857Y-83296095D01*
X75161000Y-83391333D01*
X75161000Y-83629428D01*
X75203857Y-83724666D01*
X75246714Y-83772285D01*
X75332428Y-83819904D01*
X75546714Y-83819904D01*
X75632428Y-83772285D01*
X75675285Y-83724666D01*
X75718142Y-83629428D01*
X75718142Y-83391333D01*
X75675285Y-83296095D01*
X75632428Y-83248476D01*
X74903857Y-56896095D02*
X74861000Y-56943714D01*
X74818142Y-57038952D01*
X74818142Y-57277047D01*
X74861000Y-57372285D01*
X74903857Y-57419904D01*
X74989571Y-57467523D01*
X75075285Y-57467523D01*
X75203857Y-57419904D01*
X75718142Y-56848476D01*
X75718142Y-57467523D01*
X74818142Y-57800857D02*
X74818142Y-58467523D01*
X75718142Y-58038952D01*
D11*
X63226904Y-86296904D02*
X62426904Y-86296904D01*
X62998333Y-86630238D01*
X62426904Y-86963571D01*
X63226904Y-86963571D01*
X62426904Y-87344523D02*
X63226904Y-87582619D01*
X62655476Y-87773095D01*
X63226904Y-87963571D01*
X62426904Y-88201666D01*
X62426904Y-88487380D02*
X62426904Y-89154047D01*
X63226904Y-88725476D01*
X62503095Y-89487380D02*
X62465000Y-89535000D01*
X62426904Y-89630238D01*
X62426904Y-89868333D01*
X62465000Y-89963571D01*
X62503095Y-90011190D01*
X62579285Y-90058809D01*
X62655476Y-90058809D01*
X62769761Y-90011190D01*
X63226904Y-89439761D01*
X63226904Y-90058809D01*
X63226904Y-91011190D02*
X63226904Y-90439761D01*
X63226904Y-90725476D02*
X62426904Y-90725476D01*
X62541190Y-90630238D01*
X62617380Y-90535000D01*
X62655476Y-90439761D01*
X63226904Y-91963571D02*
X63226904Y-91392142D01*
X63226904Y-91677857D02*
X62426904Y-91677857D01*
X62541190Y-91582619D01*
X62617380Y-91487380D01*
X62655476Y-91392142D01*
X62998333Y-92344523D02*
X62998333Y-92820714D01*
X63226904Y-92249285D02*
X62426904Y-92582619D01*
X63226904Y-92915952D01*
D10*
X75718142Y-75247523D02*
X75718142Y-74676095D01*
X75718142Y-74961809D02*
X74818142Y-74961809D01*
X74946714Y-74866571D01*
X75032428Y-74771333D01*
X75075285Y-74676095D01*
X75203857Y-75818952D02*
X75161000Y-75723714D01*
X75118142Y-75676095D01*
X75032428Y-75628476D01*
X74989571Y-75628476D01*
X74903857Y-75676095D01*
X74861000Y-75723714D01*
X74818142Y-75818952D01*
X74818142Y-76009428D01*
X74861000Y-76104666D01*
X74903857Y-76152285D01*
X74989571Y-76199904D01*
X75032428Y-76199904D01*
X75118142Y-76152285D01*
X75161000Y-76104666D01*
X75203857Y-76009428D01*
X75203857Y-75818952D01*
X75246714Y-75723714D01*
X75289571Y-75676095D01*
X75375285Y-75628476D01*
X75546714Y-75628476D01*
X75632428Y-75676095D01*
X75675285Y-75723714D01*
X75718142Y-75818952D01*
X75718142Y-76009428D01*
X75675285Y-76104666D01*
X75632428Y-76152285D01*
X75546714Y-76199904D01*
X75375285Y-76199904D01*
X75289571Y-76152285D01*
X75246714Y-76104666D01*
X75203857Y-76009428D01*
X75718142Y-85407523D02*
X75718142Y-84836095D01*
X75718142Y-85121809D02*
X74818142Y-85121809D01*
X74946714Y-85026571D01*
X75032428Y-84931333D01*
X75075285Y-84836095D01*
X75118142Y-86264666D02*
X75718142Y-86264666D01*
X74775285Y-86026571D02*
X75418142Y-85788476D01*
X75418142Y-86407523D01*
D11*
X56860285Y-87630238D02*
X56860285Y-87296904D01*
X57122190Y-87296904D02*
X56622190Y-87296904D01*
X56622190Y-87773095D01*
X56860285Y-88154047D02*
X56860285Y-88487380D01*
X57122190Y-88630238D02*
X57122190Y-88154047D01*
X56622190Y-88154047D01*
X56622190Y-88630238D01*
X57122190Y-89582619D02*
X57122190Y-89011190D01*
X57122190Y-89296904D02*
X56622190Y-89296904D01*
X56693619Y-89201666D01*
X56741238Y-89106428D01*
X56765047Y-89011190D01*
X57074571Y-90011190D02*
X57098380Y-90058809D01*
X57122190Y-90011190D01*
X57098380Y-89963571D01*
X57074571Y-90011190D01*
X57122190Y-90011190D01*
X57122190Y-91011190D02*
X57122190Y-90439761D01*
X57122190Y-90725476D02*
X56622190Y-90725476D01*
X56693619Y-90630238D01*
X56741238Y-90535000D01*
X56765047Y-90439761D01*
X57098380Y-91392142D02*
X57122190Y-91487380D01*
X57122190Y-91677857D01*
X57098380Y-91773095D01*
X57050761Y-91820714D01*
X57026952Y-91820714D01*
X56979333Y-91773095D01*
X56955523Y-91677857D01*
X56955523Y-91535000D01*
X56931714Y-91439761D01*
X56884095Y-91392142D01*
X56860285Y-91392142D01*
X56812666Y-91439761D01*
X56788857Y-91535000D01*
X56788857Y-91677857D01*
X56812666Y-91773095D01*
D10*
X75833211Y-97978852D02*
X75033211Y-97978852D01*
X75833211Y-98435995D02*
X75376068Y-98093137D01*
X75033211Y-98435995D02*
X75490354Y-97978852D01*
X74903857Y-51689142D02*
X74861000Y-51736761D01*
X74818142Y-51832000D01*
X74818142Y-52070095D01*
X74861000Y-52165333D01*
X74903857Y-52212952D01*
X74989571Y-52260571D01*
X75075285Y-52260571D01*
X75203857Y-52212952D01*
X75718142Y-51641523D01*
X75718142Y-52260571D01*
X75718142Y-52736761D02*
X75718142Y-52927238D01*
X75675285Y-53022476D01*
X75632428Y-53070095D01*
X75503857Y-53165333D01*
X75332428Y-53212952D01*
X74989571Y-53212952D01*
X74903857Y-53165333D01*
X74861000Y-53117714D01*
X74818142Y-53022476D01*
X74818142Y-52832000D01*
X74861000Y-52736761D01*
X74903857Y-52689142D01*
X74989571Y-52641523D01*
X75203857Y-52641523D01*
X75289571Y-52689142D01*
X75332428Y-52736761D01*
X75375285Y-52832000D01*
X75375285Y-53022476D01*
X75332428Y-53117714D01*
X75289571Y-53165333D01*
X75203857Y-53212952D01*
X74818142Y-53784380D02*
X75032428Y-53784380D01*
X74946714Y-53546285D02*
X75032428Y-53784380D01*
X74946714Y-54022476D01*
X75203857Y-53641523D02*
X75032428Y-53784380D01*
X75203857Y-53927238D01*
X74903857Y-41275142D02*
X74861000Y-41322761D01*
X74818142Y-41418000D01*
X74818142Y-41656095D01*
X74861000Y-41751333D01*
X74903857Y-41798952D01*
X74989571Y-41846571D01*
X75075285Y-41846571D01*
X75203857Y-41798952D01*
X75718142Y-41227523D01*
X75718142Y-41846571D01*
X74818142Y-42179904D02*
X74818142Y-42798952D01*
X75161000Y-42465619D01*
X75161000Y-42608476D01*
X75203857Y-42703714D01*
X75246714Y-42751333D01*
X75332428Y-42798952D01*
X75546714Y-42798952D01*
X75632428Y-42751333D01*
X75675285Y-42703714D01*
X75718142Y-42608476D01*
X75718142Y-42322761D01*
X75675285Y-42227523D01*
X75632428Y-42179904D01*
X74818142Y-43370380D02*
X75032428Y-43370380D01*
X74946714Y-43132285D02*
X75032428Y-43370380D01*
X74946714Y-43608476D01*
X75203857Y-43227523D02*
X75032428Y-43370380D01*
X75203857Y-43513238D01*
X32138346Y-98662944D02*
X31338346Y-98662944D01*
X32138346Y-99120087D02*
X31681203Y-98777229D01*
X31338346Y-99120087D02*
X31795489Y-98662944D01*
X34892778Y-49194235D02*
X34930873Y-49156140D01*
X34968968Y-49041854D01*
X34968968Y-48965663D01*
X34930873Y-48851378D01*
X34854683Y-48775187D01*
X34778492Y-48737092D01*
X34626111Y-48698997D01*
X34511825Y-48698997D01*
X34359444Y-48737092D01*
X34283254Y-48775187D01*
X34207064Y-48851378D01*
X34168968Y-48965663D01*
X34168968Y-49041854D01*
X34207064Y-49156140D01*
X34245159Y-49194235D01*
X34245159Y-49498997D02*
X34207064Y-49537092D01*
X34168968Y-49613282D01*
X34168968Y-49803759D01*
X34207064Y-49879949D01*
X34245159Y-49918044D01*
X34321349Y-49956140D01*
X34397540Y-49956140D01*
X34511825Y-49918044D01*
X34968968Y-49460901D01*
X34968968Y-49956140D01*
X34168968Y-50451378D02*
X34168968Y-50527568D01*
X34207064Y-50603759D01*
X34245159Y-50641854D01*
X34321349Y-50679949D01*
X34473730Y-50718044D01*
X34664206Y-50718044D01*
X34816587Y-50679949D01*
X34892778Y-50641854D01*
X34930873Y-50603759D01*
X34968968Y-50527568D01*
X34968968Y-50451378D01*
X34930873Y-50375187D01*
X34892778Y-50337092D01*
X34816587Y-50298997D01*
X34664206Y-50260901D01*
X34473730Y-50260901D01*
X34321349Y-50298997D01*
X34245159Y-50337092D01*
X34207064Y-50375187D01*
X34168968Y-50451378D01*
X74861000Y-62999904D02*
X74818142Y-62904666D01*
X74818142Y-62761809D01*
X74861000Y-62618952D01*
X74946714Y-62523714D01*
X75032428Y-62476095D01*
X75203857Y-62428476D01*
X75332428Y-62428476D01*
X75503857Y-62476095D01*
X75589571Y-62523714D01*
X75675285Y-62618952D01*
X75718142Y-62761809D01*
X75718142Y-62857047D01*
X75675285Y-62999904D01*
X75632428Y-63047523D01*
X75332428Y-63047523D01*
X75332428Y-62857047D01*
D11*
X81179142Y-49117380D02*
X80279142Y-49117380D01*
X80279142Y-49307857D01*
X80322000Y-49355476D01*
X80364857Y-49379285D01*
X80450571Y-49403095D01*
X80579142Y-49403095D01*
X80664857Y-49379285D01*
X80707714Y-49355476D01*
X80750571Y-49307857D01*
X80750571Y-49117380D01*
X81136285Y-49593571D02*
X81179142Y-49665000D01*
X81179142Y-49784047D01*
X81136285Y-49831666D01*
X81093428Y-49855476D01*
X81007714Y-49879285D01*
X80922000Y-49879285D01*
X80836285Y-49855476D01*
X80793428Y-49831666D01*
X80750571Y-49784047D01*
X80707714Y-49688809D01*
X80664857Y-49641190D01*
X80622000Y-49617380D01*
X80536285Y-49593571D01*
X80450571Y-49593571D01*
X80364857Y-49617380D01*
X80322000Y-49641190D01*
X80279142Y-49688809D01*
X80279142Y-49807857D01*
X80322000Y-49879285D01*
X80364857Y-50069761D02*
X80322000Y-50093571D01*
X80279142Y-50141190D01*
X80279142Y-50260238D01*
X80322000Y-50307857D01*
X80364857Y-50331666D01*
X80450571Y-50355476D01*
X80536285Y-50355476D01*
X80664857Y-50331666D01*
X81179142Y-50045952D01*
X81179142Y-50355476D01*
X81264857Y-50450714D02*
X81264857Y-50831666D01*
X81179142Y-50950714D02*
X80279142Y-50950714D01*
X80279142Y-51069761D01*
X80322000Y-51141190D01*
X80407714Y-51188809D01*
X80493428Y-51212619D01*
X80664857Y-51236428D01*
X80793428Y-51236428D01*
X80964857Y-51212619D01*
X81050571Y-51188809D01*
X81136285Y-51141190D01*
X81179142Y-51069761D01*
X81179142Y-50950714D01*
D10*
X81179142Y-57967523D02*
X81179142Y-57491333D01*
X80279142Y-57491333D01*
X81179142Y-60507523D02*
X80750571Y-60174190D01*
X81179142Y-59936095D02*
X80279142Y-59936095D01*
X80279142Y-60317047D01*
X80322000Y-60412285D01*
X80364857Y-60459904D01*
X80450571Y-60507523D01*
X80579142Y-60507523D01*
X80664857Y-60459904D01*
X80707714Y-60412285D01*
X80750571Y-60317047D01*
X80750571Y-59936095D01*
X75718142Y-50323714D02*
X75718142Y-49752285D01*
X75718142Y-50038000D02*
X74818142Y-50038000D01*
X74946714Y-49942761D01*
X75032428Y-49847523D01*
X75075285Y-49752285D01*
X75863042Y-93135476D02*
X75063042Y-93135476D01*
X75863042Y-93592619D02*
X75405899Y-93249761D01*
X75063042Y-93592619D02*
X75520185Y-93135476D01*
X27585142Y-60020285D02*
X26685142Y-60020285D01*
X27113714Y-60020285D02*
X27113714Y-60534571D01*
X27585142Y-60534571D02*
X26685142Y-60534571D01*
X27542285Y-60920285D02*
X27585142Y-61048857D01*
X27585142Y-61263142D01*
X27542285Y-61348857D01*
X27499428Y-61391714D01*
X27413714Y-61434571D01*
X27328000Y-61434571D01*
X27242285Y-61391714D01*
X27199428Y-61348857D01*
X27156571Y-61263142D01*
X27113714Y-61091714D01*
X27070857Y-61006000D01*
X27028000Y-60963142D01*
X26942285Y-60920285D01*
X26856571Y-60920285D01*
X26770857Y-60963142D01*
X26728000Y-61006000D01*
X26685142Y-61091714D01*
X26685142Y-61306000D01*
X26728000Y-61434571D01*
X80322000Y-45092904D02*
X80279142Y-44997666D01*
X80279142Y-44854809D01*
X80322000Y-44711952D01*
X80407714Y-44616714D01*
X80493428Y-44569095D01*
X80664857Y-44521476D01*
X80793428Y-44521476D01*
X80964857Y-44569095D01*
X81050571Y-44616714D01*
X81136285Y-44711952D01*
X81179142Y-44854809D01*
X81179142Y-44950047D01*
X81136285Y-45092904D01*
X81093428Y-45140523D01*
X80793428Y-45140523D01*
X80793428Y-44950047D01*
X75718142Y-80327523D02*
X75718142Y-79756095D01*
X75718142Y-80041809D02*
X74818142Y-80041809D01*
X74946714Y-79946571D01*
X75032428Y-79851333D01*
X75075285Y-79756095D01*
X74818142Y-81184666D02*
X74818142Y-80994190D01*
X74861000Y-80898952D01*
X74903857Y-80851333D01*
X75032428Y-80756095D01*
X75203857Y-80708476D01*
X75546714Y-80708476D01*
X75632428Y-80756095D01*
X75675285Y-80803714D01*
X75718142Y-80898952D01*
X75718142Y-81089428D01*
X75675285Y-81184666D01*
X75632428Y-81232285D01*
X75546714Y-81279904D01*
X75332428Y-81279904D01*
X75246714Y-81232285D01*
X75203857Y-81184666D01*
X75161000Y-81089428D01*
X75161000Y-80898952D01*
X75203857Y-80803714D01*
X75246714Y-80756095D01*
X75332428Y-80708476D01*
X75375285Y-43800857D02*
X75375285Y-44486571D01*
X75718142Y-44143714D02*
X75032428Y-44143714D01*
X74818142Y-44829428D02*
X74818142Y-45386571D01*
X75161000Y-45086571D01*
X75161000Y-45215142D01*
X75203857Y-45300857D01*
X75246714Y-45343714D01*
X75332428Y-45386571D01*
X75546714Y-45386571D01*
X75632428Y-45343714D01*
X75675285Y-45300857D01*
X75718142Y-45215142D01*
X75718142Y-44958000D01*
X75675285Y-44872285D01*
X75632428Y-44829428D01*
X74818142Y-45643714D02*
X75718142Y-45943714D01*
X74818142Y-46243714D01*
X80322000Y-83192904D02*
X80279142Y-83097666D01*
X80279142Y-82954809D01*
X80322000Y-82811952D01*
X80407714Y-82716714D01*
X80493428Y-82669095D01*
X80664857Y-82621476D01*
X80793428Y-82621476D01*
X80964857Y-82669095D01*
X81050571Y-82716714D01*
X81136285Y-82811952D01*
X81179142Y-82954809D01*
X81179142Y-83050047D01*
X81136285Y-83192904D01*
X81093428Y-83240523D01*
X80793428Y-83240523D01*
X80793428Y-83050047D01*
X80707714Y-55189428D02*
X80750571Y-55332285D01*
X80793428Y-55379904D01*
X80879142Y-55427523D01*
X81007714Y-55427523D01*
X81093428Y-55379904D01*
X81136285Y-55332285D01*
X81179142Y-55237047D01*
X81179142Y-54856095D01*
X80279142Y-54856095D01*
X80279142Y-55189428D01*
X80322000Y-55284666D01*
X80364857Y-55332285D01*
X80450571Y-55379904D01*
X80536285Y-55379904D01*
X80622000Y-55332285D01*
X80664857Y-55284666D01*
X80707714Y-55189428D01*
X80707714Y-54856095D01*
X80322000Y-80652904D02*
X80279142Y-80557666D01*
X80279142Y-80414809D01*
X80322000Y-80271952D01*
X80407714Y-80176714D01*
X80493428Y-80129095D01*
X80664857Y-80081476D01*
X80793428Y-80081476D01*
X80964857Y-80129095D01*
X81050571Y-80176714D01*
X81136285Y-80271952D01*
X81179142Y-80414809D01*
X81179142Y-80510047D01*
X81136285Y-80652904D01*
X81093428Y-80700523D01*
X80793428Y-80700523D01*
X80793428Y-80510047D01*
X73094904Y-58515571D02*
X73094904Y-59010809D01*
X73399666Y-58744142D01*
X73399666Y-58858428D01*
X73437761Y-58934619D01*
X73475857Y-58972714D01*
X73552047Y-59010809D01*
X73742523Y-59010809D01*
X73818714Y-58972714D01*
X73856809Y-58934619D01*
X73894904Y-58858428D01*
X73894904Y-58629857D01*
X73856809Y-58553666D01*
X73818714Y-58515571D01*
X73094904Y-59239380D02*
X73894904Y-59506047D01*
X73094904Y-59772714D01*
X73094904Y-59963190D02*
X73094904Y-60458428D01*
X73399666Y-60191761D01*
X73399666Y-60306047D01*
X73437761Y-60382238D01*
X73475857Y-60420333D01*
X73552047Y-60458428D01*
X73742523Y-60458428D01*
X73818714Y-60420333D01*
X73856809Y-60382238D01*
X73894904Y-60306047D01*
X73894904Y-60077476D01*
X73856809Y-60001285D01*
X73818714Y-59963190D01*
X73971095Y-60610809D02*
X73971095Y-61220333D01*
X73894904Y-61410809D02*
X73094904Y-61410809D01*
X73971095Y-61601285D02*
X73971095Y-62210809D01*
X73475857Y-62401285D02*
X73475857Y-62667952D01*
X73894904Y-62782238D02*
X73894904Y-62401285D01*
X73094904Y-62401285D01*
X73094904Y-62782238D01*
X73894904Y-63125095D02*
X73094904Y-63125095D01*
X73894904Y-63582238D01*
X73094904Y-63582238D01*
X75375285Y-36180857D02*
X75375285Y-36866571D01*
X75718142Y-36523714D02*
X75032428Y-36523714D01*
X74818142Y-37723714D02*
X74818142Y-37295142D01*
X75246714Y-37252285D01*
X75203857Y-37295142D01*
X75161000Y-37380857D01*
X75161000Y-37595142D01*
X75203857Y-37680857D01*
X75246714Y-37723714D01*
X75332428Y-37766571D01*
X75546714Y-37766571D01*
X75632428Y-37723714D01*
X75675285Y-37680857D01*
X75718142Y-37595142D01*
X75718142Y-37380857D01*
X75675285Y-37295142D01*
X75632428Y-37252285D01*
X74818142Y-38023714D02*
X75718142Y-38323714D01*
X74818142Y-38623714D01*
X32168177Y-93770476D02*
X31368177Y-93770476D01*
X32168177Y-94227619D02*
X31711034Y-93884761D01*
X31368177Y-94227619D02*
X31825320Y-93770476D01*
X34225714Y-60770285D02*
X34268571Y-60898857D01*
X34311428Y-60941714D01*
X34397142Y-60984571D01*
X34525714Y-60984571D01*
X34611428Y-60941714D01*
X34654285Y-60898857D01*
X34697142Y-60813142D01*
X34697142Y-60470285D01*
X33797142Y-60470285D01*
X33797142Y-60770285D01*
X33840000Y-60856000D01*
X33882857Y-60898857D01*
X33968571Y-60941714D01*
X34054285Y-60941714D01*
X34140000Y-60898857D01*
X34182857Y-60856000D01*
X34225714Y-60770285D01*
X34225714Y-60470285D01*
X26685142Y-57691428D02*
X27585142Y-57991428D01*
X26685142Y-58291428D01*
X27542285Y-58548571D02*
X27585142Y-58677142D01*
X27585142Y-58891428D01*
X27542285Y-58977142D01*
X27499428Y-59020000D01*
X27413714Y-59062857D01*
X27328000Y-59062857D01*
X27242285Y-59020000D01*
X27199428Y-58977142D01*
X27156571Y-58891428D01*
X27113714Y-58720000D01*
X27070857Y-58634285D01*
X27028000Y-58591428D01*
X26942285Y-58548571D01*
X26856571Y-58548571D01*
X26770857Y-58591428D01*
X26728000Y-58634285D01*
X26685142Y-58720000D01*
X26685142Y-58934285D01*
X26728000Y-59062857D01*
X74818142Y-39149428D02*
X75718142Y-39449428D01*
X74818142Y-39749428D01*
X75675285Y-40006571D02*
X75718142Y-40135142D01*
X75718142Y-40349428D01*
X75675285Y-40435142D01*
X75632428Y-40478000D01*
X75546714Y-40520857D01*
X75461000Y-40520857D01*
X75375285Y-40478000D01*
X75332428Y-40435142D01*
X75289571Y-40349428D01*
X75246714Y-40178000D01*
X75203857Y-40092285D01*
X75161000Y-40049428D01*
X75075285Y-40006571D01*
X74989571Y-40006571D01*
X74903857Y-40049428D01*
X74861000Y-40092285D01*
X74818142Y-40178000D01*
X74818142Y-40392285D01*
X74861000Y-40520857D01*
X81179142Y-64754190D02*
X80279142Y-64754190D01*
X81179142Y-65230380D02*
X80279142Y-65230380D01*
X81179142Y-65801809D01*
X80279142Y-65801809D01*
X74903857Y-54356095D02*
X74861000Y-54403714D01*
X74818142Y-54498952D01*
X74818142Y-54737047D01*
X74861000Y-54832285D01*
X74903857Y-54879904D01*
X74989571Y-54927523D01*
X75075285Y-54927523D01*
X75203857Y-54879904D01*
X75718142Y-54308476D01*
X75718142Y-54927523D01*
X75203857Y-55498952D02*
X75161000Y-55403714D01*
X75118142Y-55356095D01*
X75032428Y-55308476D01*
X74989571Y-55308476D01*
X74903857Y-55356095D01*
X74861000Y-55403714D01*
X74818142Y-55498952D01*
X74818142Y-55689428D01*
X74861000Y-55784666D01*
X74903857Y-55832285D01*
X74989571Y-55879904D01*
X75032428Y-55879904D01*
X75118142Y-55832285D01*
X75161000Y-55784666D01*
X75203857Y-55689428D01*
X75203857Y-55498952D01*
X75246714Y-55403714D01*
X75289571Y-55356095D01*
X75375285Y-55308476D01*
X75546714Y-55308476D01*
X75632428Y-55356095D01*
X75675285Y-55403714D01*
X75718142Y-55498952D01*
X75718142Y-55689428D01*
X75675285Y-55784666D01*
X75632428Y-55832285D01*
X75546714Y-55879904D01*
X75375285Y-55879904D01*
X75289571Y-55832285D01*
X75246714Y-55784666D01*
X75203857Y-55689428D01*
X74903857Y-64516095D02*
X74861000Y-64563714D01*
X74818142Y-64658952D01*
X74818142Y-64897047D01*
X74861000Y-64992285D01*
X74903857Y-65039904D01*
X74989571Y-65087523D01*
X75075285Y-65087523D01*
X75203857Y-65039904D01*
X75718142Y-64468476D01*
X75718142Y-65087523D01*
X74903857Y-65468476D02*
X74861000Y-65516095D01*
X74818142Y-65611333D01*
X74818142Y-65849428D01*
X74861000Y-65944666D01*
X74903857Y-65992285D01*
X74989571Y-66039904D01*
X75075285Y-66039904D01*
X75203857Y-65992285D01*
X75718142Y-65420857D01*
X75718142Y-66039904D01*
X80836285Y-36180857D02*
X80836285Y-36866571D01*
X81179142Y-36523714D02*
X80493428Y-36523714D01*
X80279142Y-37723714D02*
X80279142Y-37295142D01*
X80707714Y-37252285D01*
X80664857Y-37295142D01*
X80622000Y-37380857D01*
X80622000Y-37595142D01*
X80664857Y-37680857D01*
X80707714Y-37723714D01*
X80793428Y-37766571D01*
X81007714Y-37766571D01*
X81093428Y-37723714D01*
X81136285Y-37680857D01*
X81179142Y-37595142D01*
X81179142Y-37380857D01*
X81136285Y-37295142D01*
X81093428Y-37252285D01*
X80279142Y-38023714D02*
X81179142Y-38323714D01*
X80279142Y-38623714D01*
X80322000Y-85732904D02*
X80279142Y-85637666D01*
X80279142Y-85494809D01*
X80322000Y-85351952D01*
X80407714Y-85256714D01*
X80493428Y-85209095D01*
X80664857Y-85161476D01*
X80793428Y-85161476D01*
X80964857Y-85209095D01*
X81050571Y-85256714D01*
X81136285Y-85351952D01*
X81179142Y-85494809D01*
X81179142Y-85590047D01*
X81136285Y-85732904D01*
X81093428Y-85780523D01*
X80793428Y-85780523D01*
X80793428Y-85590047D01*
X80322000Y-52712904D02*
X80279142Y-52617666D01*
X80279142Y-52474809D01*
X80322000Y-52331952D01*
X80407714Y-52236714D01*
X80493428Y-52189095D01*
X80664857Y-52141476D01*
X80793428Y-52141476D01*
X80964857Y-52189095D01*
X81050571Y-52236714D01*
X81136285Y-52331952D01*
X81179142Y-52474809D01*
X81179142Y-52570047D01*
X81136285Y-52712904D01*
X81093428Y-52760523D01*
X80793428Y-52760523D01*
X80793428Y-52570047D01*
X74903857Y-67056095D02*
X74861000Y-67103714D01*
X74818142Y-67198952D01*
X74818142Y-67437047D01*
X74861000Y-67532285D01*
X74903857Y-67579904D01*
X74989571Y-67627523D01*
X75075285Y-67627523D01*
X75203857Y-67579904D01*
X75718142Y-67008476D01*
X75718142Y-67627523D01*
X75718142Y-68579904D02*
X75718142Y-68008476D01*
X75718142Y-68294190D02*
X74818142Y-68294190D01*
X74946714Y-68198952D01*
X75032428Y-68103714D01*
X75075285Y-68008476D01*
X62230000Y-85248571D02*
X62039523Y-85439047D01*
X62230000Y-85629523D01*
X62420476Y-85439047D01*
X62230000Y-85248571D01*
X62230000Y-85629523D01*
X75718142Y-72707523D02*
X75718142Y-72136095D01*
X75718142Y-72421809D02*
X74818142Y-72421809D01*
X74946714Y-72326571D01*
X75032428Y-72231333D01*
X75075285Y-72136095D01*
X75718142Y-73183714D02*
X75718142Y-73374190D01*
X75675285Y-73469428D01*
X75632428Y-73517047D01*
X75503857Y-73612285D01*
X75332428Y-73659904D01*
X74989571Y-73659904D01*
X74903857Y-73612285D01*
X74861000Y-73564666D01*
X74818142Y-73469428D01*
X74818142Y-73278952D01*
X74861000Y-73183714D01*
X74903857Y-73136095D01*
X74989571Y-73088476D01*
X75203857Y-73088476D01*
X75289571Y-73136095D01*
X75332428Y-73183714D01*
X75375285Y-73278952D01*
X75375285Y-73469428D01*
X75332428Y-73564666D01*
X75289571Y-73612285D01*
X75203857Y-73659904D01*
X81179142Y-42089428D02*
X80750571Y-41889428D01*
X81179142Y-41746571D02*
X80279142Y-41746571D01*
X80279142Y-41975142D01*
X80322000Y-42032285D01*
X80364857Y-42060857D01*
X80450571Y-42089428D01*
X80579142Y-42089428D01*
X80664857Y-42060857D01*
X80707714Y-42032285D01*
X80750571Y-41975142D01*
X80750571Y-41746571D01*
X81136285Y-42318000D02*
X81179142Y-42403714D01*
X81179142Y-42546571D01*
X81136285Y-42603714D01*
X81093428Y-42632285D01*
X81007714Y-42660857D01*
X80922000Y-42660857D01*
X80836285Y-42632285D01*
X80793428Y-42603714D01*
X80750571Y-42546571D01*
X80707714Y-42432285D01*
X80664857Y-42375142D01*
X80622000Y-42346571D01*
X80536285Y-42318000D01*
X80450571Y-42318000D01*
X80364857Y-42346571D01*
X80322000Y-42375142D01*
X80279142Y-42432285D01*
X80279142Y-42575142D01*
X80322000Y-42660857D01*
X80279142Y-42832285D02*
X80279142Y-43175142D01*
X81179142Y-43003714D02*
X80279142Y-43003714D01*
D11*
X81179142Y-46323380D02*
X80279142Y-46323380D01*
X80279142Y-46513857D01*
X80322000Y-46561476D01*
X80364857Y-46585285D01*
X80450571Y-46609095D01*
X80579142Y-46609095D01*
X80664857Y-46585285D01*
X80707714Y-46561476D01*
X80750571Y-46513857D01*
X80750571Y-46323380D01*
X81136285Y-46799571D02*
X81179142Y-46871000D01*
X81179142Y-46990047D01*
X81136285Y-47037666D01*
X81093428Y-47061476D01*
X81007714Y-47085285D01*
X80922000Y-47085285D01*
X80836285Y-47061476D01*
X80793428Y-47037666D01*
X80750571Y-46990047D01*
X80707714Y-46894809D01*
X80664857Y-46847190D01*
X80622000Y-46823380D01*
X80536285Y-46799571D01*
X80450571Y-46799571D01*
X80364857Y-46823380D01*
X80322000Y-46847190D01*
X80279142Y-46894809D01*
X80279142Y-47013857D01*
X80322000Y-47085285D01*
X80364857Y-47275761D02*
X80322000Y-47299571D01*
X80279142Y-47347190D01*
X80279142Y-47466238D01*
X80322000Y-47513857D01*
X80364857Y-47537666D01*
X80450571Y-47561476D01*
X80536285Y-47561476D01*
X80664857Y-47537666D01*
X81179142Y-47251952D01*
X81179142Y-47561476D01*
X81264857Y-47656714D02*
X81264857Y-48037666D01*
X81093428Y-48442428D02*
X81136285Y-48418619D01*
X81179142Y-48347190D01*
X81179142Y-48299571D01*
X81136285Y-48228142D01*
X81050571Y-48180523D01*
X80964857Y-48156714D01*
X80793428Y-48132904D01*
X80664857Y-48132904D01*
X80493428Y-48156714D01*
X80407714Y-48180523D01*
X80322000Y-48228142D01*
X80279142Y-48299571D01*
X80279142Y-48347190D01*
X80322000Y-48418619D01*
X80364857Y-48442428D01*
D10*
X80322000Y-75572904D02*
X80279142Y-75477666D01*
X80279142Y-75334809D01*
X80322000Y-75191952D01*
X80407714Y-75096714D01*
X80493428Y-75049095D01*
X80664857Y-75001476D01*
X80793428Y-75001476D01*
X80964857Y-75049095D01*
X81050571Y-75096714D01*
X81136285Y-75191952D01*
X81179142Y-75334809D01*
X81179142Y-75430047D01*
X81136285Y-75572904D01*
X81093428Y-75620523D01*
X80793428Y-75620523D01*
X80793428Y-75430047D01*
X80322000Y-73032904D02*
X80279142Y-72937666D01*
X80279142Y-72794809D01*
X80322000Y-72651952D01*
X80407714Y-72556714D01*
X80493428Y-72509095D01*
X80664857Y-72461476D01*
X80793428Y-72461476D01*
X80964857Y-72509095D01*
X81050571Y-72556714D01*
X81136285Y-72651952D01*
X81179142Y-72794809D01*
X81179142Y-72890047D01*
X81136285Y-73032904D01*
X81093428Y-73080523D01*
X80793428Y-73080523D01*
X80793428Y-72890047D01*
X74903857Y-59436095D02*
X74861000Y-59483714D01*
X74818142Y-59578952D01*
X74818142Y-59817047D01*
X74861000Y-59912285D01*
X74903857Y-59959904D01*
X74989571Y-60007523D01*
X75075285Y-60007523D01*
X75203857Y-59959904D01*
X75718142Y-59388476D01*
X75718142Y-60007523D01*
X74818142Y-60864666D02*
X74818142Y-60674190D01*
X74861000Y-60578952D01*
X74903857Y-60531333D01*
X75032428Y-60436095D01*
X75203857Y-60388476D01*
X75546714Y-60388476D01*
X75632428Y-60436095D01*
X75675285Y-60483714D01*
X75718142Y-60578952D01*
X75718142Y-60769428D01*
X75675285Y-60864666D01*
X75632428Y-60912285D01*
X75546714Y-60959904D01*
X75332428Y-60959904D01*
X75246714Y-60912285D01*
X75203857Y-60864666D01*
X75161000Y-60769428D01*
X75161000Y-60578952D01*
X75203857Y-60483714D01*
X75246714Y-60436095D01*
X75332428Y-60388476D01*
X80176714Y-87884285D02*
X80843380Y-87884285D01*
X79795761Y-87646190D02*
X80510047Y-87408095D01*
X80510047Y-88027142D01*
X80843380Y-88979523D02*
X80367190Y-88646190D01*
X80843380Y-88408095D02*
X79843380Y-88408095D01*
X79843380Y-88789047D01*
X79891000Y-88884285D01*
X79938619Y-88931904D01*
X80033857Y-88979523D01*
X80176714Y-88979523D01*
X80271952Y-88931904D01*
X80319571Y-88884285D01*
X80367190Y-88789047D01*
X80367190Y-88408095D01*
X80843380Y-89408095D02*
X79843380Y-89408095D01*
X79843380Y-89789047D01*
X79891000Y-89884285D01*
X79938619Y-89931904D01*
X80033857Y-89979523D01*
X80176714Y-89979523D01*
X80271952Y-89931904D01*
X80319571Y-89884285D01*
X80367190Y-89789047D01*
X80367190Y-89408095D01*
X79843380Y-90312857D02*
X79843380Y-90931904D01*
X80224333Y-90598571D01*
X80224333Y-90741428D01*
X80271952Y-90836666D01*
X80319571Y-90884285D01*
X80414809Y-90931904D01*
X80652904Y-90931904D01*
X80748142Y-90884285D01*
X80795761Y-90836666D01*
X80843380Y-90741428D01*
X80843380Y-90455714D01*
X80795761Y-90360476D01*
X80748142Y-90312857D01*
X80319571Y-91693809D02*
X80367190Y-91836666D01*
X80414809Y-91884285D01*
X80510047Y-91931904D01*
X80652904Y-91931904D01*
X80748142Y-91884285D01*
X80795761Y-91836666D01*
X80843380Y-91741428D01*
X80843380Y-91360476D01*
X79843380Y-91360476D01*
X79843380Y-91693809D01*
X79891000Y-91789047D01*
X79938619Y-91836666D01*
X80033857Y-91884285D01*
X80129095Y-91884285D01*
X80224333Y-91836666D01*
X80271952Y-91789047D01*
X80319571Y-91693809D01*
X80319571Y-91360476D01*
X80748142Y-92931904D02*
X80795761Y-92884285D01*
X80843380Y-92741428D01*
X80843380Y-92646190D01*
X80795761Y-92503333D01*
X80700523Y-92408095D01*
X80605285Y-92360476D01*
X80414809Y-92312857D01*
X80271952Y-92312857D01*
X80081476Y-92360476D01*
X79986238Y-92408095D01*
X79891000Y-92503333D01*
X79843380Y-92646190D01*
X79843380Y-92741428D01*
X79891000Y-92884285D01*
X79938619Y-92931904D01*
X33840000Y-63227714D02*
X33797142Y-63142000D01*
X33797142Y-63013428D01*
X33840000Y-62884857D01*
X33925714Y-62799142D01*
X34011428Y-62756285D01*
X34182857Y-62713428D01*
X34311428Y-62713428D01*
X34482857Y-62756285D01*
X34568571Y-62799142D01*
X34654285Y-62884857D01*
X34697142Y-63013428D01*
X34697142Y-63099142D01*
X34654285Y-63227714D01*
X34611428Y-63270571D01*
X34311428Y-63270571D01*
X34311428Y-63099142D01*
X80322000Y-78112904D02*
X80279142Y-78017666D01*
X80279142Y-77874809D01*
X80322000Y-77731952D01*
X80407714Y-77636714D01*
X80493428Y-77589095D01*
X80664857Y-77541476D01*
X80793428Y-77541476D01*
X80964857Y-77589095D01*
X81050571Y-77636714D01*
X81136285Y-77731952D01*
X81179142Y-77874809D01*
X81179142Y-77970047D01*
X81136285Y-78112904D01*
X81093428Y-78160523D01*
X80793428Y-78160523D01*
X80793428Y-77970047D01*
X80322000Y-67952904D02*
X80279142Y-67857666D01*
X80279142Y-67714809D01*
X80322000Y-67571952D01*
X80407714Y-67476714D01*
X80493428Y-67429095D01*
X80664857Y-67381476D01*
X80793428Y-67381476D01*
X80964857Y-67429095D01*
X81050571Y-67476714D01*
X81136285Y-67571952D01*
X81179142Y-67714809D01*
X81179142Y-67810047D01*
X81136285Y-67952904D01*
X81093428Y-68000523D01*
X80793428Y-68000523D01*
X80793428Y-67810047D01*
X60058858Y-36012380D02*
X60058858Y-35012380D01*
X59725525Y-35726666D01*
X59392192Y-35012380D01*
X59392192Y-36012380D01*
X58916001Y-36012380D02*
X58916001Y-35012380D01*
X57868382Y-35917142D02*
X57916001Y-35964761D01*
X58058858Y-36012380D01*
X58154096Y-36012380D01*
X58296954Y-35964761D01*
X58392192Y-35869523D01*
X58439811Y-35774285D01*
X58487430Y-35583809D01*
X58487430Y-35440952D01*
X58439811Y-35250476D01*
X58392192Y-35155238D01*
X58296954Y-35060000D01*
X58154096Y-35012380D01*
X58058858Y-35012380D01*
X57916001Y-35060000D01*
X57868382Y-35107619D01*
X56868382Y-36012380D02*
X57201715Y-35536190D01*
X57439811Y-36012380D02*
X57439811Y-35012380D01*
X57058858Y-35012380D01*
X56963620Y-35060000D01*
X56916001Y-35107619D01*
X56868382Y-35202857D01*
X56868382Y-35345714D01*
X56916001Y-35440952D01*
X56963620Y-35488571D01*
X57058858Y-35536190D01*
X57439811Y-35536190D01*
X56249334Y-35012380D02*
X56058858Y-35012380D01*
X55963620Y-35060000D01*
X55868382Y-35155238D01*
X55820763Y-35345714D01*
X55820763Y-35679047D01*
X55868382Y-35869523D01*
X55963620Y-35964761D01*
X56058858Y-36012380D01*
X56249334Y-36012380D01*
X56344573Y-35964761D01*
X56439811Y-35869523D01*
X56487430Y-35679047D01*
X56487430Y-35345714D01*
X56439811Y-35155238D01*
X56344573Y-35060000D01*
X56249334Y-35012380D01*
X54677906Y-35964761D02*
X54535049Y-36012380D01*
X54296954Y-36012380D01*
X54201715Y-35964761D01*
X54154096Y-35917142D01*
X54106477Y-35821904D01*
X54106477Y-35726666D01*
X54154096Y-35631428D01*
X54201715Y-35583809D01*
X54296954Y-35536190D01*
X54487430Y-35488571D01*
X54582668Y-35440952D01*
X54630287Y-35393333D01*
X54677906Y-35298095D01*
X54677906Y-35202857D01*
X54630287Y-35107619D01*
X54582668Y-35060000D01*
X54487430Y-35012380D01*
X54249334Y-35012380D01*
X54106477Y-35060000D01*
X53677906Y-36012380D02*
X53677906Y-35012380D01*
X53439811Y-35012380D01*
X53296954Y-35060000D01*
X53201715Y-35155238D01*
X53154096Y-35250476D01*
X53106477Y-35440952D01*
X53106477Y-35583809D01*
X53154096Y-35774285D01*
X53201715Y-35869523D01*
X53296954Y-35964761D01*
X53439811Y-36012380D01*
X53677906Y-36012380D01*
X51344573Y-35917142D02*
X51392192Y-35964761D01*
X51535049Y-36012380D01*
X51630287Y-36012380D01*
X51773144Y-35964761D01*
X51868382Y-35869523D01*
X51916001Y-35774285D01*
X51963620Y-35583809D01*
X51963620Y-35440952D01*
X51916001Y-35250476D01*
X51868382Y-35155238D01*
X51773144Y-35060000D01*
X51630287Y-35012380D01*
X51535049Y-35012380D01*
X51392192Y-35060000D01*
X51344573Y-35107619D01*
X50963620Y-35726666D02*
X50487430Y-35726666D01*
X51058858Y-36012380D02*
X50725525Y-35012380D01*
X50392192Y-36012380D01*
X49487430Y-36012380D02*
X49820763Y-35536190D01*
X50058858Y-36012380D02*
X50058858Y-35012380D01*
X49677906Y-35012380D01*
X49582668Y-35060000D01*
X49535049Y-35107619D01*
X49487430Y-35202857D01*
X49487430Y-35345714D01*
X49535049Y-35440952D01*
X49582668Y-35488571D01*
X49677906Y-35536190D01*
X50058858Y-35536190D01*
X49058858Y-36012380D02*
X49058858Y-35012380D01*
X48820763Y-35012380D01*
X48677906Y-35060000D01*
X48582668Y-35155238D01*
X48535049Y-35250476D01*
X48487430Y-35440952D01*
X48487430Y-35583809D01*
X48535049Y-35774285D01*
X48582668Y-35869523D01*
X48677906Y-35964761D01*
X48820763Y-36012380D01*
X49058858Y-36012380D01*
X34697142Y-65556571D02*
X34268571Y-65256571D01*
X34697142Y-65042285D02*
X33797142Y-65042285D01*
X33797142Y-65385142D01*
X33840000Y-65470857D01*
X33882857Y-65513714D01*
X33968571Y-65556571D01*
X34097142Y-65556571D01*
X34182857Y-65513714D01*
X34225714Y-65470857D01*
X34268571Y-65385142D01*
X34268571Y-65042285D01*
X75718142Y-77787523D02*
X75718142Y-77216095D01*
X75718142Y-77501809D02*
X74818142Y-77501809D01*
X74946714Y-77406571D01*
X75032428Y-77311333D01*
X75075285Y-77216095D01*
X74818142Y-78120857D02*
X74818142Y-78787523D01*
X75718142Y-78358952D01*
X74818142Y-47450380D02*
X74818142Y-47545619D01*
X74861000Y-47640857D01*
X74903857Y-47688476D01*
X74989571Y-47736095D01*
X75161000Y-47783714D01*
X75375285Y-47783714D01*
X75546714Y-47736095D01*
X75632428Y-47688476D01*
X75675285Y-47640857D01*
X75718142Y-47545619D01*
X75718142Y-47450380D01*
X75675285Y-47355142D01*
X75632428Y-47307523D01*
X75546714Y-47259904D01*
X75375285Y-47212285D01*
X75161000Y-47212285D01*
X74989571Y-47259904D01*
X74903857Y-47307523D01*
X74861000Y-47355142D01*
X74818142Y-47450380D01*
X80322000Y-62999904D02*
X80279142Y-62904666D01*
X80279142Y-62761809D01*
X80322000Y-62618952D01*
X80407714Y-62523714D01*
X80493428Y-62476095D01*
X80664857Y-62428476D01*
X80793428Y-62428476D01*
X80964857Y-62476095D01*
X81050571Y-62523714D01*
X81136285Y-62618952D01*
X81179142Y-62761809D01*
X81179142Y-62857047D01*
X81136285Y-62999904D01*
X81093428Y-63047523D01*
X80793428Y-63047523D01*
X80793428Y-62857047D01*
X73640904Y-76149390D02*
X73259952Y-75882723D01*
X73640904Y-75692247D02*
X72840904Y-75692247D01*
X72840904Y-75997009D01*
X72879000Y-76073200D01*
X72917095Y-76111295D01*
X72993285Y-76149390D01*
X73107571Y-76149390D01*
X73183761Y-76111295D01*
X73221857Y-76073200D01*
X73259952Y-75997009D01*
X73259952Y-75692247D01*
X73602809Y-76454152D02*
X73640904Y-76568438D01*
X73640904Y-76758914D01*
X73602809Y-76835104D01*
X73564714Y-76873200D01*
X73488523Y-76911295D01*
X73412333Y-76911295D01*
X73336142Y-76873200D01*
X73298047Y-76835104D01*
X73259952Y-76758914D01*
X73221857Y-76606533D01*
X73183761Y-76530342D01*
X73145666Y-76492247D01*
X73069476Y-76454152D01*
X72993285Y-76454152D01*
X72917095Y-76492247D01*
X72879000Y-76530342D01*
X72840904Y-76606533D01*
X72840904Y-76797009D01*
X72879000Y-76911295D01*
X72840904Y-77139866D02*
X72840904Y-77597009D01*
X73640904Y-77368438D02*
X72840904Y-77368438D01*
X73717095Y-77673200D02*
X73717095Y-78282723D01*
X73221857Y-78473200D02*
X73221857Y-78739866D01*
X73640904Y-78854152D02*
X73640904Y-78473200D01*
X72840904Y-78473200D01*
X72840904Y-78854152D01*
X73640904Y-79197009D02*
X72840904Y-79197009D01*
X73640904Y-79654152D01*
X72840904Y-79654152D01*
X80322000Y-40139904D02*
X80279142Y-40044666D01*
X80279142Y-39901809D01*
X80322000Y-39758952D01*
X80407714Y-39663714D01*
X80493428Y-39616095D01*
X80664857Y-39568476D01*
X80793428Y-39568476D01*
X80964857Y-39616095D01*
X81050571Y-39663714D01*
X81136285Y-39758952D01*
X81179142Y-39901809D01*
X81179142Y-39997047D01*
X81136285Y-40139904D01*
X81093428Y-40187523D01*
X80793428Y-40187523D01*
X80793428Y-39997047D01*
X74903857Y-69596095D02*
X74861000Y-69643714D01*
X74818142Y-69738952D01*
X74818142Y-69977047D01*
X74861000Y-70072285D01*
X74903857Y-70119904D01*
X74989571Y-70167523D01*
X75075285Y-70167523D01*
X75203857Y-70119904D01*
X75718142Y-69548476D01*
X75718142Y-70167523D01*
X74818142Y-70786571D02*
X74818142Y-70881809D01*
X74861000Y-70977047D01*
X74903857Y-71024666D01*
X74989571Y-71072285D01*
X75161000Y-71119904D01*
X75375285Y-71119904D01*
X75546714Y-71072285D01*
X75632428Y-71024666D01*
X75675285Y-70977047D01*
X75718142Y-70881809D01*
X75718142Y-70786571D01*
X75675285Y-70691333D01*
X75632428Y-70643714D01*
X75546714Y-70596095D01*
X75375285Y-70548476D01*
X75161000Y-70548476D01*
X74989571Y-70596095D01*
X74903857Y-70643714D01*
X74861000Y-70691333D01*
X74818142Y-70786571D01*
X58413193Y-69773847D02*
X58032241Y-69507180D01*
X58413193Y-69316704D02*
X57613193Y-69316704D01*
X57613193Y-69621466D01*
X57651289Y-69697656D01*
X57689384Y-69735752D01*
X57765574Y-69773847D01*
X57879860Y-69773847D01*
X57956050Y-69735752D01*
X57994146Y-69697656D01*
X58032241Y-69621466D01*
X58032241Y-69316704D01*
X57689384Y-70078609D02*
X57651289Y-70116704D01*
X57613193Y-70192894D01*
X57613193Y-70383371D01*
X57651289Y-70459561D01*
X57689384Y-70497656D01*
X57765574Y-70535752D01*
X57841765Y-70535752D01*
X57956050Y-70497656D01*
X58413193Y-70040513D01*
X58413193Y-70535752D01*
X57956050Y-70992894D02*
X57917955Y-70916704D01*
X57879860Y-70878609D01*
X57803669Y-70840513D01*
X57765574Y-70840513D01*
X57689384Y-70878609D01*
X57651289Y-70916704D01*
X57613193Y-70992894D01*
X57613193Y-71145275D01*
X57651289Y-71221466D01*
X57689384Y-71259561D01*
X57765574Y-71297656D01*
X57803669Y-71297656D01*
X57879860Y-71259561D01*
X57917955Y-71221466D01*
X57956050Y-71145275D01*
X57956050Y-70992894D01*
X57994146Y-70916704D01*
X58032241Y-70878609D01*
X58108431Y-70840513D01*
X58260812Y-70840513D01*
X58337003Y-70878609D01*
X58375098Y-70916704D01*
X58413193Y-70992894D01*
X58413193Y-71145275D01*
X58375098Y-71221466D01*
X58337003Y-71259561D01*
X58260812Y-71297656D01*
X58108431Y-71297656D01*
X58032241Y-71259561D01*
X57994146Y-71221466D01*
X57956050Y-71145275D01*
X57834456Y-95874467D02*
X57872551Y-95836372D01*
X57910646Y-95722086D01*
X57910646Y-95645896D01*
X57872551Y-95531610D01*
X57796361Y-95455420D01*
X57720170Y-95417324D01*
X57567789Y-95379229D01*
X57453503Y-95379229D01*
X57301122Y-95417324D01*
X57224932Y-95455420D01*
X57148742Y-95531610D01*
X57110646Y-95645896D01*
X57110646Y-95722086D01*
X57148742Y-95836372D01*
X57186837Y-95874467D01*
X57110646Y-96141134D02*
X57110646Y-96636372D01*
X57415408Y-96369705D01*
X57415408Y-96483991D01*
X57453503Y-96560181D01*
X57491599Y-96598277D01*
X57567789Y-96636372D01*
X57758265Y-96636372D01*
X57834456Y-96598277D01*
X57872551Y-96560181D01*
X57910646Y-96483991D01*
X57910646Y-96255420D01*
X57872551Y-96179229D01*
X57834456Y-96141134D01*
X43821333Y-45752714D02*
X43859428Y-45790809D01*
X43973714Y-45828904D01*
X44049904Y-45828904D01*
X44164190Y-45790809D01*
X44240380Y-45714619D01*
X44278476Y-45638428D01*
X44316571Y-45486047D01*
X44316571Y-45371761D01*
X44278476Y-45219380D01*
X44240380Y-45143190D01*
X44164190Y-45067000D01*
X44049904Y-45028904D01*
X43973714Y-45028904D01*
X43859428Y-45067000D01*
X43821333Y-45105095D01*
X43059428Y-45828904D02*
X43516571Y-45828904D01*
X43288000Y-45828904D02*
X43288000Y-45028904D01*
X43364190Y-45143190D01*
X43440380Y-45219380D01*
X43516571Y-45257476D01*
X48814982Y-67777120D02*
X48434030Y-67510454D01*
X48814982Y-67319977D02*
X48014982Y-67319977D01*
X48014982Y-67624739D01*
X48053078Y-67700930D01*
X48091173Y-67739025D01*
X48167363Y-67777120D01*
X48281649Y-67777120D01*
X48357839Y-67739025D01*
X48395935Y-67700930D01*
X48434030Y-67624739D01*
X48434030Y-67319977D01*
X48281649Y-68462834D02*
X48814982Y-68462834D01*
X47976887Y-68272358D02*
X48548316Y-68081882D01*
X48548316Y-68577120D01*
X64901398Y-50176463D02*
X64520446Y-49909796D01*
X64901398Y-49719320D02*
X64101398Y-49719320D01*
X64101398Y-50024082D01*
X64139494Y-50100272D01*
X64177589Y-50138368D01*
X64253779Y-50176463D01*
X64368065Y-50176463D01*
X64444255Y-50138368D01*
X64482351Y-50100272D01*
X64520446Y-50024082D01*
X64520446Y-49719320D01*
X64901398Y-50938368D02*
X64901398Y-50481225D01*
X64901398Y-50709796D02*
X64101398Y-50709796D01*
X64215684Y-50633606D01*
X64291874Y-50557415D01*
X64329970Y-50481225D01*
X64901398Y-51319320D02*
X64901398Y-51471701D01*
X64863303Y-51547891D01*
X64825208Y-51585987D01*
X64710922Y-51662177D01*
X64558541Y-51700272D01*
X64253779Y-51700272D01*
X64177589Y-51662177D01*
X64139494Y-51624082D01*
X64101398Y-51547891D01*
X64101398Y-51395510D01*
X64139494Y-51319320D01*
X64177589Y-51281225D01*
X64253779Y-51243129D01*
X64444255Y-51243129D01*
X64520446Y-51281225D01*
X64558541Y-51319320D01*
X64596636Y-51395510D01*
X64596636Y-51547891D01*
X64558541Y-51624082D01*
X64520446Y-51662177D01*
X64444255Y-51700272D01*
X61920724Y-56808338D02*
X61958819Y-56770243D01*
X61996914Y-56655957D01*
X61996914Y-56579767D01*
X61958819Y-56465481D01*
X61882629Y-56389291D01*
X61806438Y-56351195D01*
X61654057Y-56313100D01*
X61539771Y-56313100D01*
X61387390Y-56351195D01*
X61311200Y-56389291D01*
X61235010Y-56465481D01*
X61196914Y-56579767D01*
X61196914Y-56655957D01*
X61235010Y-56770243D01*
X61273105Y-56808338D01*
X61996914Y-57189291D02*
X61996914Y-57341672D01*
X61958819Y-57417862D01*
X61920724Y-57455957D01*
X61806438Y-57532148D01*
X61654057Y-57570243D01*
X61349295Y-57570243D01*
X61273105Y-57532148D01*
X61235010Y-57494052D01*
X61196914Y-57417862D01*
X61196914Y-57265481D01*
X61235010Y-57189291D01*
X61273105Y-57151195D01*
X61349295Y-57113100D01*
X61539771Y-57113100D01*
X61615962Y-57151195D01*
X61654057Y-57189291D01*
X61692152Y-57265481D01*
X61692152Y-57417862D01*
X61654057Y-57494052D01*
X61615962Y-57532148D01*
X61539771Y-57570243D01*
X30587904Y-104387714D02*
X30206952Y-104121047D01*
X30587904Y-103930571D02*
X29787904Y-103930571D01*
X29787904Y-104235333D01*
X29826000Y-104311523D01*
X29864095Y-104349619D01*
X29940285Y-104387714D01*
X30054571Y-104387714D01*
X30130761Y-104349619D01*
X30168857Y-104311523D01*
X30206952Y-104235333D01*
X30206952Y-103930571D01*
X29787904Y-104654380D02*
X29787904Y-105149619D01*
X30092666Y-104882952D01*
X30092666Y-104997238D01*
X30130761Y-105073428D01*
X30168857Y-105111523D01*
X30245047Y-105149619D01*
X30435523Y-105149619D01*
X30511714Y-105111523D01*
X30549809Y-105073428D01*
X30587904Y-104997238D01*
X30587904Y-104768666D01*
X30549809Y-104692476D01*
X30511714Y-104654380D01*
X29787904Y-105873428D02*
X29787904Y-105492476D01*
X30168857Y-105454380D01*
X30130761Y-105492476D01*
X30092666Y-105568666D01*
X30092666Y-105759142D01*
X30130761Y-105835333D01*
X30168857Y-105873428D01*
X30245047Y-105911523D01*
X30435523Y-105911523D01*
X30511714Y-105873428D01*
X30549809Y-105835333D01*
X30587904Y-105759142D01*
X30587904Y-105568666D01*
X30549809Y-105492476D01*
X30511714Y-105454380D01*
X67016463Y-70932768D02*
X66635511Y-70666101D01*
X67016463Y-70475625D02*
X66216463Y-70475625D01*
X66216463Y-70780387D01*
X66254559Y-70856577D01*
X66292654Y-70894673D01*
X66368844Y-70932768D01*
X66483130Y-70932768D01*
X66559320Y-70894673D01*
X66597416Y-70856577D01*
X66635511Y-70780387D01*
X66635511Y-70475625D01*
X66216463Y-71199434D02*
X66216463Y-71694673D01*
X66521225Y-71428006D01*
X66521225Y-71542292D01*
X66559320Y-71618482D01*
X66597416Y-71656577D01*
X66673606Y-71694673D01*
X66864082Y-71694673D01*
X66940273Y-71656577D01*
X66978368Y-71618482D01*
X67016463Y-71542292D01*
X67016463Y-71313720D01*
X66978368Y-71237530D01*
X66940273Y-71199434D01*
X66216463Y-72189911D02*
X66216463Y-72266101D01*
X66254559Y-72342292D01*
X66292654Y-72380387D01*
X66368844Y-72418482D01*
X66521225Y-72456577D01*
X66711701Y-72456577D01*
X66864082Y-72418482D01*
X66940273Y-72380387D01*
X66978368Y-72342292D01*
X67016463Y-72266101D01*
X67016463Y-72189911D01*
X66978368Y-72113720D01*
X66940273Y-72075625D01*
X66864082Y-72037530D01*
X66711701Y-71999434D01*
X66521225Y-71999434D01*
X66368844Y-72037530D01*
X66292654Y-72075625D01*
X66254559Y-72113720D01*
X66216463Y-72189911D01*
X61055889Y-50145412D02*
X60674937Y-49878745D01*
X61055889Y-49688269D02*
X60255889Y-49688269D01*
X60255889Y-49993031D01*
X60293985Y-50069221D01*
X60332080Y-50107317D01*
X60408270Y-50145412D01*
X60522556Y-50145412D01*
X60598746Y-50107317D01*
X60636842Y-50069221D01*
X60674937Y-49993031D01*
X60674937Y-49688269D01*
X60332080Y-50450174D02*
X60293985Y-50488269D01*
X60255889Y-50564459D01*
X60255889Y-50754936D01*
X60293985Y-50831126D01*
X60332080Y-50869221D01*
X60408270Y-50907317D01*
X60484461Y-50907317D01*
X60598746Y-50869221D01*
X61055889Y-50412078D01*
X61055889Y-50907317D01*
X60255889Y-51402555D02*
X60255889Y-51478745D01*
X60293985Y-51554936D01*
X60332080Y-51593031D01*
X60408270Y-51631126D01*
X60560651Y-51669221D01*
X60751127Y-51669221D01*
X60903508Y-51631126D01*
X60979699Y-51593031D01*
X61017794Y-51554936D01*
X61055889Y-51478745D01*
X61055889Y-51402555D01*
X61017794Y-51326364D01*
X60979699Y-51288269D01*
X60903508Y-51250174D01*
X60751127Y-51212078D01*
X60560651Y-51212078D01*
X60408270Y-51250174D01*
X60332080Y-51288269D01*
X60293985Y-51326364D01*
X60255889Y-51402555D01*
X47047619Y-95649541D02*
X47085714Y-95611446D01*
X47123809Y-95497160D01*
X47123809Y-95420969D01*
X47085714Y-95306684D01*
X47009524Y-95230493D01*
X46933333Y-95192398D01*
X46780952Y-95154303D01*
X46666666Y-95154303D01*
X46514285Y-95192398D01*
X46438095Y-95230493D01*
X46361905Y-95306684D01*
X46323809Y-95420969D01*
X46323809Y-95497160D01*
X46361905Y-95611446D01*
X46400000Y-95649541D01*
X47123809Y-96411446D02*
X47123809Y-95954303D01*
X47123809Y-96182874D02*
X46323809Y-96182874D01*
X46438095Y-96106684D01*
X46514285Y-96030493D01*
X46552381Y-95954303D01*
X47123809Y-96792398D02*
X47123809Y-96944779D01*
X47085714Y-97020969D01*
X47047619Y-97059065D01*
X46933333Y-97135255D01*
X46780952Y-97173350D01*
X46476190Y-97173350D01*
X46400000Y-97135255D01*
X46361905Y-97097160D01*
X46323809Y-97020969D01*
X46323809Y-96868588D01*
X46361905Y-96792398D01*
X46400000Y-96754303D01*
X46476190Y-96716207D01*
X46666666Y-96716207D01*
X46742857Y-96754303D01*
X46780952Y-96792398D01*
X46819047Y-96868588D01*
X46819047Y-97020969D01*
X46780952Y-97097160D01*
X46742857Y-97135255D01*
X46666666Y-97173350D01*
X63024859Y-50165871D02*
X62643907Y-49899204D01*
X63024859Y-49708728D02*
X62224859Y-49708728D01*
X62224859Y-50013490D01*
X62262955Y-50089680D01*
X62301050Y-50127776D01*
X62377240Y-50165871D01*
X62491526Y-50165871D01*
X62567716Y-50127776D01*
X62605812Y-50089680D01*
X62643907Y-50013490D01*
X62643907Y-49708728D01*
X62301050Y-50470633D02*
X62262955Y-50508728D01*
X62224859Y-50584918D01*
X62224859Y-50775395D01*
X62262955Y-50851585D01*
X62301050Y-50889680D01*
X62377240Y-50927776D01*
X62453431Y-50927776D01*
X62567716Y-50889680D01*
X63024859Y-50432537D01*
X63024859Y-50927776D01*
X62224859Y-51651585D02*
X62224859Y-51270633D01*
X62605812Y-51232537D01*
X62567716Y-51270633D01*
X62529621Y-51346823D01*
X62529621Y-51537299D01*
X62567716Y-51613490D01*
X62605812Y-51651585D01*
X62682002Y-51689680D01*
X62872478Y-51689680D01*
X62948669Y-51651585D01*
X62986764Y-51613490D01*
X63024859Y-51537299D01*
X63024859Y-51346823D01*
X62986764Y-51270633D01*
X62948669Y-51232537D01*
X45461111Y-93884385D02*
X45080159Y-93617718D01*
X45461111Y-93427242D02*
X44661111Y-93427242D01*
X44661111Y-93732004D01*
X44699207Y-93808194D01*
X44737302Y-93846290D01*
X44813492Y-93884385D01*
X44927778Y-93884385D01*
X45003968Y-93846290D01*
X45042064Y-93808194D01*
X45080159Y-93732004D01*
X45080159Y-93427242D01*
X44661111Y-94151051D02*
X44661111Y-94646290D01*
X44965873Y-94379623D01*
X44965873Y-94493909D01*
X45003968Y-94570099D01*
X45042064Y-94608194D01*
X45118254Y-94646290D01*
X45308730Y-94646290D01*
X45384921Y-94608194D01*
X45423016Y-94570099D01*
X45461111Y-94493909D01*
X45461111Y-94265337D01*
X45423016Y-94189147D01*
X45384921Y-94151051D01*
X44737302Y-94951051D02*
X44699207Y-94989147D01*
X44661111Y-95065337D01*
X44661111Y-95255813D01*
X44699207Y-95332004D01*
X44737302Y-95370099D01*
X44813492Y-95408194D01*
X44889683Y-95408194D01*
X45003968Y-95370099D01*
X45461111Y-94912956D01*
X45461111Y-95408194D01*
X56519229Y-69777331D02*
X56138277Y-69510664D01*
X56519229Y-69320188D02*
X55719229Y-69320188D01*
X55719229Y-69624950D01*
X55757325Y-69701140D01*
X55795420Y-69739236D01*
X55871610Y-69777331D01*
X55985896Y-69777331D01*
X56062086Y-69739236D01*
X56100182Y-69701140D01*
X56138277Y-69624950D01*
X56138277Y-69320188D01*
X55795420Y-70082093D02*
X55757325Y-70120188D01*
X55719229Y-70196378D01*
X55719229Y-70386855D01*
X55757325Y-70463045D01*
X55795420Y-70501140D01*
X55871610Y-70539236D01*
X55947801Y-70539236D01*
X56062086Y-70501140D01*
X56519229Y-70043997D01*
X56519229Y-70539236D01*
X56519229Y-70920188D02*
X56519229Y-71072569D01*
X56481134Y-71148759D01*
X56443039Y-71186855D01*
X56328753Y-71263045D01*
X56176372Y-71301140D01*
X55871610Y-71301140D01*
X55795420Y-71263045D01*
X55757325Y-71224950D01*
X55719229Y-71148759D01*
X55719229Y-70996378D01*
X55757325Y-70920188D01*
X55795420Y-70882093D01*
X55871610Y-70843997D01*
X56062086Y-70843997D01*
X56138277Y-70882093D01*
X56176372Y-70920188D01*
X56214467Y-70996378D01*
X56214467Y-71148759D01*
X56176372Y-71224950D01*
X56138277Y-71263045D01*
X56062086Y-71301140D01*
X48814982Y-62697120D02*
X48434030Y-62430454D01*
X48814982Y-62239977D02*
X48014982Y-62239977D01*
X48014982Y-62544739D01*
X48053078Y-62620930D01*
X48091173Y-62659025D01*
X48167363Y-62697120D01*
X48281649Y-62697120D01*
X48357839Y-62659025D01*
X48395935Y-62620930D01*
X48434030Y-62544739D01*
X48434030Y-62239977D01*
X48091173Y-63001882D02*
X48053078Y-63039977D01*
X48014982Y-63116168D01*
X48014982Y-63306644D01*
X48053078Y-63382834D01*
X48091173Y-63420930D01*
X48167363Y-63459025D01*
X48243554Y-63459025D01*
X48357839Y-63420930D01*
X48814982Y-62963787D01*
X48814982Y-63459025D01*
X30803904Y-31737380D02*
X31375333Y-31737380D01*
X31489619Y-31699285D01*
X31565809Y-31623095D01*
X31603904Y-31508809D01*
X31603904Y-31432619D01*
X30880095Y-32080238D02*
X30842000Y-32118333D01*
X30803904Y-32194523D01*
X30803904Y-32385000D01*
X30842000Y-32461190D01*
X30880095Y-32499285D01*
X30956285Y-32537380D01*
X31032476Y-32537380D01*
X31146761Y-32499285D01*
X31603904Y-32042142D01*
X31603904Y-32537380D01*
X31603904Y-33299285D02*
X31603904Y-32842142D01*
X31603904Y-33070714D02*
X30803904Y-33070714D01*
X30918190Y-32994523D01*
X30994380Y-32918333D01*
X31032476Y-32842142D01*
X74465795Y-101744054D02*
X74894367Y-101744054D01*
X74980081Y-101710721D01*
X75037224Y-101644054D01*
X75065795Y-101544054D01*
X75065795Y-101477387D01*
X75065795Y-102077387D02*
X74465795Y-102077387D01*
X74465795Y-102344054D01*
X74494367Y-102410721D01*
X74522938Y-102444054D01*
X74580081Y-102477387D01*
X74665795Y-102477387D01*
X74722938Y-102444054D01*
X74751509Y-102410721D01*
X74780081Y-102344054D01*
X74780081Y-102077387D01*
X75065795Y-103144054D02*
X75065795Y-102744054D01*
X75065795Y-102944054D02*
X74465795Y-102944054D01*
X74551509Y-102877387D01*
X74608652Y-102810721D01*
X74637224Y-102744054D01*
X74522938Y-103410721D02*
X74494367Y-103444054D01*
X74465795Y-103510721D01*
X74465795Y-103677387D01*
X74494367Y-103744054D01*
X74522938Y-103777387D01*
X74580081Y-103810721D01*
X74637224Y-103810721D01*
X74722938Y-103777387D01*
X75065795Y-103377387D01*
X75065795Y-103810721D01*
X66528904Y-54425914D02*
X66147952Y-54159247D01*
X66528904Y-53968771D02*
X65728904Y-53968771D01*
X65728904Y-54273533D01*
X65767000Y-54349723D01*
X65805095Y-54387819D01*
X65881285Y-54425914D01*
X65995571Y-54425914D01*
X66071761Y-54387819D01*
X66109857Y-54349723D01*
X66147952Y-54273533D01*
X66147952Y-53968771D01*
X65805095Y-54730676D02*
X65767000Y-54768771D01*
X65728904Y-54844961D01*
X65728904Y-55035438D01*
X65767000Y-55111628D01*
X65805095Y-55149723D01*
X65881285Y-55187819D01*
X65957476Y-55187819D01*
X66071761Y-55149723D01*
X66528904Y-54692580D01*
X66528904Y-55187819D01*
X66528904Y-55949723D02*
X66528904Y-55492580D01*
X66528904Y-55721152D02*
X65728904Y-55721152D01*
X65843190Y-55644961D01*
X65919380Y-55568771D01*
X65957476Y-55492580D01*
X69973212Y-101672459D02*
X70401784Y-101672459D01*
X70487498Y-101639126D01*
X70544641Y-101572459D01*
X70573212Y-101472459D01*
X70573212Y-101405792D01*
X70573212Y-102005792D02*
X69973212Y-102005792D01*
X69973212Y-102272459D01*
X70001784Y-102339126D01*
X70030355Y-102372459D01*
X70087498Y-102405792D01*
X70173212Y-102405792D01*
X70230355Y-102372459D01*
X70258926Y-102339126D01*
X70287498Y-102272459D01*
X70287498Y-102005792D01*
X70573212Y-103072459D02*
X70573212Y-102672459D01*
X70573212Y-102872459D02*
X69973212Y-102872459D01*
X70058926Y-102805792D01*
X70116069Y-102739126D01*
X70144641Y-102672459D01*
X69973212Y-103305792D02*
X69973212Y-103739126D01*
X70201784Y-103505792D01*
X70201784Y-103605792D01*
X70230355Y-103672459D01*
X70258926Y-103705792D01*
X70316069Y-103739126D01*
X70458926Y-103739126D01*
X70516069Y-103705792D01*
X70544641Y-103672459D01*
X70573212Y-103605792D01*
X70573212Y-103405792D01*
X70544641Y-103339126D01*
X70516069Y-103305792D01*
X55987904Y-46221714D02*
X55606952Y-45955047D01*
X55987904Y-45764571D02*
X55187904Y-45764571D01*
X55187904Y-46069333D01*
X55226000Y-46145523D01*
X55264095Y-46183619D01*
X55340285Y-46221714D01*
X55454571Y-46221714D01*
X55530761Y-46183619D01*
X55568857Y-46145523D01*
X55606952Y-46069333D01*
X55606952Y-45764571D01*
X55454571Y-46907428D02*
X55987904Y-46907428D01*
X55149809Y-46716952D02*
X55721238Y-46526476D01*
X55721238Y-47021714D01*
X55187904Y-47250285D02*
X55187904Y-47783619D01*
X55987904Y-47440761D01*
X37963670Y-84823140D02*
X38001765Y-84785045D01*
X38039860Y-84670759D01*
X38039860Y-84594568D01*
X38001765Y-84480283D01*
X37925575Y-84404092D01*
X37849384Y-84365997D01*
X37697003Y-84327902D01*
X37582717Y-84327902D01*
X37430336Y-84365997D01*
X37354146Y-84404092D01*
X37277956Y-84480283D01*
X37239860Y-84594568D01*
X37239860Y-84670759D01*
X37277956Y-84785045D01*
X37316051Y-84823140D01*
X38039860Y-85585045D02*
X38039860Y-85127902D01*
X38039860Y-85356473D02*
X37239860Y-85356473D01*
X37354146Y-85280283D01*
X37430336Y-85204092D01*
X37468432Y-85127902D01*
X37239860Y-86080283D02*
X37239860Y-86156473D01*
X37277956Y-86232664D01*
X37316051Y-86270759D01*
X37392241Y-86308854D01*
X37544622Y-86346949D01*
X37735098Y-86346949D01*
X37887479Y-86308854D01*
X37963670Y-86270759D01*
X38001765Y-86232664D01*
X38039860Y-86156473D01*
X38039860Y-86080283D01*
X38001765Y-86004092D01*
X37963670Y-85965997D01*
X37887479Y-85927902D01*
X37735098Y-85889806D01*
X37544622Y-85889806D01*
X37392241Y-85927902D01*
X37316051Y-85965997D01*
X37277956Y-86004092D01*
X37239860Y-86080283D01*
X38106285Y-31095904D02*
X38372952Y-30714952D01*
X38563428Y-31095904D02*
X38563428Y-30295904D01*
X38258666Y-30295904D01*
X38182476Y-30334000D01*
X38144380Y-30372095D01*
X38106285Y-30448285D01*
X38106285Y-30562571D01*
X38144380Y-30638761D01*
X38182476Y-30676857D01*
X38258666Y-30714952D01*
X38563428Y-30714952D01*
X37420571Y-30562571D02*
X37420571Y-31095904D01*
X37611047Y-30257809D02*
X37801523Y-30829238D01*
X37306285Y-30829238D01*
X36620571Y-30295904D02*
X37001523Y-30295904D01*
X37039619Y-30676857D01*
X37001523Y-30638761D01*
X36925333Y-30600666D01*
X36734857Y-30600666D01*
X36658666Y-30638761D01*
X36620571Y-30676857D01*
X36582476Y-30753047D01*
X36582476Y-30943523D01*
X36620571Y-31019714D01*
X36658666Y-31057809D01*
X36734857Y-31095904D01*
X36925333Y-31095904D01*
X37001523Y-31057809D01*
X37039619Y-31019714D01*
X39774904Y-76168333D02*
X40346333Y-76168333D01*
X40460619Y-76130238D01*
X40536809Y-76054047D01*
X40574904Y-75939761D01*
X40574904Y-75863571D01*
X40574904Y-76549285D02*
X39774904Y-76549285D01*
X39774904Y-76854047D01*
X39813000Y-76930238D01*
X39851095Y-76968333D01*
X39927285Y-77006428D01*
X40041571Y-77006428D01*
X40117761Y-76968333D01*
X40155857Y-76930238D01*
X40193952Y-76854047D01*
X40193952Y-76549285D01*
X40574904Y-77768333D02*
X40574904Y-77311190D01*
X40574904Y-77539761D02*
X39774904Y-77539761D01*
X39889190Y-77463571D01*
X39965380Y-77387380D01*
X40003476Y-77311190D01*
X66325714Y-32124714D02*
X66363809Y-32086619D01*
X66401904Y-31972333D01*
X66401904Y-31896142D01*
X66363809Y-31781857D01*
X66287619Y-31705666D01*
X66211428Y-31667571D01*
X66059047Y-31629476D01*
X65944761Y-31629476D01*
X65792380Y-31667571D01*
X65716190Y-31705666D01*
X65640000Y-31781857D01*
X65601904Y-31896142D01*
X65601904Y-31972333D01*
X65640000Y-32086619D01*
X65678095Y-32124714D01*
X66401904Y-32886619D02*
X66401904Y-32429476D01*
X66401904Y-32658047D02*
X65601904Y-32658047D01*
X65716190Y-32581857D01*
X65792380Y-32505666D01*
X65830476Y-32429476D01*
X65868571Y-33572333D02*
X66401904Y-33572333D01*
X65563809Y-33381857D02*
X66135238Y-33191380D01*
X66135238Y-33686619D01*
X63430095Y-64947809D02*
X63392000Y-64871619D01*
X63315809Y-64795428D01*
X63201523Y-64681142D01*
X63163428Y-64604952D01*
X63163428Y-64528761D01*
X63353904Y-64566857D02*
X63315809Y-64490666D01*
X63239619Y-64414476D01*
X63087238Y-64376380D01*
X62820571Y-64376380D01*
X62668190Y-64414476D01*
X62592000Y-64490666D01*
X62553904Y-64566857D01*
X62553904Y-64719238D01*
X62592000Y-64795428D01*
X62668190Y-64871619D01*
X62820571Y-64909714D01*
X63087238Y-64909714D01*
X63239619Y-64871619D01*
X63315809Y-64795428D01*
X63353904Y-64719238D01*
X63353904Y-64566857D01*
X63353904Y-65671619D02*
X63353904Y-65214476D01*
X63353904Y-65443047D02*
X62553904Y-65443047D01*
X62668190Y-65366857D01*
X62744380Y-65290666D01*
X62782476Y-65214476D01*
X63275041Y-74709301D02*
X63236946Y-74633111D01*
X63160755Y-74556920D01*
X63046469Y-74442634D01*
X63008374Y-74366444D01*
X63008374Y-74290253D01*
X63198850Y-74328349D02*
X63160755Y-74252158D01*
X63084565Y-74175968D01*
X62932184Y-74137872D01*
X62665517Y-74137872D01*
X62513136Y-74175968D01*
X62436946Y-74252158D01*
X62398850Y-74328349D01*
X62398850Y-74480730D01*
X62436946Y-74556920D01*
X62513136Y-74633111D01*
X62665517Y-74671206D01*
X62932184Y-74671206D01*
X63084565Y-74633111D01*
X63160755Y-74556920D01*
X63198850Y-74480730D01*
X63198850Y-74328349D01*
X62665517Y-75356920D02*
X63198850Y-75356920D01*
X62360755Y-75166444D02*
X62932184Y-74975968D01*
X62932184Y-75471206D01*
X64076555Y-70039663D02*
X64114650Y-70077758D01*
X64228936Y-70115853D01*
X64305126Y-70115853D01*
X64419412Y-70077758D01*
X64495602Y-70001568D01*
X64533698Y-69925377D01*
X64571793Y-69772996D01*
X64571793Y-69658710D01*
X64533698Y-69506329D01*
X64495602Y-69430139D01*
X64419412Y-69353949D01*
X64305126Y-69315853D01*
X64228936Y-69315853D01*
X64114650Y-69353949D01*
X64076555Y-69392044D01*
X63619412Y-69658710D02*
X63695602Y-69620615D01*
X63733698Y-69582520D01*
X63771793Y-69506329D01*
X63771793Y-69468234D01*
X63733698Y-69392044D01*
X63695602Y-69353949D01*
X63619412Y-69315853D01*
X63467031Y-69315853D01*
X63390841Y-69353949D01*
X63352745Y-69392044D01*
X63314650Y-69468234D01*
X63314650Y-69506329D01*
X63352745Y-69582520D01*
X63390841Y-69620615D01*
X63467031Y-69658710D01*
X63619412Y-69658710D01*
X63695602Y-69696806D01*
X63733698Y-69734901D01*
X63771793Y-69811091D01*
X63771793Y-69963472D01*
X63733698Y-70039663D01*
X63695602Y-70077758D01*
X63619412Y-70115853D01*
X63467031Y-70115853D01*
X63390841Y-70077758D01*
X63352745Y-70039663D01*
X63314650Y-69963472D01*
X63314650Y-69811091D01*
X63352745Y-69734901D01*
X63390841Y-69696806D01*
X63467031Y-69658710D01*
X42008973Y-88079584D02*
X41628021Y-87812917D01*
X42008973Y-87622441D02*
X41208973Y-87622441D01*
X41208973Y-87927203D01*
X41247069Y-88003393D01*
X41285164Y-88041489D01*
X41361354Y-88079584D01*
X41475640Y-88079584D01*
X41551830Y-88041489D01*
X41589926Y-88003393D01*
X41628021Y-87927203D01*
X41628021Y-87622441D01*
X41475640Y-88765298D02*
X42008973Y-88765298D01*
X41170878Y-88574822D02*
X41742307Y-88384346D01*
X41742307Y-88879584D01*
X41475640Y-89527203D02*
X42008973Y-89527203D01*
X41170878Y-89336727D02*
X41742307Y-89146250D01*
X41742307Y-89641489D01*
X60373704Y-60258248D02*
X59992752Y-59991581D01*
X60373704Y-59801105D02*
X59573704Y-59801105D01*
X59573704Y-60105867D01*
X59611800Y-60182057D01*
X59649895Y-60220153D01*
X59726085Y-60258248D01*
X59840371Y-60258248D01*
X59916561Y-60220153D01*
X59954657Y-60182057D01*
X59992752Y-60105867D01*
X59992752Y-59801105D01*
X59649895Y-60563010D02*
X59611800Y-60601105D01*
X59573704Y-60677295D01*
X59573704Y-60867772D01*
X59611800Y-60943962D01*
X59649895Y-60982057D01*
X59726085Y-61020153D01*
X59802276Y-61020153D01*
X59916561Y-60982057D01*
X60373704Y-60524914D01*
X60373704Y-61020153D01*
X59840371Y-61705867D02*
X60373704Y-61705867D01*
X59535609Y-61515391D02*
X60107038Y-61324914D01*
X60107038Y-61820153D01*
X57749034Y-82147208D02*
X57787129Y-82109113D01*
X57825224Y-81994827D01*
X57825224Y-81918637D01*
X57787129Y-81804351D01*
X57710939Y-81728161D01*
X57634748Y-81690065D01*
X57482367Y-81651970D01*
X57368081Y-81651970D01*
X57215700Y-81690065D01*
X57139510Y-81728161D01*
X57063320Y-81804351D01*
X57025224Y-81918637D01*
X57025224Y-81994827D01*
X57063320Y-82109113D01*
X57101415Y-82147208D01*
X57291891Y-82832922D02*
X57825224Y-82832922D01*
X56987129Y-82642446D02*
X57558558Y-82451970D01*
X57558558Y-82947208D01*
X72840904Y-70605733D02*
X73412333Y-70605733D01*
X73526619Y-70567638D01*
X73602809Y-70491447D01*
X73640904Y-70377161D01*
X73640904Y-70300971D01*
X73640904Y-70986685D02*
X72840904Y-70986685D01*
X72840904Y-71291447D01*
X72879000Y-71367638D01*
X72917095Y-71405733D01*
X72993285Y-71443828D01*
X73107571Y-71443828D01*
X73183761Y-71405733D01*
X73221857Y-71367638D01*
X73259952Y-71291447D01*
X73259952Y-70986685D01*
X72840904Y-72167638D02*
X72840904Y-71786685D01*
X73221857Y-71748590D01*
X73183761Y-71786685D01*
X73145666Y-71862876D01*
X73145666Y-72053352D01*
X73183761Y-72129542D01*
X73221857Y-72167638D01*
X73298047Y-72205733D01*
X73488523Y-72205733D01*
X73564714Y-72167638D01*
X73602809Y-72129542D01*
X73640904Y-72053352D01*
X73640904Y-71862876D01*
X73602809Y-71786685D01*
X73564714Y-71748590D01*
X57376992Y-77219283D02*
X57338897Y-77143093D01*
X57262706Y-77066902D01*
X57148420Y-76952616D01*
X57110325Y-76876426D01*
X57110325Y-76800235D01*
X57300801Y-76838331D02*
X57262706Y-76762140D01*
X57186516Y-76685950D01*
X57034135Y-76647854D01*
X56767468Y-76647854D01*
X56615087Y-76685950D01*
X56538897Y-76762140D01*
X56500801Y-76838331D01*
X56500801Y-76990712D01*
X56538897Y-77066902D01*
X56615087Y-77143093D01*
X56767468Y-77181188D01*
X57034135Y-77181188D01*
X57186516Y-77143093D01*
X57262706Y-77066902D01*
X57300801Y-76990712D01*
X57300801Y-76838331D01*
X56500801Y-77447854D02*
X56500801Y-77943093D01*
X56805563Y-77676426D01*
X56805563Y-77790712D01*
X56843658Y-77866902D01*
X56881754Y-77904997D01*
X56957944Y-77943093D01*
X57148420Y-77943093D01*
X57224611Y-77904997D01*
X57262706Y-77866902D01*
X57300801Y-77790712D01*
X57300801Y-77562140D01*
X57262706Y-77485950D01*
X57224611Y-77447854D01*
X56876904Y-97910714D02*
X56495952Y-97644047D01*
X56876904Y-97453571D02*
X56076904Y-97453571D01*
X56076904Y-97758333D01*
X56115000Y-97834523D01*
X56153095Y-97872619D01*
X56229285Y-97910714D01*
X56343571Y-97910714D01*
X56419761Y-97872619D01*
X56457857Y-97834523D01*
X56495952Y-97758333D01*
X56495952Y-97453571D01*
X56876904Y-98672619D02*
X56876904Y-98215476D01*
X56876904Y-98444047D02*
X56076904Y-98444047D01*
X56191190Y-98367857D01*
X56267380Y-98291666D01*
X56305476Y-98215476D01*
X56076904Y-98939285D02*
X56076904Y-99434523D01*
X56381666Y-99167857D01*
X56381666Y-99282142D01*
X56419761Y-99358333D01*
X56457857Y-99396428D01*
X56534047Y-99434523D01*
X56724523Y-99434523D01*
X56800714Y-99396428D01*
X56838809Y-99358333D01*
X56876904Y-99282142D01*
X56876904Y-99053571D01*
X56838809Y-98977380D01*
X56800714Y-98939285D01*
X69978409Y-110550094D02*
X69597457Y-110283427D01*
X69978409Y-110092951D02*
X69178409Y-110092951D01*
X69178409Y-110397713D01*
X69216505Y-110473903D01*
X69254600Y-110511999D01*
X69330790Y-110550094D01*
X69445076Y-110550094D01*
X69521266Y-110511999D01*
X69559362Y-110473903D01*
X69597457Y-110397713D01*
X69597457Y-110092951D01*
X69978409Y-111311999D02*
X69978409Y-110854856D01*
X69978409Y-111083427D02*
X69178409Y-111083427D01*
X69292695Y-111007237D01*
X69368885Y-110931046D01*
X69406981Y-110854856D01*
X69178409Y-111578665D02*
X69178409Y-112111999D01*
X69978409Y-111769141D01*
X57342340Y-50142056D02*
X56961388Y-49875389D01*
X57342340Y-49684913D02*
X56542340Y-49684913D01*
X56542340Y-49989675D01*
X56580436Y-50065865D01*
X56618531Y-50103961D01*
X56694721Y-50142056D01*
X56809007Y-50142056D01*
X56885197Y-50103961D01*
X56923293Y-50065865D01*
X56961388Y-49989675D01*
X56961388Y-49684913D01*
X56618531Y-50446818D02*
X56580436Y-50484913D01*
X56542340Y-50561103D01*
X56542340Y-50751580D01*
X56580436Y-50827770D01*
X56618531Y-50865865D01*
X56694721Y-50903961D01*
X56770912Y-50903961D01*
X56885197Y-50865865D01*
X57342340Y-50408722D01*
X57342340Y-50903961D01*
X56542340Y-51170627D02*
X56542340Y-51703961D01*
X57342340Y-51361103D01*
X30587904Y-106800714D02*
X30206952Y-106534047D01*
X30587904Y-106343571D02*
X29787904Y-106343571D01*
X29787904Y-106648333D01*
X29826000Y-106724523D01*
X29864095Y-106762619D01*
X29940285Y-106800714D01*
X30054571Y-106800714D01*
X30130761Y-106762619D01*
X30168857Y-106724523D01*
X30206952Y-106648333D01*
X30206952Y-106343571D01*
X29787904Y-107067380D02*
X29787904Y-107562619D01*
X30092666Y-107295952D01*
X30092666Y-107410238D01*
X30130761Y-107486428D01*
X30168857Y-107524523D01*
X30245047Y-107562619D01*
X30435523Y-107562619D01*
X30511714Y-107524523D01*
X30549809Y-107486428D01*
X30587904Y-107410238D01*
X30587904Y-107181666D01*
X30549809Y-107105476D01*
X30511714Y-107067380D01*
X30587904Y-107943571D02*
X30587904Y-108095952D01*
X30549809Y-108172142D01*
X30511714Y-108210238D01*
X30397428Y-108286428D01*
X30245047Y-108324523D01*
X29940285Y-108324523D01*
X29864095Y-108286428D01*
X29826000Y-108248333D01*
X29787904Y-108172142D01*
X29787904Y-108019761D01*
X29826000Y-107943571D01*
X29864095Y-107905476D01*
X29940285Y-107867380D01*
X30130761Y-107867380D01*
X30206952Y-107905476D01*
X30245047Y-107943571D01*
X30283142Y-108019761D01*
X30283142Y-108172142D01*
X30245047Y-108248333D01*
X30206952Y-108286428D01*
X30130761Y-108324523D01*
X77459508Y-97947454D02*
X76659508Y-97947454D01*
X76659508Y-98137931D01*
X76697604Y-98252216D01*
X76773794Y-98328407D01*
X76849984Y-98366502D01*
X77002365Y-98404597D01*
X77116651Y-98404597D01*
X77269032Y-98366502D01*
X77345223Y-98328407D01*
X77421413Y-98252216D01*
X77459508Y-98137931D01*
X77459508Y-97947454D01*
X76735699Y-98709359D02*
X76697604Y-98747454D01*
X76659508Y-98823645D01*
X76659508Y-99014121D01*
X76697604Y-99090311D01*
X76735699Y-99128407D01*
X76811889Y-99166502D01*
X76888080Y-99166502D01*
X77002365Y-99128407D01*
X77459508Y-98671264D01*
X77459508Y-99166502D01*
X56571362Y-56039966D02*
X56609457Y-56001871D01*
X56647552Y-55887585D01*
X56647552Y-55811394D01*
X56609457Y-55697109D01*
X56533267Y-55620918D01*
X56457076Y-55582823D01*
X56304695Y-55544728D01*
X56190409Y-55544728D01*
X56038028Y-55582823D01*
X55961838Y-55620918D01*
X55885648Y-55697109D01*
X55847552Y-55811394D01*
X55847552Y-55887585D01*
X55885648Y-56001871D01*
X55923743Y-56039966D01*
X56647552Y-56801871D02*
X56647552Y-56344728D01*
X56647552Y-56573299D02*
X55847552Y-56573299D01*
X55961838Y-56497109D01*
X56038028Y-56420918D01*
X56076124Y-56344728D01*
X55847552Y-57068537D02*
X55847552Y-57563775D01*
X56152314Y-57297109D01*
X56152314Y-57411394D01*
X56190409Y-57487585D01*
X56228505Y-57525680D01*
X56304695Y-57563775D01*
X56495171Y-57563775D01*
X56571362Y-57525680D01*
X56609457Y-57487585D01*
X56647552Y-57411394D01*
X56647552Y-57182823D01*
X56609457Y-57106632D01*
X56571362Y-57068537D01*
X52971965Y-95904298D02*
X53010060Y-95866203D01*
X53048155Y-95751917D01*
X53048155Y-95675727D01*
X53010060Y-95561441D01*
X52933870Y-95485251D01*
X52857679Y-95447155D01*
X52705298Y-95409060D01*
X52591012Y-95409060D01*
X52438631Y-95447155D01*
X52362441Y-95485251D01*
X52286251Y-95561441D01*
X52248155Y-95675727D01*
X52248155Y-95751917D01*
X52286251Y-95866203D01*
X52324346Y-95904298D01*
X52248155Y-96628108D02*
X52248155Y-96247155D01*
X52629108Y-96209060D01*
X52591012Y-96247155D01*
X52552917Y-96323346D01*
X52552917Y-96513822D01*
X52591012Y-96590012D01*
X52629108Y-96628108D01*
X52705298Y-96666203D01*
X52895774Y-96666203D01*
X52971965Y-96628108D01*
X53010060Y-96590012D01*
X53048155Y-96513822D01*
X53048155Y-96323346D01*
X53010060Y-96247155D01*
X52971965Y-96209060D01*
X64166714Y-56837735D02*
X64204809Y-56799640D01*
X64242904Y-56685354D01*
X64242904Y-56609164D01*
X64204809Y-56494878D01*
X64128619Y-56418688D01*
X64052428Y-56380592D01*
X63900047Y-56342497D01*
X63785761Y-56342497D01*
X63633380Y-56380592D01*
X63557190Y-56418688D01*
X63481000Y-56494878D01*
X63442904Y-56609164D01*
X63442904Y-56685354D01*
X63481000Y-56799640D01*
X63519095Y-56837735D01*
X63442904Y-57523449D02*
X63442904Y-57371069D01*
X63481000Y-57294878D01*
X63519095Y-57256783D01*
X63633380Y-57180592D01*
X63785761Y-57142497D01*
X64090523Y-57142497D01*
X64166714Y-57180592D01*
X64204809Y-57218688D01*
X64242904Y-57294878D01*
X64242904Y-57447259D01*
X64204809Y-57523449D01*
X64166714Y-57561545D01*
X64090523Y-57599640D01*
X63900047Y-57599640D01*
X63823857Y-57561545D01*
X63785761Y-57523449D01*
X63747666Y-57447259D01*
X63747666Y-57294878D01*
X63785761Y-57218688D01*
X63823857Y-57180592D01*
X63900047Y-57142497D01*
X48814982Y-60167120D02*
X48434030Y-59900454D01*
X48814982Y-59709977D02*
X48014982Y-59709977D01*
X48014982Y-60014739D01*
X48053078Y-60090930D01*
X48091173Y-60129025D01*
X48167363Y-60167120D01*
X48281649Y-60167120D01*
X48357839Y-60129025D01*
X48395935Y-60090930D01*
X48434030Y-60014739D01*
X48434030Y-59709977D01*
X48814982Y-60929025D02*
X48814982Y-60471882D01*
X48814982Y-60700454D02*
X48014982Y-60700454D01*
X48129268Y-60624263D01*
X48205458Y-60548073D01*
X48243554Y-60471882D01*
X44583238Y-38230860D02*
X44849905Y-37849908D01*
X45040381Y-38230860D02*
X45040381Y-37430860D01*
X44735619Y-37430860D01*
X44659429Y-37468956D01*
X44621333Y-37507051D01*
X44583238Y-37583241D01*
X44583238Y-37697527D01*
X44621333Y-37773717D01*
X44659429Y-37811813D01*
X44735619Y-37849908D01*
X45040381Y-37849908D01*
X43821333Y-38230860D02*
X44278476Y-38230860D01*
X44049905Y-38230860D02*
X44049905Y-37430860D01*
X44126095Y-37545146D01*
X44202286Y-37621336D01*
X44278476Y-37659432D01*
X43326095Y-37430860D02*
X43249905Y-37430860D01*
X43173714Y-37468956D01*
X43135619Y-37507051D01*
X43097524Y-37583241D01*
X43059429Y-37735622D01*
X43059429Y-37926098D01*
X43097524Y-38078479D01*
X43135619Y-38154670D01*
X43173714Y-38192765D01*
X43249905Y-38230860D01*
X43326095Y-38230860D01*
X43402286Y-38192765D01*
X43440381Y-38154670D01*
X43478476Y-38078479D01*
X43516572Y-37926098D01*
X43516572Y-37735622D01*
X43478476Y-37583241D01*
X43440381Y-37507051D01*
X43402286Y-37468956D01*
X43326095Y-37430860D01*
X43821333Y-40747904D02*
X44088000Y-40366952D01*
X44278476Y-40747904D02*
X44278476Y-39947904D01*
X43973714Y-39947904D01*
X43897523Y-39986000D01*
X43859428Y-40024095D01*
X43821333Y-40100285D01*
X43821333Y-40214571D01*
X43859428Y-40290761D01*
X43897523Y-40328857D01*
X43973714Y-40366952D01*
X44278476Y-40366952D01*
X43440380Y-40747904D02*
X43288000Y-40747904D01*
X43211809Y-40709809D01*
X43173714Y-40671714D01*
X43097523Y-40557428D01*
X43059428Y-40405047D01*
X43059428Y-40100285D01*
X43097523Y-40024095D01*
X43135619Y-39986000D01*
X43211809Y-39947904D01*
X43364190Y-39947904D01*
X43440380Y-39986000D01*
X43478476Y-40024095D01*
X43516571Y-40100285D01*
X43516571Y-40290761D01*
X43478476Y-40366952D01*
X43440380Y-40405047D01*
X43364190Y-40443142D01*
X43211809Y-40443142D01*
X43135619Y-40405047D01*
X43097523Y-40366952D01*
X43059428Y-40290761D01*
X63175511Y-97997486D02*
X63746940Y-97997486D01*
X63861226Y-97959391D01*
X63937416Y-97883201D01*
X63975511Y-97768915D01*
X63975511Y-97692725D01*
X63975511Y-98378439D02*
X63175511Y-98378439D01*
X63175511Y-98683201D01*
X63213607Y-98759391D01*
X63251702Y-98797486D01*
X63327892Y-98835582D01*
X63442178Y-98835582D01*
X63518368Y-98797486D01*
X63556464Y-98759391D01*
X63594559Y-98683201D01*
X63594559Y-98378439D01*
X63975511Y-99597486D02*
X63975511Y-99140344D01*
X63975511Y-99368915D02*
X63175511Y-99368915D01*
X63289797Y-99292725D01*
X63365987Y-99216534D01*
X63404083Y-99140344D01*
X63175511Y-100092725D02*
X63175511Y-100168915D01*
X63213607Y-100245106D01*
X63251702Y-100283201D01*
X63327892Y-100321296D01*
X63480273Y-100359391D01*
X63670749Y-100359391D01*
X63823130Y-100321296D01*
X63899321Y-100283201D01*
X63937416Y-100245106D01*
X63975511Y-100168915D01*
X63975511Y-100092725D01*
X63937416Y-100016534D01*
X63899321Y-99978439D01*
X63823130Y-99940344D01*
X63670749Y-99902248D01*
X63480273Y-99902248D01*
X63327892Y-99940344D01*
X63251702Y-99978439D01*
X63213607Y-100016534D01*
X63175511Y-100092725D01*
X48814982Y-72857120D02*
X48434030Y-72590454D01*
X48814982Y-72399977D02*
X48014982Y-72399977D01*
X48014982Y-72704739D01*
X48053078Y-72780930D01*
X48091173Y-72819025D01*
X48167363Y-72857120D01*
X48281649Y-72857120D01*
X48357839Y-72819025D01*
X48395935Y-72780930D01*
X48434030Y-72704739D01*
X48434030Y-72399977D01*
X48014982Y-73580930D02*
X48014982Y-73199977D01*
X48395935Y-73161882D01*
X48357839Y-73199977D01*
X48319744Y-73276168D01*
X48319744Y-73466644D01*
X48357839Y-73542834D01*
X48395935Y-73580930D01*
X48472125Y-73619025D01*
X48662601Y-73619025D01*
X48738792Y-73580930D01*
X48776887Y-73542834D01*
X48814982Y-73466644D01*
X48814982Y-73276168D01*
X48776887Y-73199977D01*
X48738792Y-73161882D01*
X44583238Y-43287904D02*
X44849905Y-42906952D01*
X45040381Y-43287904D02*
X45040381Y-42487904D01*
X44735619Y-42487904D01*
X44659429Y-42526000D01*
X44621333Y-42564095D01*
X44583238Y-42640285D01*
X44583238Y-42754571D01*
X44621333Y-42830761D01*
X44659429Y-42868857D01*
X44735619Y-42906952D01*
X45040381Y-42906952D01*
X43821333Y-43287904D02*
X44278476Y-43287904D01*
X44049905Y-43287904D02*
X44049905Y-42487904D01*
X44126095Y-42602190D01*
X44202286Y-42678380D01*
X44278476Y-42716476D01*
X43059429Y-43287904D02*
X43516572Y-43287904D01*
X43288000Y-43287904D02*
X43288000Y-42487904D01*
X43364191Y-42602190D01*
X43440381Y-42678380D01*
X43516572Y-42716476D01*
X65183538Y-102126035D02*
X65221633Y-102087940D01*
X65259728Y-101973654D01*
X65259728Y-101897463D01*
X65221633Y-101783178D01*
X65145443Y-101706987D01*
X65069252Y-101668892D01*
X64916871Y-101630797D01*
X64802585Y-101630797D01*
X64650204Y-101668892D01*
X64574014Y-101706987D01*
X64497824Y-101783178D01*
X64459728Y-101897463D01*
X64459728Y-101973654D01*
X64497824Y-102087940D01*
X64535919Y-102126035D01*
X65259728Y-102887940D02*
X65259728Y-102430797D01*
X65259728Y-102659368D02*
X64459728Y-102659368D01*
X64574014Y-102583178D01*
X64650204Y-102506987D01*
X64688300Y-102430797D01*
X64802585Y-103345082D02*
X64764490Y-103268892D01*
X64726395Y-103230797D01*
X64650204Y-103192701D01*
X64612109Y-103192701D01*
X64535919Y-103230797D01*
X64497824Y-103268892D01*
X64459728Y-103345082D01*
X64459728Y-103497463D01*
X64497824Y-103573654D01*
X64535919Y-103611749D01*
X64612109Y-103649844D01*
X64650204Y-103649844D01*
X64726395Y-103611749D01*
X64764490Y-103573654D01*
X64802585Y-103497463D01*
X64802585Y-103345082D01*
X64840681Y-103268892D01*
X64878776Y-103230797D01*
X64954966Y-103192701D01*
X65107347Y-103192701D01*
X65183538Y-103230797D01*
X65221633Y-103268892D01*
X65259728Y-103345082D01*
X65259728Y-103497463D01*
X65221633Y-103573654D01*
X65183538Y-103611749D01*
X65107347Y-103649844D01*
X64954966Y-103649844D01*
X64878776Y-103611749D01*
X64840681Y-103573654D01*
X64802585Y-103497463D01*
X38045508Y-92245514D02*
X38083603Y-92207419D01*
X38121698Y-92093133D01*
X38121698Y-92016943D01*
X38083603Y-91902657D01*
X38007413Y-91826467D01*
X37931222Y-91788371D01*
X37778841Y-91750276D01*
X37664555Y-91750276D01*
X37512174Y-91788371D01*
X37435984Y-91826467D01*
X37359794Y-91902657D01*
X37321698Y-92016943D01*
X37321698Y-92093133D01*
X37359794Y-92207419D01*
X37397889Y-92245514D01*
X37321698Y-92512181D02*
X37321698Y-93045514D01*
X38121698Y-92702657D01*
X67029050Y-73145714D02*
X66648098Y-72879047D01*
X67029050Y-72688571D02*
X66229050Y-72688571D01*
X66229050Y-72993333D01*
X66267146Y-73069523D01*
X66305241Y-73107619D01*
X66381431Y-73145714D01*
X66495717Y-73145714D01*
X66571907Y-73107619D01*
X66610003Y-73069523D01*
X66648098Y-72993333D01*
X66648098Y-72688571D01*
X66229050Y-73412380D02*
X66229050Y-73907619D01*
X66533812Y-73640952D01*
X66533812Y-73755238D01*
X66571907Y-73831428D01*
X66610003Y-73869523D01*
X66686193Y-73907619D01*
X66876669Y-73907619D01*
X66952860Y-73869523D01*
X66990955Y-73831428D01*
X67029050Y-73755238D01*
X67029050Y-73526666D01*
X66990955Y-73450476D01*
X66952860Y-73412380D01*
X67029050Y-74669523D02*
X67029050Y-74212380D01*
X67029050Y-74440952D02*
X66229050Y-74440952D01*
X66343336Y-74364761D01*
X66419526Y-74288571D01*
X66457622Y-74212380D01*
X39276110Y-82484298D02*
X39314205Y-82446203D01*
X39352300Y-82331917D01*
X39352300Y-82255726D01*
X39314205Y-82141441D01*
X39238015Y-82065250D01*
X39161824Y-82027155D01*
X39009443Y-81989060D01*
X38895157Y-81989060D01*
X38742776Y-82027155D01*
X38666586Y-82065250D01*
X38590396Y-82141441D01*
X38552300Y-82255726D01*
X38552300Y-82331917D01*
X38590396Y-82446203D01*
X38628491Y-82484298D01*
X39352300Y-83246203D02*
X39352300Y-82789060D01*
X39352300Y-83017631D02*
X38552300Y-83017631D01*
X38666586Y-82941441D01*
X38742776Y-82865250D01*
X38780872Y-82789060D01*
X38628491Y-83550964D02*
X38590396Y-83589060D01*
X38552300Y-83665250D01*
X38552300Y-83855726D01*
X38590396Y-83931917D01*
X38628491Y-83970012D01*
X38704681Y-84008107D01*
X38780872Y-84008107D01*
X38895157Y-83970012D01*
X39352300Y-83512869D01*
X39352300Y-84008107D01*
X48814982Y-80487120D02*
X48434030Y-80220454D01*
X48814982Y-80029977D02*
X48014982Y-80029977D01*
X48014982Y-80334739D01*
X48053078Y-80410930D01*
X48091173Y-80449025D01*
X48167363Y-80487120D01*
X48281649Y-80487120D01*
X48357839Y-80449025D01*
X48395935Y-80410930D01*
X48434030Y-80334739D01*
X48434030Y-80029977D01*
X48357839Y-80944263D02*
X48319744Y-80868073D01*
X48281649Y-80829977D01*
X48205458Y-80791882D01*
X48167363Y-80791882D01*
X48091173Y-80829977D01*
X48053078Y-80868073D01*
X48014982Y-80944263D01*
X48014982Y-81096644D01*
X48053078Y-81172834D01*
X48091173Y-81210930D01*
X48167363Y-81249025D01*
X48205458Y-81249025D01*
X48281649Y-81210930D01*
X48319744Y-81172834D01*
X48357839Y-81096644D01*
X48357839Y-80944263D01*
X48395935Y-80868073D01*
X48434030Y-80829977D01*
X48510220Y-80791882D01*
X48662601Y-80791882D01*
X48738792Y-80829977D01*
X48776887Y-80868073D01*
X48814982Y-80944263D01*
X48814982Y-81096644D01*
X48776887Y-81172834D01*
X48738792Y-81210930D01*
X48662601Y-81249025D01*
X48510220Y-81249025D01*
X48434030Y-81210930D01*
X48395935Y-81172834D01*
X48357839Y-81096644D01*
X41385714Y-54068730D02*
X41423809Y-54030635D01*
X41461904Y-53916349D01*
X41461904Y-53840159D01*
X41423809Y-53725873D01*
X41347619Y-53649683D01*
X41271428Y-53611587D01*
X41119047Y-53573492D01*
X41004761Y-53573492D01*
X40852380Y-53611587D01*
X40776190Y-53649683D01*
X40700000Y-53725873D01*
X40661904Y-53840159D01*
X40661904Y-53916349D01*
X40700000Y-54030635D01*
X40738095Y-54068730D01*
X40738095Y-54373492D02*
X40700000Y-54411587D01*
X40661904Y-54487778D01*
X40661904Y-54678254D01*
X40700000Y-54754444D01*
X40738095Y-54792540D01*
X40814285Y-54830635D01*
X40890476Y-54830635D01*
X41004761Y-54792540D01*
X41461904Y-54335397D01*
X41461904Y-54830635D01*
X59142762Y-50121596D02*
X58761810Y-49854929D01*
X59142762Y-49664453D02*
X58342762Y-49664453D01*
X58342762Y-49969215D01*
X58380858Y-50045405D01*
X58418953Y-50083501D01*
X58495143Y-50121596D01*
X58609429Y-50121596D01*
X58685619Y-50083501D01*
X58723715Y-50045405D01*
X58761810Y-49969215D01*
X58761810Y-49664453D01*
X58418953Y-50426358D02*
X58380858Y-50464453D01*
X58342762Y-50540643D01*
X58342762Y-50731120D01*
X58380858Y-50807310D01*
X58418953Y-50845405D01*
X58495143Y-50883501D01*
X58571334Y-50883501D01*
X58685619Y-50845405D01*
X59142762Y-50388262D01*
X59142762Y-50883501D01*
X58342762Y-51569215D02*
X58342762Y-51416834D01*
X58380858Y-51340643D01*
X58418953Y-51302548D01*
X58533238Y-51226358D01*
X58685619Y-51188262D01*
X58990381Y-51188262D01*
X59066572Y-51226358D01*
X59104667Y-51264453D01*
X59142762Y-51340643D01*
X59142762Y-51493024D01*
X59104667Y-51569215D01*
X59066572Y-51607310D01*
X58990381Y-51645405D01*
X58799905Y-51645405D01*
X58723715Y-51607310D01*
X58685619Y-51569215D01*
X58647524Y-51493024D01*
X58647524Y-51340643D01*
X58685619Y-51264453D01*
X58723715Y-51226358D01*
X58799905Y-51188262D01*
X38106285Y-34270904D02*
X38372952Y-33889952D01*
X38563428Y-34270904D02*
X38563428Y-33470904D01*
X38258666Y-33470904D01*
X38182476Y-33509000D01*
X38144380Y-33547095D01*
X38106285Y-33623285D01*
X38106285Y-33737571D01*
X38144380Y-33813761D01*
X38182476Y-33851857D01*
X38258666Y-33889952D01*
X38563428Y-33889952D01*
X37420571Y-33737571D02*
X37420571Y-34270904D01*
X37611047Y-33432809D02*
X37801523Y-34004238D01*
X37306285Y-34004238D01*
X37077714Y-33470904D02*
X36582476Y-33470904D01*
X36849142Y-33775666D01*
X36734857Y-33775666D01*
X36658666Y-33813761D01*
X36620571Y-33851857D01*
X36582476Y-33928047D01*
X36582476Y-34118523D01*
X36620571Y-34194714D01*
X36658666Y-34232809D01*
X36734857Y-34270904D01*
X36963428Y-34270904D01*
X37039619Y-34232809D01*
X37077714Y-34194714D01*
X73094904Y-52673380D02*
X73666333Y-52673380D01*
X73780619Y-52635285D01*
X73856809Y-52559095D01*
X73894904Y-52444809D01*
X73894904Y-52368619D01*
X73894904Y-53054333D02*
X73094904Y-53054333D01*
X73094904Y-53359095D01*
X73133000Y-53435285D01*
X73171095Y-53473380D01*
X73247285Y-53511476D01*
X73361571Y-53511476D01*
X73437761Y-53473380D01*
X73475857Y-53435285D01*
X73513952Y-53359095D01*
X73513952Y-53054333D01*
X73894904Y-54273380D02*
X73894904Y-53816238D01*
X73894904Y-54044809D02*
X73094904Y-54044809D01*
X73209190Y-53968619D01*
X73285380Y-53892428D01*
X73323476Y-53816238D01*
X73094904Y-54540047D02*
X73094904Y-55073380D01*
X73894904Y-54730523D01*
X48814982Y-65237120D02*
X48434030Y-64970454D01*
X48814982Y-64779977D02*
X48014982Y-64779977D01*
X48014982Y-65084739D01*
X48053078Y-65160930D01*
X48091173Y-65199025D01*
X48167363Y-65237120D01*
X48281649Y-65237120D01*
X48357839Y-65199025D01*
X48395935Y-65160930D01*
X48434030Y-65084739D01*
X48434030Y-64779977D01*
X48014982Y-65503787D02*
X48014982Y-65999025D01*
X48319744Y-65732358D01*
X48319744Y-65846644D01*
X48357839Y-65922834D01*
X48395935Y-65960930D01*
X48472125Y-65999025D01*
X48662601Y-65999025D01*
X48738792Y-65960930D01*
X48776887Y-65922834D01*
X48814982Y-65846644D01*
X48814982Y-65618073D01*
X48776887Y-65541882D01*
X48738792Y-65503787D01*
X70070909Y-96541629D02*
X69689957Y-96274962D01*
X70070909Y-96084486D02*
X69270909Y-96084486D01*
X69270909Y-96389248D01*
X69309005Y-96465438D01*
X69347100Y-96503534D01*
X69423290Y-96541629D01*
X69537576Y-96541629D01*
X69613766Y-96503534D01*
X69651862Y-96465438D01*
X69689957Y-96389248D01*
X69689957Y-96084486D01*
X70070909Y-97303534D02*
X70070909Y-96846391D01*
X70070909Y-97074962D02*
X69270909Y-97074962D01*
X69385195Y-96998772D01*
X69461385Y-96922581D01*
X69499481Y-96846391D01*
X69270909Y-97989248D02*
X69270909Y-97836867D01*
X69309005Y-97760676D01*
X69347100Y-97722581D01*
X69461385Y-97646391D01*
X69613766Y-97608295D01*
X69918528Y-97608295D01*
X69994719Y-97646391D01*
X70032814Y-97684486D01*
X70070909Y-97760676D01*
X70070909Y-97913057D01*
X70032814Y-97989248D01*
X69994719Y-98027343D01*
X69918528Y-98065438D01*
X69728052Y-98065438D01*
X69651862Y-98027343D01*
X69613766Y-97989248D01*
X69575671Y-97913057D01*
X69575671Y-97760676D01*
X69613766Y-97684486D01*
X69651862Y-97646391D01*
X69728052Y-97608295D01*
X37866207Y-60754373D02*
X38437636Y-60754373D01*
X38551922Y-60716278D01*
X38628112Y-60640087D01*
X38666207Y-60525801D01*
X38666207Y-60449611D01*
X38666207Y-61135325D02*
X37866207Y-61135325D01*
X37866207Y-61440087D01*
X37904303Y-61516278D01*
X37942398Y-61554373D01*
X38018588Y-61592468D01*
X38132874Y-61592468D01*
X38209064Y-61554373D01*
X38247160Y-61516278D01*
X38285255Y-61440087D01*
X38285255Y-61135325D01*
X37866207Y-61859135D02*
X37866207Y-62354373D01*
X38170969Y-62087706D01*
X38170969Y-62201992D01*
X38209064Y-62278182D01*
X38247160Y-62316278D01*
X38323350Y-62354373D01*
X38513826Y-62354373D01*
X38590017Y-62316278D01*
X38628112Y-62278182D01*
X38666207Y-62201992D01*
X38666207Y-61973420D01*
X38628112Y-61897230D01*
X38590017Y-61859135D01*
X77946928Y-110593051D02*
X77565976Y-110326384D01*
X77946928Y-110135908D02*
X77146928Y-110135908D01*
X77146928Y-110440670D01*
X77185024Y-110516860D01*
X77223119Y-110554956D01*
X77299309Y-110593051D01*
X77413595Y-110593051D01*
X77489785Y-110554956D01*
X77527881Y-110516860D01*
X77565976Y-110440670D01*
X77565976Y-110135908D01*
X77946928Y-111354956D02*
X77946928Y-110897813D01*
X77946928Y-111126384D02*
X77146928Y-111126384D01*
X77261214Y-111050194D01*
X77337404Y-110974003D01*
X77375500Y-110897813D01*
X77413595Y-112040670D02*
X77946928Y-112040670D01*
X77108833Y-111850194D02*
X77680262Y-111659717D01*
X77680262Y-112154956D01*
X48814982Y-77947120D02*
X48434030Y-77680454D01*
X48814982Y-77489977D02*
X48014982Y-77489977D01*
X48014982Y-77794739D01*
X48053078Y-77870930D01*
X48091173Y-77909025D01*
X48167363Y-77947120D01*
X48281649Y-77947120D01*
X48357839Y-77909025D01*
X48395935Y-77870930D01*
X48434030Y-77794739D01*
X48434030Y-77489977D01*
X48014982Y-78213787D02*
X48014982Y-78747120D01*
X48814982Y-78404263D01*
X60454950Y-77932027D02*
X60073998Y-77665360D01*
X60454950Y-77474884D02*
X59654950Y-77474884D01*
X59654950Y-77779646D01*
X59693046Y-77855836D01*
X59731141Y-77893932D01*
X59807331Y-77932027D01*
X59921617Y-77932027D01*
X59997807Y-77893932D01*
X60035903Y-77855836D01*
X60073998Y-77779646D01*
X60073998Y-77474884D01*
X59654950Y-78198693D02*
X59654950Y-78693932D01*
X59959712Y-78427265D01*
X59959712Y-78541551D01*
X59997807Y-78617741D01*
X60035903Y-78655836D01*
X60112093Y-78693932D01*
X60302569Y-78693932D01*
X60378760Y-78655836D01*
X60416855Y-78617741D01*
X60454950Y-78541551D01*
X60454950Y-78312979D01*
X60416855Y-78236789D01*
X60378760Y-78198693D01*
X59921617Y-79379646D02*
X60454950Y-79379646D01*
X59616855Y-79189170D02*
X60188284Y-78998693D01*
X60188284Y-79493932D01*
X37630828Y-95456627D02*
X37249876Y-95189960D01*
X37630828Y-94999484D02*
X36830828Y-94999484D01*
X36830828Y-95304246D01*
X36868924Y-95380436D01*
X36907019Y-95418532D01*
X36983209Y-95456627D01*
X37097495Y-95456627D01*
X37173685Y-95418532D01*
X37211781Y-95380436D01*
X37249876Y-95304246D01*
X37249876Y-94999484D01*
X36830828Y-95723293D02*
X36830828Y-96218532D01*
X37135590Y-95951865D01*
X37135590Y-96066151D01*
X37173685Y-96142341D01*
X37211781Y-96180436D01*
X37287971Y-96218532D01*
X37478447Y-96218532D01*
X37554638Y-96180436D01*
X37592733Y-96142341D01*
X37630828Y-96066151D01*
X37630828Y-95837579D01*
X37592733Y-95761389D01*
X37554638Y-95723293D01*
X36830828Y-96904246D02*
X36830828Y-96751865D01*
X36868924Y-96675674D01*
X36907019Y-96637579D01*
X37021304Y-96561389D01*
X37173685Y-96523293D01*
X37478447Y-96523293D01*
X37554638Y-96561389D01*
X37592733Y-96599484D01*
X37630828Y-96675674D01*
X37630828Y-96828055D01*
X37592733Y-96904246D01*
X37554638Y-96942341D01*
X37478447Y-96980436D01*
X37287971Y-96980436D01*
X37211781Y-96942341D01*
X37173685Y-96904246D01*
X37135590Y-96828055D01*
X37135590Y-96675674D01*
X37173685Y-96599484D01*
X37211781Y-96561389D01*
X37287971Y-96523293D01*
X77523943Y-92450832D02*
X76723943Y-92450832D01*
X76723943Y-92641309D01*
X76762039Y-92755594D01*
X76838229Y-92831785D01*
X76914419Y-92869880D01*
X77066800Y-92907975D01*
X77181086Y-92907975D01*
X77333467Y-92869880D01*
X77409658Y-92831785D01*
X77485848Y-92755594D01*
X77523943Y-92641309D01*
X77523943Y-92450832D01*
X76723943Y-93174642D02*
X76723943Y-93669880D01*
X77028705Y-93403213D01*
X77028705Y-93517499D01*
X77066800Y-93593689D01*
X77104896Y-93631785D01*
X77181086Y-93669880D01*
X77371562Y-93669880D01*
X77447753Y-93631785D01*
X77485848Y-93593689D01*
X77523943Y-93517499D01*
X77523943Y-93288928D01*
X77485848Y-93212737D01*
X77447753Y-93174642D01*
X37866207Y-65836474D02*
X38437636Y-65836474D01*
X38551922Y-65798379D01*
X38628112Y-65722188D01*
X38666207Y-65607902D01*
X38666207Y-65531712D01*
X38666207Y-66217426D02*
X37866207Y-66217426D01*
X37866207Y-66522188D01*
X37904303Y-66598379D01*
X37942398Y-66636474D01*
X38018588Y-66674569D01*
X38132874Y-66674569D01*
X38209064Y-66636474D01*
X38247160Y-66598379D01*
X38285255Y-66522188D01*
X38285255Y-66217426D01*
X37942398Y-66979331D02*
X37904303Y-67017426D01*
X37866207Y-67093617D01*
X37866207Y-67284093D01*
X37904303Y-67360283D01*
X37942398Y-67398379D01*
X38018588Y-67436474D01*
X38094779Y-67436474D01*
X38209064Y-67398379D01*
X38666207Y-66941236D01*
X38666207Y-67436474D01*
X66021228Y-60225902D02*
X65640276Y-59959235D01*
X66021228Y-59768759D02*
X65221228Y-59768759D01*
X65221228Y-60073521D01*
X65259324Y-60149711D01*
X65297419Y-60187807D01*
X65373609Y-60225902D01*
X65487895Y-60225902D01*
X65564085Y-60187807D01*
X65602181Y-60149711D01*
X65640276Y-60073521D01*
X65640276Y-59768759D01*
X66021228Y-60987807D02*
X66021228Y-60530664D01*
X66021228Y-60759235D02*
X65221228Y-60759235D01*
X65335514Y-60683045D01*
X65411704Y-60606854D01*
X65449800Y-60530664D01*
X65564085Y-61444949D02*
X65525990Y-61368759D01*
X65487895Y-61330664D01*
X65411704Y-61292568D01*
X65373609Y-61292568D01*
X65297419Y-61330664D01*
X65259324Y-61368759D01*
X65221228Y-61444949D01*
X65221228Y-61597330D01*
X65259324Y-61673521D01*
X65297419Y-61711616D01*
X65373609Y-61749711D01*
X65411704Y-61749711D01*
X65487895Y-61711616D01*
X65525990Y-61673521D01*
X65564085Y-61597330D01*
X65564085Y-61444949D01*
X65602181Y-61368759D01*
X65640276Y-61330664D01*
X65716466Y-61292568D01*
X65868847Y-61292568D01*
X65945038Y-61330664D01*
X65983133Y-61368759D01*
X66021228Y-61444949D01*
X66021228Y-61597330D01*
X65983133Y-61673521D01*
X65945038Y-61711616D01*
X65868847Y-61749711D01*
X65716466Y-61749711D01*
X65640276Y-61711616D01*
X65602181Y-61673521D01*
X65564085Y-61597330D01*
X33006862Y-90485714D02*
X32625910Y-90219047D01*
X33006862Y-90028571D02*
X32206862Y-90028571D01*
X32206862Y-90333333D01*
X32244958Y-90409523D01*
X32283053Y-90447619D01*
X32359243Y-90485714D01*
X32473529Y-90485714D01*
X32549719Y-90447619D01*
X32587815Y-90409523D01*
X32625910Y-90333333D01*
X32625910Y-90028571D01*
X32206862Y-90752380D02*
X32206862Y-91247619D01*
X32511624Y-90980952D01*
X32511624Y-91095238D01*
X32549719Y-91171428D01*
X32587815Y-91209523D01*
X32664005Y-91247619D01*
X32854481Y-91247619D01*
X32930672Y-91209523D01*
X32968767Y-91171428D01*
X33006862Y-91095238D01*
X33006862Y-90866666D01*
X32968767Y-90790476D01*
X32930672Y-90752380D01*
X32549719Y-91704761D02*
X32511624Y-91628571D01*
X32473529Y-91590476D01*
X32397338Y-91552380D01*
X32359243Y-91552380D01*
X32283053Y-91590476D01*
X32244958Y-91628571D01*
X32206862Y-91704761D01*
X32206862Y-91857142D01*
X32244958Y-91933333D01*
X32283053Y-91971428D01*
X32359243Y-92009523D01*
X32397338Y-92009523D01*
X32473529Y-91971428D01*
X32511624Y-91933333D01*
X32549719Y-91857142D01*
X32549719Y-91704761D01*
X32587815Y-91628571D01*
X32625910Y-91590476D01*
X32702100Y-91552380D01*
X32854481Y-91552380D01*
X32930672Y-91590476D01*
X32968767Y-91628571D01*
X33006862Y-91704761D01*
X33006862Y-91857142D01*
X32968767Y-91933333D01*
X32930672Y-91971428D01*
X32854481Y-92009523D01*
X32702100Y-92009523D01*
X32625910Y-91971428D01*
X32587815Y-91933333D01*
X32549719Y-91857142D01*
X29739915Y-93020635D02*
X28939915Y-93020635D01*
X28939915Y-93211112D01*
X28978011Y-93325397D01*
X29054201Y-93401588D01*
X29130391Y-93439683D01*
X29282772Y-93477778D01*
X29397058Y-93477778D01*
X29549439Y-93439683D01*
X29625630Y-93401588D01*
X29701820Y-93325397D01*
X29739915Y-93211112D01*
X29739915Y-93020635D01*
X28939915Y-94201588D02*
X28939915Y-93820635D01*
X29320868Y-93782540D01*
X29282772Y-93820635D01*
X29244677Y-93896826D01*
X29244677Y-94087302D01*
X29282772Y-94163492D01*
X29320868Y-94201588D01*
X29397058Y-94239683D01*
X29587534Y-94239683D01*
X29663725Y-94201588D01*
X29701820Y-94163492D01*
X29739915Y-94087302D01*
X29739915Y-93896826D01*
X29701820Y-93820635D01*
X29663725Y-93782540D01*
X65876240Y-78417000D02*
X65914335Y-78383666D01*
X65952430Y-78283666D01*
X65952430Y-78217000D01*
X65914335Y-78117000D01*
X65838145Y-78050333D01*
X65761954Y-78017000D01*
X65609573Y-77983666D01*
X65495287Y-77983666D01*
X65342906Y-78017000D01*
X65266716Y-78050333D01*
X65190526Y-78117000D01*
X65152430Y-78217000D01*
X65152430Y-78283666D01*
X65190526Y-78383666D01*
X65228621Y-78417000D01*
X65952430Y-79083666D02*
X65952430Y-78683666D01*
X65952430Y-78883666D02*
X65152430Y-78883666D01*
X65266716Y-78817000D01*
X65342906Y-78750333D01*
X65381002Y-78683666D01*
X65152430Y-79717000D02*
X65152430Y-79383666D01*
X65533383Y-79350333D01*
X65495287Y-79383666D01*
X65457192Y-79450333D01*
X65457192Y-79617000D01*
X65495287Y-79683666D01*
X65533383Y-79717000D01*
X65609573Y-79750333D01*
X65800049Y-79750333D01*
X65876240Y-79717000D01*
X65914335Y-79683666D01*
X65952430Y-79617000D01*
X65952430Y-79450333D01*
X65914335Y-79383666D01*
X65876240Y-79350333D01*
X48814982Y-75456120D02*
X48434030Y-75189454D01*
X48814982Y-74998977D02*
X48014982Y-74998977D01*
X48014982Y-75303739D01*
X48053078Y-75379930D01*
X48091173Y-75418025D01*
X48167363Y-75456120D01*
X48281649Y-75456120D01*
X48357839Y-75418025D01*
X48395935Y-75379930D01*
X48434030Y-75303739D01*
X48434030Y-74998977D01*
X48014982Y-76141834D02*
X48014982Y-75989454D01*
X48053078Y-75913263D01*
X48091173Y-75875168D01*
X48205458Y-75798977D01*
X48357839Y-75760882D01*
X48662601Y-75760882D01*
X48738792Y-75798977D01*
X48776887Y-75837073D01*
X48814982Y-75913263D01*
X48814982Y-76065644D01*
X48776887Y-76141834D01*
X48738792Y-76179930D01*
X48662601Y-76218025D01*
X48472125Y-76218025D01*
X48395935Y-76179930D01*
X48357839Y-76141834D01*
X48319744Y-76065644D01*
X48319744Y-75913263D01*
X48357839Y-75837073D01*
X48395935Y-75798977D01*
X48472125Y-75760882D01*
X62350679Y-69769375D02*
X61969727Y-69502708D01*
X62350679Y-69312232D02*
X61550679Y-69312232D01*
X61550679Y-69616994D01*
X61588775Y-69693184D01*
X61626870Y-69731280D01*
X61703060Y-69769375D01*
X61817346Y-69769375D01*
X61893536Y-69731280D01*
X61931632Y-69693184D01*
X61969727Y-69616994D01*
X61969727Y-69312232D01*
X61626870Y-70074137D02*
X61588775Y-70112232D01*
X61550679Y-70188422D01*
X61550679Y-70378899D01*
X61588775Y-70455089D01*
X61626870Y-70493184D01*
X61703060Y-70531280D01*
X61779251Y-70531280D01*
X61893536Y-70493184D01*
X62350679Y-70036041D01*
X62350679Y-70531280D01*
X61550679Y-70797946D02*
X61550679Y-71293184D01*
X61855441Y-71026518D01*
X61855441Y-71140803D01*
X61893536Y-71216994D01*
X61931632Y-71255089D01*
X62007822Y-71293184D01*
X62198298Y-71293184D01*
X62274489Y-71255089D01*
X62312584Y-71216994D01*
X62350679Y-71140803D01*
X62350679Y-70912232D01*
X62312584Y-70836041D01*
X62274489Y-70797946D01*
X61672931Y-72155835D02*
X60872931Y-72155835D01*
X60872931Y-72346312D01*
X60911027Y-72460597D01*
X60987217Y-72536788D01*
X61063407Y-72574883D01*
X61215788Y-72612978D01*
X61330074Y-72612978D01*
X61482455Y-72574883D01*
X61558646Y-72536788D01*
X61634836Y-72460597D01*
X61672931Y-72346312D01*
X61672931Y-72155835D01*
X61672931Y-73374883D02*
X61672931Y-72917740D01*
X61672931Y-73146312D02*
X60872931Y-73146312D01*
X60987217Y-73070121D01*
X61063407Y-72993931D01*
X61101503Y-72917740D01*
X66576849Y-70127693D02*
X66843516Y-69746741D01*
X67033992Y-70127693D02*
X67033992Y-69327693D01*
X66729230Y-69327693D01*
X66653040Y-69365789D01*
X66614944Y-69403884D01*
X66576849Y-69480074D01*
X66576849Y-69594360D01*
X66614944Y-69670550D01*
X66653040Y-69708646D01*
X66729230Y-69746741D01*
X67033992Y-69746741D01*
X66272087Y-69403884D02*
X66233992Y-69365789D01*
X66157802Y-69327693D01*
X65967325Y-69327693D01*
X65891135Y-69365789D01*
X65853040Y-69403884D01*
X65814944Y-69480074D01*
X65814944Y-69556265D01*
X65853040Y-69670550D01*
X66310183Y-70127693D01*
X65814944Y-70127693D01*
X65510183Y-69403884D02*
X65472087Y-69365789D01*
X65395897Y-69327693D01*
X65205421Y-69327693D01*
X65129230Y-69365789D01*
X65091135Y-69403884D01*
X65053040Y-69480074D01*
X65053040Y-69556265D01*
X65091135Y-69670550D01*
X65548278Y-70127693D01*
X65053040Y-70127693D01*
X29757814Y-98532573D02*
X28957814Y-98532573D01*
X28957814Y-98723050D01*
X28995910Y-98837335D01*
X29072100Y-98913526D01*
X29148290Y-98951621D01*
X29300671Y-98989716D01*
X29414957Y-98989716D01*
X29567338Y-98951621D01*
X29643529Y-98913526D01*
X29719719Y-98837335D01*
X29757814Y-98723050D01*
X29757814Y-98532573D01*
X29224481Y-99675430D02*
X29757814Y-99675430D01*
X28919719Y-99484954D02*
X29491148Y-99294478D01*
X29491148Y-99789716D01*
X44583238Y-35667904D02*
X44849905Y-35286952D01*
X45040381Y-35667904D02*
X45040381Y-34867904D01*
X44735619Y-34867904D01*
X44659429Y-34906000D01*
X44621333Y-34944095D01*
X44583238Y-35020285D01*
X44583238Y-35134571D01*
X44621333Y-35210761D01*
X44659429Y-35248857D01*
X44735619Y-35286952D01*
X45040381Y-35286952D01*
X43821333Y-35667904D02*
X44278476Y-35667904D01*
X44049905Y-35667904D02*
X44049905Y-34867904D01*
X44126095Y-34982190D01*
X44202286Y-35058380D01*
X44278476Y-35096476D01*
X43516572Y-34944095D02*
X43478476Y-34906000D01*
X43402286Y-34867904D01*
X43211810Y-34867904D01*
X43135619Y-34906000D01*
X43097524Y-34944095D01*
X43059429Y-35020285D01*
X43059429Y-35096476D01*
X43097524Y-35210761D01*
X43554667Y-35667904D01*
X43059429Y-35667904D01*
X57842095Y-64947809D02*
X57804000Y-64871619D01*
X57727809Y-64795428D01*
X57613523Y-64681142D01*
X57575428Y-64604952D01*
X57575428Y-64528761D01*
X57765904Y-64566857D02*
X57727809Y-64490666D01*
X57651619Y-64414476D01*
X57499238Y-64376380D01*
X57232571Y-64376380D01*
X57080190Y-64414476D01*
X57004000Y-64490666D01*
X56965904Y-64566857D01*
X56965904Y-64719238D01*
X57004000Y-64795428D01*
X57080190Y-64871619D01*
X57232571Y-64909714D01*
X57499238Y-64909714D01*
X57651619Y-64871619D01*
X57727809Y-64795428D01*
X57765904Y-64719238D01*
X57765904Y-64566857D01*
X57042095Y-65214476D02*
X57004000Y-65252571D01*
X56965904Y-65328761D01*
X56965904Y-65519238D01*
X57004000Y-65595428D01*
X57042095Y-65633523D01*
X57118285Y-65671619D01*
X57194476Y-65671619D01*
X57308761Y-65633523D01*
X57765904Y-65176380D01*
X57765904Y-65671619D01*
X73443031Y-93899775D02*
X73062079Y-93633108D01*
X73443031Y-93442632D02*
X72643031Y-93442632D01*
X72643031Y-93747394D01*
X72681127Y-93823584D01*
X72719222Y-93861680D01*
X72795412Y-93899775D01*
X72909698Y-93899775D01*
X72985888Y-93861680D01*
X73023984Y-93823584D01*
X73062079Y-93747394D01*
X73062079Y-93442632D01*
X73443031Y-94661680D02*
X73443031Y-94204537D01*
X73443031Y-94433108D02*
X72643031Y-94433108D01*
X72757317Y-94356918D01*
X72833507Y-94280727D01*
X72871603Y-94204537D01*
X72643031Y-95385489D02*
X72643031Y-95004537D01*
X73023984Y-94966441D01*
X72985888Y-95004537D01*
X72947793Y-95080727D01*
X72947793Y-95271203D01*
X72985888Y-95347394D01*
X73023984Y-95385489D01*
X73100174Y-95423584D01*
X73290650Y-95423584D01*
X73366841Y-95385489D01*
X73404936Y-95347394D01*
X73443031Y-95271203D01*
X73443031Y-95080727D01*
X73404936Y-95004537D01*
X73366841Y-94966441D01*
X58508955Y-56128714D02*
X58547050Y-56090619D01*
X58585145Y-55976333D01*
X58585145Y-55900142D01*
X58547050Y-55785857D01*
X58470860Y-55709666D01*
X58394669Y-55671571D01*
X58242288Y-55633476D01*
X58128002Y-55633476D01*
X57975621Y-55671571D01*
X57899431Y-55709666D01*
X57823241Y-55785857D01*
X57785145Y-55900142D01*
X57785145Y-55976333D01*
X57823241Y-56090619D01*
X57861336Y-56128714D01*
X58585145Y-56890619D02*
X58585145Y-56433476D01*
X58585145Y-56662047D02*
X57785145Y-56662047D01*
X57899431Y-56585857D01*
X57975621Y-56509666D01*
X58013717Y-56433476D01*
X57785145Y-57576333D02*
X57785145Y-57423952D01*
X57823241Y-57347761D01*
X57861336Y-57309666D01*
X57975621Y-57233476D01*
X58128002Y-57195380D01*
X58432764Y-57195380D01*
X58508955Y-57233476D01*
X58547050Y-57271571D01*
X58585145Y-57347761D01*
X58585145Y-57500142D01*
X58547050Y-57576333D01*
X58508955Y-57614428D01*
X58432764Y-57652523D01*
X58242288Y-57652523D01*
X58166098Y-57614428D01*
X58128002Y-57576333D01*
X58089907Y-57500142D01*
X58089907Y-57347761D01*
X58128002Y-57271571D01*
X58166098Y-57233476D01*
X58242288Y-57195380D01*
X60295156Y-69791834D02*
X60333251Y-69753739D01*
X60371346Y-69639453D01*
X60371346Y-69563262D01*
X60333251Y-69448977D01*
X60257061Y-69372786D01*
X60180870Y-69334691D01*
X60028489Y-69296596D01*
X59914203Y-69296596D01*
X59761822Y-69334691D01*
X59685632Y-69372786D01*
X59609442Y-69448977D01*
X59571346Y-69563262D01*
X59571346Y-69639453D01*
X59609442Y-69753739D01*
X59647537Y-69791834D01*
X60371346Y-70553739D02*
X60371346Y-70096596D01*
X60371346Y-70325167D02*
X59571346Y-70325167D01*
X59685632Y-70248977D01*
X59761822Y-70172786D01*
X59799918Y-70096596D01*
X60371346Y-71315643D02*
X60371346Y-70858500D01*
X60371346Y-71087072D02*
X59571346Y-71087072D01*
X59685632Y-71010881D01*
X59761822Y-70934691D01*
X59799918Y-70858500D01*
X66633547Y-95441546D02*
X67204976Y-95441546D01*
X67319262Y-95403451D01*
X67395452Y-95327261D01*
X67433547Y-95212975D01*
X67433547Y-95136785D01*
X67433547Y-95822499D02*
X66633547Y-95822499D01*
X66633547Y-96127261D01*
X66671643Y-96203451D01*
X66709738Y-96241546D01*
X66785928Y-96279642D01*
X66900214Y-96279642D01*
X66976404Y-96241546D01*
X67014500Y-96203451D01*
X67052595Y-96127261D01*
X67052595Y-95822499D01*
X67433547Y-97041546D02*
X67433547Y-96584404D01*
X67433547Y-96812975D02*
X66633547Y-96812975D01*
X66747833Y-96736785D01*
X66824023Y-96660594D01*
X66862119Y-96584404D01*
X67433547Y-97803451D02*
X67433547Y-97346308D01*
X67433547Y-97574880D02*
X66633547Y-97574880D01*
X66747833Y-97498689D01*
X66824023Y-97422499D01*
X66862119Y-97346308D01*
X74021904Y-42665714D02*
X73640952Y-42399047D01*
X74021904Y-42208571D02*
X73221904Y-42208571D01*
X73221904Y-42513333D01*
X73260000Y-42589523D01*
X73298095Y-42627619D01*
X73374285Y-42665714D01*
X73488571Y-42665714D01*
X73564761Y-42627619D01*
X73602857Y-42589523D01*
X73640952Y-42513333D01*
X73640952Y-42208571D01*
X73221904Y-42932380D02*
X73221904Y-43427619D01*
X73526666Y-43160952D01*
X73526666Y-43275238D01*
X73564761Y-43351428D01*
X73602857Y-43389523D01*
X73679047Y-43427619D01*
X73869523Y-43427619D01*
X73945714Y-43389523D01*
X73983809Y-43351428D01*
X74021904Y-43275238D01*
X74021904Y-43046666D01*
X73983809Y-42970476D01*
X73945714Y-42932380D01*
X73221904Y-43694285D02*
X73221904Y-44227619D01*
X74021904Y-43884761D01*
X45489527Y-96384972D02*
X45108575Y-96118305D01*
X45489527Y-95927829D02*
X44689527Y-95927829D01*
X44689527Y-96232591D01*
X44727623Y-96308781D01*
X44765718Y-96346877D01*
X44841908Y-96384972D01*
X44956194Y-96384972D01*
X45032384Y-96346877D01*
X45070480Y-96308781D01*
X45108575Y-96232591D01*
X45108575Y-95927829D01*
X44689527Y-96651638D02*
X44689527Y-97146877D01*
X44994289Y-96880210D01*
X44994289Y-96994496D01*
X45032384Y-97070686D01*
X45070480Y-97108781D01*
X45146670Y-97146877D01*
X45337146Y-97146877D01*
X45413337Y-97108781D01*
X45451432Y-97070686D01*
X45489527Y-96994496D01*
X45489527Y-96765924D01*
X45451432Y-96689734D01*
X45413337Y-96651638D01*
X44689527Y-97413543D02*
X44689527Y-97908781D01*
X44994289Y-97642115D01*
X44994289Y-97756400D01*
X45032384Y-97832591D01*
X45070480Y-97870686D01*
X45146670Y-97908781D01*
X45337146Y-97908781D01*
X45413337Y-97870686D01*
X45451432Y-97832591D01*
X45489527Y-97756400D01*
X45489527Y-97527829D01*
X45451432Y-97451638D01*
X45413337Y-97413543D01*
D12*
X57306723Y-67787580D02*
X57306723Y-67333452D01*
X58776723Y-67787580D02*
X58776723Y-67333452D01*
X59951252Y-96747000D02*
X59428748Y-96747000D01*
X59951252Y-95277000D02*
X59428748Y-95277000D01*
X39773752Y-46110000D02*
X39251248Y-46110000D01*
X39773752Y-44640000D02*
X39251248Y-44640000D01*
X44222936Y-67190500D02*
X44677064Y-67190500D01*
X44222936Y-68660500D02*
X44677064Y-68660500D01*
X65314971Y-53761662D02*
X65314971Y-53307534D01*
X63844971Y-53761662D02*
X63844971Y-53307534D01*
X62335156Y-59174748D02*
X62335156Y-59697252D01*
X60865156Y-59174748D02*
X60865156Y-59697252D01*
X28227064Y-104265000D02*
X27772936Y-104265000D01*
X28227064Y-105735000D02*
X27772936Y-105735000D01*
X64121925Y-71955002D02*
X64576053Y-71955002D01*
X64121925Y-70485002D02*
X64576053Y-70485002D01*
X60006871Y-53771529D02*
X60006871Y-53317401D01*
X61476871Y-53771529D02*
X61476871Y-53317401D01*
X38685420Y-49005148D02*
X38162916Y-49005148D01*
X38685420Y-50475148D02*
X38162916Y-50475148D01*
X48760748Y-95404000D02*
X49283252Y-95404000D01*
X48760748Y-96874000D02*
X49283252Y-96874000D01*
X61920988Y-53771529D02*
X61920988Y-53317401D01*
X63390988Y-53771529D02*
X63390988Y-53317401D01*
X42888187Y-95063945D02*
X42434059Y-95063945D01*
X42888187Y-93593945D02*
X42434059Y-93593945D01*
X55406234Y-67791064D02*
X55406234Y-67336936D01*
X56876234Y-67791064D02*
X56876234Y-67336936D01*
X44222936Y-62110500D02*
X44677064Y-62110500D01*
X44222936Y-63580500D02*
X44677064Y-63580500D01*
X31993000Y-31485000D02*
X31993000Y-31435000D01*
X31993000Y-33335000D02*
X31993000Y-31485000D01*
X33843000Y-33335000D02*
X31993000Y-33335000D01*
X33843000Y-31435000D02*
X33843000Y-33335000D01*
X31993000Y-31435000D02*
X33843000Y-31435000D01*
X72513158Y-104329556D02*
X72513158Y-105729556D01*
X73213158Y-106429556D02*
X73813158Y-106429556D01*
X73813158Y-103629556D02*
X73213158Y-103629556D01*
X74513158Y-105729556D02*
X74513158Y-104329556D01*
X73813158Y-106429556D02*
G75*
G03*
X74513158Y-105729556I0J700000D01*
G01*
X73213158Y-103629556D02*
G75*
G03*
X72513158Y-104329556I-1J-699999D01*
G01*
X74513158Y-104329556D02*
G75*
G03*
X73813158Y-103629556I-699999J1D01*
G01*
X72513158Y-105729556D02*
G75*
G03*
X73213158Y-106429556I700000J0D01*
G01*
X65355800Y-57961264D02*
X65355800Y-57507136D01*
X66825800Y-57961264D02*
X66825800Y-57507136D01*
X72501000Y-105729000D02*
X72501000Y-104329000D01*
X70501000Y-104329000D02*
X70501000Y-105729000D01*
X71201000Y-106429000D02*
X71801000Y-106429000D01*
X71801000Y-103629000D02*
X71201000Y-103629000D01*
X71201000Y-103629000D02*
G75*
G03*
X70501000Y-104329000I-1J-699999D01*
G01*
X70501000Y-105729000D02*
G75*
G03*
X71201000Y-106429000I700000J0D01*
G01*
X72501000Y-104329000D02*
G75*
G03*
X71801000Y-103629000I-699999J1D01*
G01*
X71801000Y-106429000D02*
G75*
G03*
X72501000Y-105729000I0J700000D01*
G01*
X57631000Y-46508936D02*
X57631000Y-46963064D01*
X56161000Y-46508936D02*
X56161000Y-46963064D01*
X41694622Y-86072426D02*
X41172118Y-86072426D01*
X41694622Y-84602426D02*
X41172118Y-84602426D01*
X35009064Y-29872000D02*
X34554936Y-29872000D01*
X35009064Y-31342000D02*
X34554936Y-31342000D01*
X41200000Y-74900000D02*
X41200000Y-73500000D01*
X39200000Y-73500000D02*
X39200000Y-74900000D01*
X39900000Y-75600000D02*
X40500000Y-75600000D01*
X40500000Y-72800000D02*
X39900000Y-72800000D01*
X40500000Y-75600000D02*
G75*
G03*
X41200000Y-74900000I1J699999D01*
G01*
X39200000Y-74900000D02*
G75*
G03*
X39900000Y-75600000I699999J-1D01*
G01*
X39900000Y-72800000D02*
G75*
G03*
X39200000Y-73500000I0J-700000D01*
G01*
X41200000Y-73500000D02*
G75*
G03*
X40500000Y-72800000I-700000J0D01*
G01*
D10*
X56345000Y-94615000D02*
X56345000Y-94135000D01*
X60495000Y-94615000D02*
X60495000Y-94135000D01*
X60495000Y-84455000D02*
X56345000Y-84455000D01*
X60495000Y-84455000D02*
X60495000Y-84935000D01*
X56345000Y-84455000D02*
X56345000Y-84935000D01*
X60495000Y-94615000D02*
X56345000Y-94615000D01*
X60495000Y-84935000D02*
X61620000Y-84935000D01*
D13*
X46946954Y-28922081D02*
X56646954Y-28922081D01*
X56646954Y-28922081D02*
X57346954Y-28822081D01*
X46946954Y-42722081D02*
X46946954Y-28922081D01*
X58346954Y-28522081D02*
X58646954Y-28222081D01*
X57946954Y-28722081D02*
X58346954Y-28522081D01*
X57346954Y-28822081D02*
X57946954Y-28722081D01*
X46946954Y-42722081D02*
X61646954Y-42722081D01*
X58646954Y-28222081D02*
X61646954Y-28222081D01*
X61646954Y-28222081D02*
X61646954Y-42722081D01*
D12*
X65344274Y-32489063D02*
X65344274Y-33011567D01*
X63874274Y-32489063D02*
X63874274Y-33011567D01*
X61432000Y-63500000D02*
X61432000Y-64150000D01*
X61432000Y-63500000D02*
X61432000Y-62850000D01*
X64552000Y-63500000D02*
X64552000Y-65175000D01*
X64552000Y-63500000D02*
X64552000Y-62850000D01*
X64388746Y-76064888D02*
X64388746Y-75414888D01*
X61268746Y-76064888D02*
X61268746Y-76714888D01*
X64388746Y-76064888D02*
X64388746Y-76714888D01*
X61268746Y-76064888D02*
X61268746Y-74389888D01*
X63213800Y-67266112D02*
X63213800Y-67788616D01*
X64683800Y-67266112D02*
X64683800Y-67788616D01*
X43730936Y-87911000D02*
X44185064Y-87911000D01*
X43730936Y-89381000D02*
X44185064Y-89381000D01*
X59324180Y-63328914D02*
X59324180Y-63783042D01*
X60794180Y-63328914D02*
X60794180Y-63783042D01*
X55233362Y-82018067D02*
X55233362Y-82540571D01*
X56703362Y-82018067D02*
X56703362Y-82540571D01*
X73106000Y-75314000D02*
X73706000Y-75314000D01*
X73706000Y-72514000D02*
X73106000Y-72514000D01*
X74406000Y-74614000D02*
X74406000Y-73214000D01*
X72406000Y-73214000D02*
X72406000Y-74614000D01*
X74406000Y-73214000D02*
G75*
G03*
X73706000Y-72514000I-699999J1D01*
G01*
X73706000Y-75314000D02*
G75*
G03*
X74406000Y-74614000I0J700000D01*
G01*
X72406000Y-74614000D02*
G75*
G03*
X73106000Y-75314000I700000J0D01*
G01*
X73106000Y-72514000D02*
G75*
G03*
X72406000Y-73214000I-1J-699999D01*
G01*
X55355109Y-75735494D02*
X55355109Y-76385494D01*
X58475109Y-75735494D02*
X58475109Y-75085494D01*
X58475109Y-75735494D02*
X58475109Y-77410494D01*
X55355109Y-75735494D02*
X55355109Y-75085494D01*
X58573936Y-98652000D02*
X59028064Y-98652000D01*
X58573936Y-97182000D02*
X59028064Y-97182000D01*
X68950000Y-110897936D02*
X68950000Y-111352064D01*
X67480000Y-110897936D02*
X67480000Y-111352064D01*
X57633598Y-53768173D02*
X57633598Y-53314045D01*
X56163598Y-53768173D02*
X56163598Y-53314045D01*
X27772936Y-107835000D02*
X28227064Y-107835000D01*
X27772936Y-106365000D02*
X28227064Y-106365000D01*
X77623936Y-96166000D02*
X78078064Y-96166000D01*
X77623936Y-97636000D02*
X78078064Y-97636000D01*
X55472869Y-59174748D02*
X55472869Y-59697252D01*
X56942869Y-59174748D02*
X56942869Y-59697252D01*
X55125252Y-95249343D02*
X54602748Y-95249343D01*
X55125252Y-96719343D02*
X54602748Y-96719343D01*
X64810555Y-59174748D02*
X64810555Y-59697252D01*
X63340555Y-59174748D02*
X63340555Y-59697252D01*
X44222936Y-61040500D02*
X44677064Y-61040500D01*
X44222936Y-59570500D02*
X44677064Y-59570500D01*
X39730816Y-38580000D02*
X39276688Y-38580000D01*
X39730816Y-37110000D02*
X39276688Y-37110000D01*
X39730816Y-41120000D02*
X39276688Y-41120000D01*
X39730816Y-39650000D02*
X39276688Y-39650000D01*
X63871046Y-97074159D02*
X63871046Y-95674159D01*
X63171046Y-94974159D02*
X62571046Y-94974159D01*
X62571046Y-97774159D02*
X63171046Y-97774159D01*
X61871046Y-95674159D02*
X61871046Y-97074159D01*
X62571046Y-94974159D02*
G75*
G03*
X61871046Y-95674159I0J-700000D01*
G01*
X63171046Y-97774159D02*
G75*
G03*
X63871046Y-97074159I1J699999D01*
G01*
X61871046Y-97074159D02*
G75*
G03*
X62571046Y-97774159I699999J-1D01*
G01*
X63871046Y-95674159D02*
G75*
G03*
X63171046Y-94974159I-700000J0D01*
G01*
X44222936Y-72270500D02*
X44677064Y-72270500D01*
X44222936Y-73740500D02*
X44677064Y-73740500D01*
X39730816Y-42190000D02*
X39276688Y-42190000D01*
X39730816Y-43660000D02*
X39276688Y-43660000D01*
X62755000Y-101973748D02*
X62755000Y-102496252D01*
X64225000Y-101973748D02*
X64225000Y-102496252D01*
X41724461Y-93109968D02*
X41201957Y-93109968D01*
X41724461Y-91639968D02*
X41201957Y-91639968D01*
X64107717Y-72403065D02*
X64561845Y-72403065D01*
X64107717Y-73873065D02*
X64561845Y-73873065D01*
X41094825Y-82372724D02*
X41617329Y-82372724D01*
X41094825Y-83842724D02*
X41617329Y-83842724D01*
X44222936Y-81360500D02*
X44677064Y-81360500D01*
X44222936Y-79890500D02*
X44677064Y-79890500D01*
X41810000Y-54429128D02*
X41810000Y-53975000D01*
X43280000Y-54429128D02*
X43280000Y-53975000D01*
X58076000Y-53768173D02*
X58076000Y-53314045D01*
X59546000Y-53768173D02*
X59546000Y-53314045D01*
X34554936Y-34771000D02*
X35009064Y-34771000D01*
X34554936Y-33301000D02*
X35009064Y-33301000D01*
X72533000Y-55942000D02*
X72533000Y-57342000D01*
X74533000Y-57342000D02*
X74533000Y-55942000D01*
X73833000Y-55242000D02*
X73233000Y-55242000D01*
X73233000Y-58042000D02*
X73833000Y-58042000D01*
X73233000Y-55242000D02*
G75*
G03*
X72533000Y-55942000I-1J-699999D01*
G01*
X74533000Y-55942000D02*
G75*
G03*
X73833000Y-55242000I-699999J1D01*
G01*
X73833000Y-58042000D02*
G75*
G03*
X74533000Y-57342000I0J700000D01*
G01*
X72533000Y-57342000D02*
G75*
G03*
X73233000Y-58042000I700000J0D01*
G01*
X44222936Y-66120500D02*
X44677064Y-66120500D01*
X44222936Y-64650500D02*
X44677064Y-64650500D01*
X71855000Y-97382064D02*
X71855000Y-96927936D01*
X70385000Y-97382064D02*
X70385000Y-96927936D01*
X39589512Y-62861367D02*
X40189512Y-62861367D01*
X40889512Y-62161367D02*
X40889512Y-60761367D01*
X38889512Y-60761367D02*
X38889512Y-62161367D01*
X40189512Y-60061367D02*
X39589512Y-60061367D01*
X40189512Y-62861367D02*
G75*
G03*
X40889512Y-62161367I1J699999D01*
G01*
X38889512Y-62161367D02*
G75*
G03*
X39589512Y-62861367I699999J-1D01*
G01*
X39589512Y-60061367D02*
G75*
G03*
X38889512Y-60761367I0J-700000D01*
G01*
X40889512Y-60761367D02*
G75*
G03*
X40189512Y-60061367I-700000J0D01*
G01*
X76935000Y-111352064D02*
X76935000Y-110897936D01*
X75465000Y-111352064D02*
X75465000Y-110897936D01*
X44222936Y-77350500D02*
X44677064Y-77350500D01*
X44222936Y-78820500D02*
X44677064Y-78820500D01*
X58860770Y-75462920D02*
X58860770Y-75917048D01*
X60330770Y-75462920D02*
X60330770Y-75917048D01*
X34772936Y-95265000D02*
X35227064Y-95265000D01*
X34772936Y-96735000D02*
X35227064Y-96735000D01*
X77623936Y-95350000D02*
X78078064Y-95350000D01*
X77623936Y-93880000D02*
X78078064Y-93880000D01*
X38889512Y-65800004D02*
X38889512Y-67200004D01*
X40189512Y-65100004D02*
X39589512Y-65100004D01*
X40889512Y-67200004D02*
X40889512Y-65800004D01*
X39589512Y-67900004D02*
X40189512Y-67900004D01*
X39589512Y-65100004D02*
G75*
G03*
X38889512Y-65800004I0J-700000D01*
G01*
X40889512Y-65800004D02*
G75*
G03*
X40189512Y-65100004I-700000J0D01*
G01*
X38889512Y-67200004D02*
G75*
G03*
X39589512Y-67900004I699999J-1D01*
G01*
X40189512Y-67900004D02*
G75*
G03*
X40889512Y-67200004I1J699999D01*
G01*
X64966947Y-63326283D02*
X64966947Y-63780411D01*
X66436947Y-63326283D02*
X66436947Y-63780411D01*
X34772936Y-91735000D02*
X35227064Y-91735000D01*
X34772936Y-90265000D02*
X35227064Y-90265000D01*
X29527064Y-95985000D02*
X29072936Y-95985000D01*
X29527064Y-94515000D02*
X29072936Y-94515000D01*
X64814418Y-76362438D02*
X64814418Y-75839934D01*
X66284418Y-76362438D02*
X66284418Y-75839934D01*
X66675193Y-82082932D02*
X66435193Y-82082932D01*
X63852193Y-79832932D02*
X61652193Y-79832932D01*
X59069193Y-81482932D02*
X59069193Y-82082932D01*
X63852193Y-83732932D02*
X63852193Y-83972932D01*
X61652193Y-83732932D02*
X63852193Y-83732932D01*
X66435193Y-82082932D02*
X66435193Y-81482932D01*
X44222936Y-76240500D02*
X44677064Y-76240500D01*
X44222936Y-74770500D02*
X44677064Y-74770500D01*
X61230275Y-67762648D02*
X61230275Y-67308520D01*
X62700275Y-67762648D02*
X62700275Y-67308520D01*
X60670000Y-71658621D02*
X56770000Y-71658621D01*
X60670000Y-71658621D02*
X60670000Y-73658621D01*
X60670000Y-73658621D02*
X56770000Y-73658621D01*
X66661063Y-67742588D02*
X66661063Y-67288460D01*
X65191063Y-67742588D02*
X65191063Y-67288460D01*
X29533918Y-96838448D02*
X29079790Y-96838448D01*
X29533918Y-98308448D02*
X29079790Y-98308448D01*
X61870000Y-94615000D02*
X59110000Y-94615000D01*
X64630000Y-84455000D02*
X64630000Y-84530000D01*
X64630000Y-84530000D02*
X66320000Y-84530000D01*
X64630000Y-94615000D02*
X64630000Y-94540000D01*
X61870000Y-84455000D02*
X64630000Y-84455000D01*
X59110000Y-94615000D02*
X59110000Y-94540000D01*
X61870000Y-94615000D02*
X64630000Y-94615000D01*
X61870000Y-84455000D02*
X59110000Y-84455000D01*
X59110000Y-84455000D02*
X59110000Y-84530000D01*
X39730816Y-36040000D02*
X39276688Y-36040000D01*
X39730816Y-34570000D02*
X39276688Y-34570000D01*
X58918336Y-63500000D02*
X58918336Y-65175000D01*
X55798336Y-63500000D02*
X55798336Y-62850000D01*
X58918336Y-63500000D02*
X58918336Y-62850000D01*
X55798336Y-63500000D02*
X55798336Y-64150000D01*
X73760000Y-97382064D02*
X73760000Y-96927936D01*
X72290000Y-97382064D02*
X72290000Y-96927936D01*
X57488241Y-59175748D02*
X57488241Y-59698252D01*
X58958241Y-59175748D02*
X58958241Y-59698252D01*
X59269588Y-67274332D02*
X59269588Y-67796836D01*
X60739588Y-67274332D02*
X60739588Y-67796836D01*
X65074646Y-97774159D02*
X65674646Y-97774159D01*
X65674646Y-94974159D02*
X65074646Y-94974159D01*
X66374646Y-97074159D02*
X66374646Y-95674159D01*
X64374646Y-95674159D02*
X64374646Y-97074159D01*
X65674646Y-97774159D02*
G75*
G03*
X66374646Y-97074159I1J699999D01*
G01*
X64374646Y-97074159D02*
G75*
G03*
X65074646Y-97774159I699999J-1D01*
G01*
X65074646Y-94974159D02*
G75*
G03*
X64374646Y-95674159I0J-700000D01*
G01*
X66374646Y-95674159D02*
G75*
G03*
X65674646Y-94974159I-700000J0D01*
G01*
X72925000Y-45873936D02*
X72925000Y-46328064D01*
X74395000Y-45873936D02*
X74395000Y-46328064D01*
X42438897Y-97016587D02*
X42893025Y-97016587D01*
X42438897Y-95546587D02*
X42893025Y-95546587D01*
D14*
X57346954Y-32622081D03*
X49346954Y-32622081D03*
%LPC*%
D15*
X51000000Y-100320000D03*
D16*
X53500000Y-100320000D03*
X55500000Y-100320000D03*
X58000000Y-100320000D03*
X51000000Y-102940000D03*
X53500000Y-102940000D03*
X55500000Y-102940000D03*
X58000000Y-102940000D03*
D17*
X61070000Y-105650000D03*
X47930000Y-99970000D03*
X61070000Y-99970000D03*
X47930000Y-105650000D03*
D18*
X79275000Y-85600000D03*
D19*
X76735000Y-85600000D03*
X79275000Y-83060000D03*
X76735000Y-83060000D03*
X79275000Y-80520000D03*
X76735000Y-80520000D03*
X79275000Y-77980000D03*
X76735000Y-77980000D03*
X79275000Y-75440000D03*
X76735000Y-75440000D03*
X79275000Y-72900000D03*
X76735000Y-72900000D03*
X79275000Y-70360000D03*
X76735000Y-70360000D03*
X79275000Y-67820000D03*
X76735000Y-67820000D03*
X79275000Y-65280000D03*
X76735000Y-65280000D03*
X79275000Y-62740000D03*
X76735000Y-62740000D03*
X79275000Y-60200000D03*
X76735000Y-60200000D03*
X79275000Y-57660000D03*
X76735000Y-57660000D03*
X79275000Y-55120000D03*
X76735000Y-55120000D03*
X79275000Y-52580000D03*
X76735000Y-52580000D03*
X79275000Y-50040000D03*
X76735000Y-50040000D03*
X79275000Y-47500000D03*
X76735000Y-47500000D03*
X79275000Y-44960000D03*
X76735000Y-44960000D03*
X79275000Y-42420000D03*
X76735000Y-42420000D03*
X79275000Y-39880000D03*
X76735000Y-39880000D03*
X79275000Y-37340000D03*
X76735000Y-37340000D03*
D15*
X69000000Y-100320000D03*
D16*
X71500000Y-100320000D03*
X73500000Y-100320000D03*
X76000000Y-100320000D03*
X69000000Y-102940000D03*
X71500000Y-102940000D03*
X73500000Y-102940000D03*
X76000000Y-102940000D03*
D17*
X79070000Y-99970000D03*
X79070000Y-105650000D03*
X65930000Y-99970000D03*
X65930000Y-105650000D03*
D20*
X35000000Y-53750000D03*
D21*
X29040000Y-53750000D03*
X29040000Y-68250000D03*
D20*
X35000000Y-68250000D03*
D16*
X63373000Y-78740000D03*
X58493000Y-78740000D03*
D18*
X37060000Y-107775000D03*
D22*
X34460000Y-107775000D03*
D23*
X42610000Y-110625000D03*
X28910000Y-110625000D03*
D24*
X35760000Y-111425000D03*
D22*
X39160000Y-107775000D03*
X32360000Y-107775000D03*
X39160000Y-104975000D03*
X32360000Y-104975000D03*
D16*
X34225000Y-82500000D03*
X27225000Y-82500000D03*
D25*
X31796800Y-79706000D03*
X28799600Y-79706000D03*
X36927600Y-85294000D03*
X35810000Y-79706000D03*
D18*
X46355000Y-52055000D03*
D19*
X46355000Y-49515000D03*
X46355000Y-46975000D03*
D26*
X46863993Y-70532185D03*
D18*
X46863000Y-83312000D03*
X68115199Y-38851995D03*
D19*
X68115199Y-41391995D03*
D18*
X70739000Y-38832000D03*
D19*
X70739000Y-41372000D03*
D18*
X73800000Y-107735000D03*
D22*
X71200000Y-107735000D03*
X75900000Y-107735000D03*
D23*
X65650000Y-110585000D03*
D24*
X72500000Y-111385000D03*
D23*
X79350000Y-110585000D03*
D22*
X69100000Y-107735000D03*
X75900000Y-104935000D03*
X69100000Y-104935000D03*
D26*
X45339000Y-55240000D03*
X45339000Y-57780000D03*
D18*
X35687000Y-74036000D03*
D19*
X35687000Y-76576000D03*
D18*
X27893220Y-101414607D03*
D19*
X30433220Y-101414607D03*
X32973220Y-101414607D03*
X35513220Y-101414607D03*
X38053220Y-101414607D03*
X40593220Y-101414607D03*
X43133220Y-101414607D03*
D27*
X31265000Y-36710000D03*
X31265000Y-42490000D03*
D28*
X27615000Y-43920000D03*
X27615000Y-35280000D03*
D29*
X31795000Y-43920000D03*
X31795000Y-35280000D03*
D30*
X27157000Y-42648000D03*
D31*
X29976400Y-42013000D03*
X29976400Y-37161600D03*
D30*
X27185000Y-36552000D03*
D18*
X41883562Y-32801695D03*
D19*
X41883562Y-35341695D03*
X41883562Y-37881695D03*
X41883562Y-40421695D03*
X41883562Y-42961695D03*
X41883562Y-45501695D03*
D26*
X46805921Y-90104293D03*
X46805921Y-92644293D03*
D32*
X30600331Y-73485000D03*
X30600331Y-48485000D03*
D33*
X32650331Y-65300000D03*
D34*
X32650331Y-63010000D03*
X32650331Y-60720000D03*
X32650331Y-58430000D03*
X32650331Y-56140000D03*
X30670331Y-66445000D03*
X30670331Y-64155000D03*
X30670331Y-61865000D03*
X30670331Y-59575000D03*
X30670331Y-57285000D03*
X28690331Y-65300000D03*
X28690331Y-63010000D03*
X28690331Y-60720000D03*
X28690331Y-58430000D03*
X28690331Y-56140000D03*
D35*
X52000000Y-45470000D03*
X52000000Y-48010000D03*
D36*
X52000000Y-50550000D03*
D35*
X52000000Y-53090000D03*
X52000000Y-55630000D03*
X52000000Y-58170000D03*
X52000000Y-60710000D03*
D36*
X52000000Y-63250000D03*
D35*
X52000000Y-65790000D03*
X52000000Y-68330000D03*
X52000000Y-70870000D03*
X52000000Y-73410000D03*
D36*
X52000000Y-75950000D03*
D35*
X52000000Y-78490000D03*
X52000000Y-81030000D03*
X52000000Y-83570000D03*
X52000000Y-86110000D03*
D36*
X52000000Y-88650000D03*
D35*
X52000000Y-91190000D03*
X52000000Y-93730000D03*
X69780000Y-93730000D03*
X69780000Y-91190000D03*
D36*
X69780000Y-88650000D03*
D35*
X69780000Y-86110000D03*
X69780000Y-83570000D03*
X69780000Y-81030000D03*
X69780000Y-78490000D03*
D36*
X69780000Y-75950000D03*
D35*
X69780000Y-73410000D03*
X69780000Y-70870000D03*
X69780000Y-68330000D03*
X69780000Y-65790000D03*
D36*
X69780000Y-63250000D03*
D35*
X69780000Y-60710000D03*
X69780000Y-58170000D03*
X69780000Y-55630000D03*
X69780000Y-53090000D03*
D36*
X69780000Y-50550000D03*
D35*
X69780000Y-48010000D03*
X69780000Y-45470000D03*
D18*
X62865000Y-111125000D03*
D19*
X62865000Y-108585000D03*
X38227000Y-76566000D03*
D18*
X38227000Y-74026000D03*
D19*
X38227000Y-71486000D03*
D18*
X71120000Y-33660000D03*
D19*
X71120000Y-31120000D03*
D37*
X58041723Y-68560516D03*
X58041723Y-66560516D03*
D38*
X60727500Y-96012000D03*
X58652500Y-96012000D03*
X40550000Y-45375000D03*
X38475000Y-45375000D03*
D22*
X42037000Y-67925500D03*
D39*
X43450000Y-67925500D03*
X45450000Y-67925500D03*
D22*
X46863000Y-67925500D03*
D37*
X64579971Y-54534598D03*
X64579971Y-52534598D03*
D40*
X61600156Y-58398500D03*
X61600156Y-60473500D03*
D41*
X29000000Y-105000000D03*
X27000000Y-105000000D03*
D39*
X63348989Y-71220002D03*
X65348989Y-71220002D03*
D37*
X60741871Y-54544465D03*
X60741871Y-52544465D03*
D38*
X39461668Y-49740148D03*
D42*
X40557768Y-49740148D03*
D38*
X37386668Y-49740148D03*
D42*
X36239768Y-49740148D03*
D43*
X47984500Y-96139000D03*
X50059500Y-96139000D03*
D37*
X62655988Y-54544465D03*
X62655988Y-52544465D03*
D41*
X43661123Y-94328945D03*
X41661123Y-94328945D03*
D37*
X56141234Y-68564000D03*
X56141234Y-66564000D03*
D39*
X43450000Y-62845500D03*
D22*
X42037000Y-62845500D03*
X46863000Y-62845500D03*
D39*
X45450000Y-62845500D03*
D22*
X32893000Y-32385000D03*
D44*
X73513158Y-104379556D03*
D45*
X73513158Y-105679556D03*
D37*
X66090800Y-58734200D03*
X66090800Y-56734200D03*
D44*
X71501000Y-104379000D03*
D45*
X71501000Y-105679000D03*
D46*
X56896000Y-45736000D03*
X56896000Y-47736000D03*
D38*
X42470870Y-85337426D03*
D42*
X43566970Y-85337426D03*
D38*
X40395870Y-85337426D03*
D42*
X39248970Y-85337426D03*
D41*
X35782000Y-30607000D03*
X33782000Y-30607000D03*
D47*
X40200000Y-74850000D03*
D48*
X40200000Y-73550000D03*
D49*
X61020000Y-85407500D03*
X61020000Y-86042500D03*
X61020000Y-86677500D03*
X61020000Y-87312500D03*
X61020000Y-87947500D03*
X61020000Y-88582500D03*
X61020000Y-89217500D03*
X61020000Y-89852500D03*
X61020000Y-90487500D03*
X61020000Y-91122500D03*
X61020000Y-91757500D03*
X61020000Y-92392500D03*
X61020000Y-93027500D03*
X61020000Y-93662500D03*
X55820000Y-93662500D03*
X55820000Y-93027500D03*
X55820000Y-92392500D03*
X55820000Y-91757500D03*
X55820000Y-91122500D03*
X55820000Y-90487500D03*
X55820000Y-89852500D03*
X55820000Y-89217500D03*
X55820000Y-88582500D03*
X55820000Y-87947500D03*
X55820000Y-87312500D03*
X55820000Y-86677500D03*
X55820000Y-86042500D03*
X55820000Y-85407500D03*
D14*
X57346954Y-32622081D03*
X49346954Y-32622081D03*
D50*
X56546954Y-43122081D03*
X55446954Y-43122081D03*
X54346954Y-43122081D03*
X53246954Y-43122081D03*
X52146954Y-43122081D03*
D51*
X46546954Y-33022081D03*
X62046954Y-32922081D03*
D52*
X46546954Y-42522081D03*
D53*
X61146954Y-42522081D03*
D50*
X51046954Y-43122081D03*
X49946954Y-43122081D03*
X48846954Y-43122081D03*
X47746954Y-43122081D03*
D54*
X64609274Y-30616715D03*
D40*
X64609274Y-31712815D03*
D54*
X64609274Y-34934715D03*
D40*
X64609274Y-33787815D03*
D55*
X63942000Y-64437500D03*
X62042000Y-64437500D03*
X62992000Y-62562500D03*
D56*
X61878746Y-75127388D03*
X63778746Y-75127388D03*
X62828746Y-77002388D03*
D40*
X63948800Y-66489864D03*
X63948800Y-68564864D03*
D39*
X42958000Y-88646000D03*
X44958000Y-88646000D03*
D46*
X60059180Y-62555978D03*
X60059180Y-64555978D03*
D40*
X55968362Y-81241819D03*
X55968362Y-83316819D03*
D44*
X73406000Y-73264000D03*
D45*
X73406000Y-74564000D03*
D55*
X57865109Y-76672994D03*
X55965109Y-76672994D03*
X56915109Y-74797994D03*
D39*
X57801000Y-97917000D03*
X59801000Y-97917000D03*
D46*
X68215000Y-110125000D03*
X68215000Y-112125000D03*
D37*
X56898598Y-54541109D03*
X56898598Y-52541109D03*
D39*
X27000000Y-107100000D03*
X29000000Y-107100000D03*
X76851000Y-96901000D03*
D18*
X75438000Y-96901000D03*
D22*
X80264000Y-96901000D03*
D39*
X78851000Y-96901000D03*
D40*
X56207869Y-58398500D03*
X56207869Y-60473500D03*
D38*
X55901500Y-95984343D03*
X53826500Y-95984343D03*
D40*
X64075555Y-58398500D03*
X64075555Y-60473500D03*
D39*
X43450000Y-60305500D03*
D22*
X42037000Y-60305500D03*
D39*
X45450000Y-60305500D03*
D22*
X46863000Y-60305500D03*
D41*
X40503752Y-37845000D03*
X38503752Y-37845000D03*
X40503752Y-40385000D03*
X38503752Y-40385000D03*
D47*
X62871046Y-97024159D03*
D48*
X62871046Y-95724159D03*
D22*
X42037000Y-73005500D03*
D39*
X43450000Y-73005500D03*
D22*
X46863000Y-73005500D03*
D39*
X45450000Y-73005500D03*
D41*
X40503752Y-42925000D03*
X38503752Y-42925000D03*
D40*
X63490000Y-101197500D03*
X63490000Y-103272500D03*
D42*
X43596809Y-92374968D03*
D38*
X42500709Y-92374968D03*
X40425709Y-92374968D03*
D42*
X39278809Y-92374968D03*
D39*
X63334781Y-73138065D03*
X65334781Y-73138065D03*
D43*
X40318577Y-83107724D03*
X42393577Y-83107724D03*
D22*
X42037000Y-80625500D03*
D39*
X43450000Y-80625500D03*
X45450000Y-80625500D03*
D22*
X46863000Y-80625500D03*
X42545000Y-56615064D03*
D37*
X42545000Y-55202064D03*
D22*
X42545000Y-51789064D03*
D37*
X42545000Y-53202064D03*
X58811000Y-54541109D03*
X58811000Y-52541109D03*
D39*
X33782000Y-34036000D03*
X35782000Y-34036000D03*
D44*
X73533000Y-55992000D03*
D45*
X73533000Y-57292000D03*
D39*
X43450000Y-65385500D03*
D22*
X42037000Y-65385500D03*
D39*
X45450000Y-65385500D03*
D22*
X46863000Y-65385500D03*
D37*
X71120000Y-98155000D03*
X71120000Y-96155000D03*
D47*
X39889512Y-62111367D03*
D48*
X39889512Y-60811367D03*
D37*
X76200000Y-112125000D03*
X76200000Y-110125000D03*
D22*
X42037000Y-78085500D03*
D39*
X43450000Y-78085500D03*
X45450000Y-78085500D03*
D22*
X46863000Y-78085500D03*
D46*
X59595770Y-74689984D03*
X59595770Y-76689984D03*
D39*
X34000000Y-96000000D03*
X36000000Y-96000000D03*
D18*
X75438000Y-94615000D03*
D39*
X76851000Y-94615000D03*
D22*
X80264000Y-94615000D03*
D39*
X78851000Y-94615000D03*
D47*
X39889512Y-67150004D03*
D48*
X39889512Y-65850004D03*
D46*
X65701947Y-62553347D03*
X65701947Y-64553347D03*
D39*
X34000000Y-91000000D03*
X36000000Y-91000000D03*
D41*
X30300000Y-95250000D03*
D18*
X31713000Y-95250000D03*
D22*
X26887000Y-95250000D03*
D41*
X28300000Y-95250000D03*
D57*
X65549418Y-77138686D03*
X65549418Y-75063686D03*
D58*
X64784193Y-82986932D03*
D59*
X60783693Y-82986932D03*
X60783693Y-80578932D03*
D58*
X64784193Y-80578932D03*
D39*
X43450000Y-75505500D03*
D22*
X42037000Y-75505500D03*
D39*
X45450000Y-75505500D03*
D22*
X46863000Y-75505500D03*
D37*
X61965275Y-68535584D03*
X61965275Y-66535584D03*
D60*
X59690000Y-72658621D03*
X57023000Y-72658621D03*
D37*
X65926063Y-68515524D03*
X65926063Y-66515524D03*
D18*
X31719854Y-97573448D03*
D41*
X30306854Y-97573448D03*
D22*
X26893854Y-97573448D03*
D41*
X28306854Y-97573448D03*
D61*
X65332500Y-85090000D03*
X65332500Y-86360000D03*
X65332500Y-87630000D03*
X65332500Y-88900000D03*
X65332500Y-90170000D03*
X65332500Y-91440000D03*
X65332500Y-92710000D03*
X65332500Y-93980000D03*
X58407500Y-93980000D03*
X58407500Y-92710000D03*
X58407500Y-91440000D03*
X58407500Y-90170000D03*
X58407500Y-88900000D03*
X58407500Y-87630000D03*
X58407500Y-86360000D03*
X58407500Y-85090000D03*
D41*
X40503752Y-35305000D03*
X38503752Y-35305000D03*
D55*
X58308336Y-64437500D03*
X56408336Y-64437500D03*
X57358336Y-62562500D03*
D37*
X73025000Y-98155000D03*
X73025000Y-96155000D03*
D40*
X58223241Y-58399500D03*
X58223241Y-60474500D03*
X60004588Y-66498084D03*
X60004588Y-68573084D03*
D47*
X65374646Y-97024159D03*
D48*
X65374646Y-95724159D03*
D46*
X73660000Y-45101000D03*
X73660000Y-47101000D03*
D39*
X41665961Y-96281587D03*
X43665961Y-96281587D03*
M02*
