M48
; DRILL file {KiCad 6.0.11-2627ca5db0~126~ubuntu20.04.1} date Ср 08 мая 2024 21:41:54
; FORMAT={-:-/ absolute / metric / decimal}
; #@! TF.CreationDate,2024-05-08T21:41:54+05:00
; #@! TF.GenerationSoftware,Kicad,Pcbnew,6.0.11-2627ca5db0~126~ubuntu20.04.1
; #@! TF.FileFunction,Plated,1,2,PTH
FMAT,2
METRIC
; #@! TA.AperFunction,Plated,PTH,ViaDrill
T1C0.500
; #@! TA.AperFunction,Plated,PTH,ComponentDrill
T2C0.600
; #@! TA.AperFunction,Plated,PTH,ComponentDrill
T3C0.650
; #@! TA.AperFunction,Plated,PTH,ComponentDrill
T4C0.800
; #@! TA.AperFunction,Plated,PTH,ComponentDrill
T5C0.900
; #@! TA.AperFunction,Plated,PTH,ComponentDrill
T6C0.920
; #@! TA.AperFunction,Plated,PTH,ComponentDrill
T7C1.000
; #@! TA.AperFunction,Plated,PTH,ComponentDrill
T8C1.200
; #@! TA.AperFunction,Plated,PTH,ComponentDrill
T9C2.300
; #@! TA.AperFunction,Plated,PTH,ComponentDrill
T10C3.200
%
G90
G05
T1
X30.099Y-82.677
X30.099Y-83.82
X30.705Y-53.75
X31.721Y-53.75
X33.401Y-70.231
X33.401Y-79.248
X33.655Y-89.535
X33.655Y-92.075
X33.655Y-94.488
X33.655Y-97.028
X34.131Y-40.631
X34.163Y-84.201
X34.19Y-39.067
X34.29Y-99.06
X34.417Y-70.231
X35.052Y-38.1
X35.433Y-51.689
X35.433Y-70.231
X35.646Y-81.956
X36.322Y-89.535
X36.322Y-92.456
X36.322Y-94.488
X36.322Y-97.409
X36.576Y-51.689
X36.957Y-83.185
X37.67Y-51.689
X37.973Y-29.972
X38.506Y-58.928
X38.862Y-94.949
X39.218Y-81.636
X39.243Y-79.502
X39.37Y-97.094
X39.37Y-99.949
X39.472Y-58.928
X39.728Y-94.949
X40.437Y-58.928
X40.593Y-94.949
X41.91Y-70.532
X42.875Y-30.15
X42.879Y-70.532
X43.661Y-94.329
X43.862Y-70.532
X44.058Y-90.538
X44.145Y-30.15
X44.44Y-71.854
X44.449Y-74.362
X44.831Y-34.163
X44.831Y-40.259
X44.831Y-41.656
X45.415Y-30.15
X46.228Y-36.525
X47.653Y-88.071
X47.984Y-97.049
X47.984Y-97.938
X48.387Y-40.64
X50.419Y-33.655
X51.0Y-104.594
X51.867Y-36.576
X52.451Y-32.512
X52.578Y-108.839
X53.213Y-40.005
X53.213Y-41.402
X53.594Y-108.839
X54.61Y-108.839
X55.625Y-59.186
X55.63Y-74.426
X56.434Y-98.108
X56.561Y-48.768
X56.624Y-94.576
X56.642Y-96.012
X56.896Y-80.264
X56.985Y-69.343
X57.15Y-59.817
X58.023Y-68.564
X58.039Y-104.775
X58.042Y-66.561
X58.048Y-106.29
X58.134Y-84.925
X58.42Y-32.639
X58.476Y-59.055
X58.646Y-96.005
X58.801Y-42.545
X58.928Y-91.44
X58.928Y-92.71
X58.979Y-87.63
X58.979Y-88.9
X59.108Y-82.932
X59.436Y-32.614
X59.817Y-42.545
X59.877Y-50.732
X59.939Y-56.319
X60.301Y-59.549
X61.064Y-36.73
X61.6Y-60.473
X61.925Y-78.588
X62.027Y-72.085
X62.078Y-84.938
X62.377Y-38.106
X62.635Y-36.036
X62.871Y-95.724
X62.885Y-69.827
X63.373Y-104.35
X64.059Y-37.389
X64.064Y-60.571
X64.175Y-62.889
X64.262Y-85.292
X64.262Y-86.53
X64.262Y-87.728
X64.262Y-88.928
X64.262Y-90.17
X64.262Y-91.44
X64.262Y-92.71
X64.262Y-93.98
X64.621Y-56.581
X64.784Y-80.579
X65.063Y-50.382
X65.375Y-95.724
X65.375Y-97.024
X65.549Y-77.139
X65.981Y-68.187
X66.091Y-58.734
X66.294Y-39.319
X66.382Y-56.734
X66.548Y-71.018
X66.548Y-72.252
X66.904Y-97.13
X68.618Y-95.707
X69.596Y-95.707
X70.219Y-35.495
X70.968Y-37.186
X71.12Y-98.155
X71.18Y-35.495
X71.755Y-42.926
X72.141Y-35.495
X73.498Y-50.587
X73.533Y-57.292
X73.711Y-93.726
X73.762Y-82.55
X73.762Y-86.004
X73.812Y-77.622
X73.824Y-72.344
X73.863Y-90.475
X73.965Y-84.01
X74.053Y-58.571
X74.549Y-109.601
X74.93Y-48.641
X75.248Y-66.142
T3
X29.976Y-37.162
X29.976Y-42.013
T4
X58.493Y-78.74
X63.373Y-78.74
T6
X51.0Y-100.32
X51.0Y-102.94
X53.5Y-100.32
X53.5Y-102.94
X55.5Y-100.32
X55.5Y-102.94
X58.0Y-100.32
X58.0Y-102.94
X69.0Y-100.32
X69.0Y-102.94
X71.5Y-100.32
X71.5Y-102.94
X73.5Y-100.32
X73.5Y-102.94
X76.0Y-100.32
X76.0Y-102.94
T7
X26.887Y-95.25
X26.894Y-97.573
X27.893Y-101.415
X28.69Y-56.14
X28.69Y-58.43
X28.69Y-60.72
X28.69Y-63.01
X28.69Y-65.3
X30.433Y-101.415
X30.67Y-57.285
X30.67Y-59.575
X30.67Y-61.865
X30.67Y-64.155
X30.67Y-66.445
X31.713Y-95.25
X31.72Y-97.573
X32.36Y-104.975
X32.36Y-107.775
X32.65Y-56.14
X32.65Y-58.43
X32.65Y-60.72
X32.65Y-63.01
X32.65Y-65.3
X32.893Y-32.385
X32.973Y-101.415
X34.46Y-107.775
X35.513Y-101.415
X35.687Y-74.036
X35.687Y-76.576
X36.24Y-49.74
X37.06Y-107.775
X38.053Y-101.415
X38.227Y-71.486
X38.227Y-74.026
X38.227Y-76.566
X39.16Y-104.975
X39.16Y-107.775
X39.249Y-85.337
X39.279Y-92.375
X40.558Y-49.74
X40.593Y-101.415
X41.884Y-32.802
X41.884Y-35.342
X41.884Y-37.882
X41.884Y-40.422
X41.884Y-42.962
X41.884Y-45.502
X42.037Y-60.305
X42.037Y-62.845
X42.037Y-65.385
X42.037Y-67.925
X42.037Y-73.005
X42.037Y-75.505
X42.037Y-78.085
X42.037Y-80.626
X42.545Y-51.789
X42.545Y-56.615
X43.133Y-101.415
X43.567Y-85.337
X43.597Y-92.375
X45.339Y-55.24
X45.339Y-57.78
X46.355Y-46.975
X46.355Y-49.515
X46.355Y-52.055
X46.806Y-90.104
X46.806Y-92.644
X46.863Y-60.305
X46.863Y-62.845
X46.863Y-65.385
X46.863Y-67.925
X46.863Y-73.005
X46.863Y-75.505
X46.863Y-78.085
X46.863Y-80.626
X46.863Y-83.312
X46.864Y-70.532
X52.0Y-45.47
X52.0Y-48.01
X52.0Y-50.55
X52.0Y-53.09
X52.0Y-55.63
X52.0Y-58.17
X52.0Y-60.71
X52.0Y-63.25
X52.0Y-65.79
X52.0Y-68.33
X52.0Y-70.87
X52.0Y-73.41
X52.0Y-75.95
X52.0Y-78.49
X52.0Y-81.03
X52.0Y-83.57
X52.0Y-86.11
X52.0Y-88.65
X52.0Y-91.19
X52.0Y-93.73
X62.865Y-108.585
X62.865Y-111.125
X64.609Y-30.617
X64.609Y-34.935
X68.115Y-38.852
X68.115Y-41.392
X69.1Y-104.935
X69.1Y-107.735
X69.78Y-45.47
X69.78Y-48.01
X69.78Y-50.55
X69.78Y-53.09
X69.78Y-55.63
X69.78Y-58.17
X69.78Y-60.71
X69.78Y-63.25
X69.78Y-65.79
X69.78Y-68.33
X69.78Y-70.87
X69.78Y-73.41
X69.78Y-75.95
X69.78Y-78.49
X69.78Y-81.03
X69.78Y-83.57
X69.78Y-86.11
X69.78Y-88.65
X69.78Y-91.19
X69.78Y-93.73
X70.739Y-38.832
X70.739Y-41.372
X71.12Y-31.12
X71.12Y-33.66
X71.2Y-107.735
X73.8Y-107.735
X75.438Y-94.615
X75.438Y-96.901
X75.9Y-104.935
X75.9Y-107.735
X76.735Y-37.34
X76.735Y-39.88
X76.735Y-42.42
X76.735Y-44.96
X76.735Y-47.5
X76.735Y-50.04
X76.735Y-52.58
X76.735Y-55.12
X76.735Y-57.66
X76.735Y-60.2
X76.735Y-62.74
X76.735Y-65.28
X76.735Y-67.82
X76.735Y-70.36
X76.735Y-72.9
X76.735Y-75.44
X76.735Y-77.98
X76.735Y-80.52
X76.735Y-83.06
X76.735Y-85.6
X79.275Y-37.34
X79.275Y-39.88
X79.275Y-42.42
X79.275Y-44.96
X79.275Y-47.5
X79.275Y-50.04
X79.275Y-52.58
X79.275Y-55.12
X79.275Y-57.66
X79.275Y-60.2
X79.275Y-62.74
X79.275Y-65.28
X79.275Y-67.82
X79.275Y-70.36
X79.275Y-72.9
X79.275Y-75.44
X79.275Y-77.98
X79.275Y-80.52
X79.275Y-83.06
X79.275Y-85.6
X80.264Y-94.615
X80.264Y-96.901
T9
X47.93Y-99.97
X47.93Y-105.65
X61.07Y-99.97
X61.07Y-105.65
X65.93Y-99.97
X65.93Y-105.65
X79.07Y-99.97
X79.07Y-105.65
T10
X30.6Y-48.485
X30.6Y-73.485
T2
X27.915Y-35.28G85X27.315Y-35.28
G05
X27.915Y-43.92G85X27.315Y-43.92
G05
X32.345Y-35.28G85X31.245Y-35.28
G05
X32.345Y-43.92G85X31.245Y-43.92
G05
T5
X29.44Y-53.75G85X28.64Y-53.75
G05
X29.44Y-68.25G85X28.64Y-68.25
G05
X35.9Y-53.75G85X34.1Y-53.75
G05
X35.9Y-68.25G85X34.1Y-68.25
G05
T7
X28.65Y-79.706G85X28.95Y-79.706
G05
X28.91Y-109.875G85X28.91Y-111.375
G05
X31.647Y-79.706G85X31.947Y-79.706
G05
X34.76Y-111.425G85X36.76Y-111.425
G05
X35.66Y-79.706G85X35.96Y-79.706
G05
X36.778Y-85.294G85X37.078Y-85.294
G05
X42.61Y-109.875G85X42.61Y-111.375
G05
X65.65Y-109.835G85X65.65Y-111.335
G05
X71.5Y-111.385G85X73.5Y-111.385
G05
X79.35Y-109.835G85X79.35Y-111.335
G05
T8
X27.157Y-42.548G85X27.157Y-42.748
G05
X27.185Y-36.452G85X27.185Y-36.652
G05
T0
M30
