G04 #@! TF.GenerationSoftware,KiCad,Pcbnew,6.0.11-2627ca5db0~126~ubuntu20.04.1*
G04 #@! TF.CreationDate,2024-05-08T21:41:51+05:00*
G04 #@! TF.ProjectId,19RPI24,31395250-4932-4342-9e6b-696361645f70,rev?*
G04 #@! TF.SameCoordinates,Original*
G04 #@! TF.FileFunction,Soldermask,Bot*
G04 #@! TF.FilePolarity,Negative*
%FSLAX46Y46*%
G04 Gerber Fmt 4.6, Leading zero omitted, Abs format (unit mm)*
G04 Created by KiCad (PCBNEW 6.0.11-2627ca5db0~126~ubuntu20.04.1) date 2024-05-08 21:41:51*
%MOMM*%
%LPD*%
G01*
G04 APERTURE LIST*
G04 Aperture macros list*
%AMRoundRect*
0 Rectangle with rounded corners*
0 $1 Rounding radius*
0 $2 $3 $4 $5 $6 $7 $8 $9 X,Y pos of 4 corners*
0 Add a 4 corners polygon primitive as box body*
4,1,4,$2,$3,$4,$5,$6,$7,$8,$9,$2,$3,0*
0 Add four circle primitives for the rounded corners*
1,1,$1+$1,$2,$3*
1,1,$1+$1,$4,$5*
1,1,$1+$1,$6,$7*
1,1,$1+$1,$8,$9*
0 Add four rect primitives between the rounded corners*
20,1,$1+$1,$2,$3,$4,$5,0*
20,1,$1+$1,$4,$5,$6,$7,0*
20,1,$1+$1,$6,$7,$8,$9,0*
20,1,$1+$1,$8,$9,$2,$3,0*%
%AMFreePoly0*
4,1,31,0.278115,0.855951,0.450000,0.779423,0.602218,0.668830,0.728115,0.529007,0.822191,0.366063,0.880333,0.187121,0.900000,0.000000,0.880333,-0.187121,0.822191,-0.366063,0.728115,-0.529007,0.602218,-0.668830,0.450000,-0.779423,0.278115,-0.855951,0.094076,-0.895070,-0.094076,-0.895070,-0.278115,-0.855951,-0.450000,-0.779423,-0.602218,-0.668830,-0.728115,-0.529007,-0.822191,-0.366063,
-0.880333,-0.187121,-0.900000,0.000000,-0.880333,0.187121,-0.822191,0.366063,-0.728115,0.529007,-0.602218,0.668830,-0.450000,0.779423,-0.278115,0.855951,-0.094076,0.895070,0.094076,0.895070,0.278115,0.855951,0.278115,0.855951,$1*%
%AMFreePoly1*
4,1,22,0.500000,-0.750000,0.000000,-0.750000,0.000000,-0.745033,-0.079941,-0.743568,-0.215256,-0.701293,-0.333266,-0.622738,-0.424486,-0.514219,-0.481581,-0.384460,-0.499164,-0.250000,-0.500000,-0.250000,-0.500000,0.250000,-0.499164,0.250000,-0.499963,0.256109,-0.478152,0.396186,-0.417904,0.524511,-0.324060,0.630769,-0.204165,0.706417,-0.067858,0.745374,0.000000,0.744959,0.000000,0.750000,
0.500000,0.750000,0.500000,-0.750000,0.500000,-0.750000,$1*%
%AMFreePoly2*
4,1,20,0.000000,0.744959,0.073905,0.744508,0.209726,0.703889,0.328688,0.626782,0.421226,0.519385,0.479903,0.390333,0.500000,0.250000,0.500000,-0.250000,0.499851,-0.262216,0.476331,-0.402017,0.414519,-0.529596,0.319384,-0.634700,0.198574,-0.708877,0.061801,-0.746166,0.000000,-0.745033,0.000000,-0.750000,-0.500000,-0.750000,-0.500000,0.750000,0.000000,0.750000,0.000000,0.744959,
0.000000,0.744959,$1*%
G04 Aperture macros list end*
%ADD10R,1.500000X1.500000*%
%ADD11C,1.500000*%
%ADD12C,3.000000*%
%ADD13R,1.700000X1.700000*%
%ADD14O,1.700000X1.700000*%
%ADD15RoundRect,0.350000X-1.300000X0.350000X-1.300000X-0.350000X1.300000X-0.350000X1.300000X0.350000X0*%
%ADD16RoundRect,0.350000X-0.700000X0.350000X-0.700000X-0.350000X0.700000X-0.350000X0.700000X0.350000X0*%
%ADD17C,1.700000*%
%ADD18O,2.000000X3.500000*%
%ADD19O,4.000000X2.000000*%
%ADD20RoundRect,0.350000X-0.450000X-0.350000X0.450000X-0.350000X0.450000X0.350000X-0.450000X0.350000X0*%
%ADD21C,1.800000*%
%ADD22C,0.650000*%
%ADD23O,1.600000X1.000000*%
%ADD24O,2.100000X1.000000*%
%ADD25O,1.700000X2.000000*%
%ADD26O,1.100000X1.100000*%
%ADD27RoundRect,1.000000X-1.000000X1.500000X-1.000000X-1.500000X1.000000X-1.500000X1.000000X1.500000X0*%
%ADD28R,1.600000X1.600000*%
%ADD29C,1.600000*%
%ADD30O,5.000000X1.600000*%
%ADD31RoundRect,0.400000X-2.100000X-0.400000X2.100000X-0.400000X2.100000X0.400000X-2.100000X0.400000X0*%
%ADD32RoundRect,0.250000X0.450000X-0.350000X0.450000X0.350000X-0.450000X0.350000X-0.450000X-0.350000X0*%
%ADD33RoundRect,0.250000X0.337500X0.475000X-0.337500X0.475000X-0.337500X-0.475000X0.337500X-0.475000X0*%
%ADD34RoundRect,0.250000X-0.350000X-0.450000X0.350000X-0.450000X0.350000X0.450000X-0.350000X0.450000X0*%
%ADD35RoundRect,0.250000X-0.475000X0.337500X-0.475000X-0.337500X0.475000X-0.337500X0.475000X0.337500X0*%
%ADD36RoundRect,0.250000X0.350000X0.450000X-0.350000X0.450000X-0.350000X-0.450000X0.350000X-0.450000X0*%
%ADD37FreePoly0,180.000000*%
%ADD38RoundRect,0.250000X-0.337500X-0.475000X0.337500X-0.475000X0.337500X0.475000X-0.337500X0.475000X0*%
%ADD39FreePoly1,270.000000*%
%ADD40FreePoly2,270.000000*%
%ADD41RoundRect,0.250000X-0.450000X0.350000X-0.450000X-0.350000X0.450000X-0.350000X0.450000X0.350000X0*%
%ADD42FreePoly1,90.000000*%
%ADD43FreePoly2,90.000000*%
%ADD44R,1.200000X0.400000*%
%ADD45C,1.000000*%
%ADD46R,0.700000X1.600000*%
%ADD47R,1.200000X2.200000*%
%ADD48R,1.200000X1.400000*%
%ADD49R,1.600000X1.400000*%
%ADD50FreePoly0,270.000000*%
%ADD51RoundRect,0.150000X0.150000X-0.587500X0.150000X0.587500X-0.150000X0.587500X-0.150000X-0.587500X0*%
%ADD52RoundRect,0.150000X-0.150000X0.587500X-0.150000X-0.587500X0.150000X-0.587500X0.150000X0.587500X0*%
%ADD53RoundRect,0.250000X0.475000X-0.337500X0.475000X0.337500X-0.475000X0.337500X-0.475000X-0.337500X0*%
%ADD54R,3.048000X1.392000*%
%ADD55R,2.921000X1.392000*%
%ADD56R,1.600000X1.200000*%
%ADD57RoundRect,0.150000X0.837500X0.150000X-0.837500X0.150000X-0.837500X-0.150000X0.837500X-0.150000X0*%
G04 APERTURE END LIST*
D10*
X51000000Y-100320000D03*
D11*
X53500000Y-100320000D03*
X55500000Y-100320000D03*
X58000000Y-100320000D03*
X51000000Y-102940000D03*
X53500000Y-102940000D03*
X55500000Y-102940000D03*
X58000000Y-102940000D03*
D12*
X61070000Y-105650000D03*
X47930000Y-99970000D03*
X61070000Y-99970000D03*
X47930000Y-105650000D03*
D13*
X79275000Y-85600000D03*
D14*
X76735000Y-85600000D03*
X79275000Y-83060000D03*
X76735000Y-83060000D03*
X79275000Y-80520000D03*
X76735000Y-80520000D03*
X79275000Y-77980000D03*
X76735000Y-77980000D03*
X79275000Y-75440000D03*
X76735000Y-75440000D03*
X79275000Y-72900000D03*
X76735000Y-72900000D03*
X79275000Y-70360000D03*
X76735000Y-70360000D03*
X79275000Y-67820000D03*
X76735000Y-67820000D03*
X79275000Y-65280000D03*
X76735000Y-65280000D03*
X79275000Y-62740000D03*
X76735000Y-62740000D03*
X79275000Y-60200000D03*
X76735000Y-60200000D03*
X79275000Y-57660000D03*
X76735000Y-57660000D03*
X79275000Y-55120000D03*
X76735000Y-55120000D03*
X79275000Y-52580000D03*
X76735000Y-52580000D03*
X79275000Y-50040000D03*
X76735000Y-50040000D03*
X79275000Y-47500000D03*
X76735000Y-47500000D03*
X79275000Y-44960000D03*
X76735000Y-44960000D03*
X79275000Y-42420000D03*
X76735000Y-42420000D03*
X79275000Y-39880000D03*
X76735000Y-39880000D03*
X79275000Y-37340000D03*
X76735000Y-37340000D03*
D10*
X69000000Y-100320000D03*
D11*
X71500000Y-100320000D03*
X73500000Y-100320000D03*
X76000000Y-100320000D03*
X69000000Y-102940000D03*
X71500000Y-102940000D03*
X73500000Y-102940000D03*
X76000000Y-102940000D03*
D12*
X79070000Y-99970000D03*
X79070000Y-105650000D03*
X65930000Y-99970000D03*
X65930000Y-105650000D03*
D15*
X35000000Y-53750000D03*
D16*
X29040000Y-53750000D03*
X29040000Y-68250000D03*
D15*
X35000000Y-68250000D03*
D11*
X63373000Y-78740000D03*
X58493000Y-78740000D03*
D13*
X37060000Y-107775000D03*
D17*
X34460000Y-107775000D03*
D18*
X42610000Y-110625000D03*
X28910000Y-110625000D03*
D19*
X35760000Y-111425000D03*
D17*
X39160000Y-107775000D03*
X32360000Y-107775000D03*
X39160000Y-104975000D03*
X32360000Y-104975000D03*
D11*
X34225000Y-82500000D03*
X27225000Y-82500000D03*
D20*
X31796800Y-79706000D03*
X28799600Y-79706000D03*
X36927600Y-85294000D03*
X35810000Y-79706000D03*
D13*
X46355000Y-52055000D03*
D14*
X46355000Y-49515000D03*
X46355000Y-46975000D03*
D21*
X46863993Y-70532185D03*
D13*
X46863000Y-83312000D03*
X68115199Y-38851995D03*
D14*
X68115199Y-41391995D03*
D13*
X70739000Y-38832000D03*
D14*
X70739000Y-41372000D03*
D13*
X73800000Y-107735000D03*
D17*
X71200000Y-107735000D03*
X75900000Y-107735000D03*
D18*
X65650000Y-110585000D03*
D19*
X72500000Y-111385000D03*
D18*
X79350000Y-110585000D03*
D17*
X69100000Y-107735000D03*
X75900000Y-104935000D03*
X69100000Y-104935000D03*
D21*
X45339000Y-55240000D03*
X45339000Y-57780000D03*
D13*
X35687000Y-74036000D03*
D14*
X35687000Y-76576000D03*
D13*
X27893220Y-101414607D03*
D14*
X30433220Y-101414607D03*
X32973220Y-101414607D03*
X35513220Y-101414607D03*
X38053220Y-101414607D03*
X40593220Y-101414607D03*
X43133220Y-101414607D03*
D22*
X31265000Y-36710000D03*
X31265000Y-42490000D03*
D23*
X27615000Y-43920000D03*
X27615000Y-35280000D03*
D24*
X31795000Y-43920000D03*
X31795000Y-35280000D03*
D25*
X27157000Y-42648000D03*
D26*
X29976400Y-42013000D03*
X29976400Y-37161600D03*
D25*
X27185000Y-36552000D03*
D13*
X41883562Y-32801695D03*
D14*
X41883562Y-35341695D03*
X41883562Y-37881695D03*
X41883562Y-40421695D03*
X41883562Y-42961695D03*
X41883562Y-45501695D03*
D21*
X46805921Y-90104293D03*
X46805921Y-92644293D03*
D27*
X30600331Y-73485000D03*
X30600331Y-48485000D03*
D28*
X32650331Y-65300000D03*
D29*
X32650331Y-63010000D03*
X32650331Y-60720000D03*
X32650331Y-58430000D03*
X32650331Y-56140000D03*
X30670331Y-66445000D03*
X30670331Y-64155000D03*
X30670331Y-61865000D03*
X30670331Y-59575000D03*
X30670331Y-57285000D03*
X28690331Y-65300000D03*
X28690331Y-63010000D03*
X28690331Y-60720000D03*
X28690331Y-58430000D03*
X28690331Y-56140000D03*
D30*
X52000000Y-45470000D03*
X52000000Y-48010000D03*
D31*
X52000000Y-50550000D03*
D30*
X52000000Y-53090000D03*
X52000000Y-55630000D03*
X52000000Y-58170000D03*
X52000000Y-60710000D03*
D31*
X52000000Y-63250000D03*
D30*
X52000000Y-65790000D03*
X52000000Y-68330000D03*
X52000000Y-70870000D03*
X52000000Y-73410000D03*
D31*
X52000000Y-75950000D03*
D30*
X52000000Y-78490000D03*
X52000000Y-81030000D03*
X52000000Y-83570000D03*
X52000000Y-86110000D03*
D31*
X52000000Y-88650000D03*
D30*
X52000000Y-91190000D03*
X52000000Y-93730000D03*
X69780000Y-93730000D03*
X69780000Y-91190000D03*
D31*
X69780000Y-88650000D03*
D30*
X69780000Y-86110000D03*
X69780000Y-83570000D03*
X69780000Y-81030000D03*
X69780000Y-78490000D03*
D31*
X69780000Y-75950000D03*
D30*
X69780000Y-73410000D03*
X69780000Y-70870000D03*
X69780000Y-68330000D03*
X69780000Y-65790000D03*
D31*
X69780000Y-63250000D03*
D30*
X69780000Y-60710000D03*
X69780000Y-58170000D03*
X69780000Y-55630000D03*
X69780000Y-53090000D03*
D31*
X69780000Y-50550000D03*
D30*
X69780000Y-48010000D03*
X69780000Y-45470000D03*
D13*
X62865000Y-111125000D03*
D14*
X62865000Y-108585000D03*
X38227000Y-76566000D03*
D13*
X38227000Y-74026000D03*
D14*
X38227000Y-71486000D03*
D13*
X71120000Y-33660000D03*
D14*
X71120000Y-31120000D03*
D32*
X58041723Y-68560516D03*
X58041723Y-66560516D03*
D33*
X60727500Y-96012000D03*
X58652500Y-96012000D03*
X40550000Y-45375000D03*
X38475000Y-45375000D03*
D17*
X42037000Y-67925500D03*
D34*
X43450000Y-67925500D03*
X45450000Y-67925500D03*
D17*
X46863000Y-67925500D03*
D32*
X64579971Y-54534598D03*
X64579971Y-52534598D03*
D35*
X61600156Y-58398500D03*
X61600156Y-60473500D03*
D36*
X29000000Y-105000000D03*
X27000000Y-105000000D03*
D34*
X63348989Y-71220002D03*
X65348989Y-71220002D03*
D32*
X60741871Y-54544465D03*
X60741871Y-52544465D03*
D33*
X39461668Y-49740148D03*
D37*
X40557768Y-49740148D03*
D33*
X37386668Y-49740148D03*
D37*
X36239768Y-49740148D03*
D38*
X47984500Y-96139000D03*
X50059500Y-96139000D03*
D32*
X62655988Y-54544465D03*
X62655988Y-52544465D03*
D36*
X43661123Y-94328945D03*
X41661123Y-94328945D03*
D32*
X56141234Y-68564000D03*
X56141234Y-66564000D03*
D34*
X43450000Y-62845500D03*
D17*
X42037000Y-62845500D03*
X46863000Y-62845500D03*
D34*
X45450000Y-62845500D03*
D17*
X32893000Y-32385000D03*
D39*
X73513158Y-104379556D03*
D40*
X73513158Y-105679556D03*
D32*
X66090800Y-58734200D03*
X66090800Y-56734200D03*
D39*
X71501000Y-104379000D03*
D40*
X71501000Y-105679000D03*
D41*
X56896000Y-45736000D03*
X56896000Y-47736000D03*
D33*
X42470870Y-85337426D03*
D37*
X43566970Y-85337426D03*
D33*
X40395870Y-85337426D03*
D37*
X39248970Y-85337426D03*
D36*
X35782000Y-30607000D03*
X33782000Y-30607000D03*
D42*
X40200000Y-74850000D03*
D43*
X40200000Y-73550000D03*
D44*
X61020000Y-85407500D03*
X61020000Y-86042500D03*
X61020000Y-86677500D03*
X61020000Y-87312500D03*
X61020000Y-87947500D03*
X61020000Y-88582500D03*
X61020000Y-89217500D03*
X61020000Y-89852500D03*
X61020000Y-90487500D03*
X61020000Y-91122500D03*
X61020000Y-91757500D03*
X61020000Y-92392500D03*
X61020000Y-93027500D03*
X61020000Y-93662500D03*
X55820000Y-93662500D03*
X55820000Y-93027500D03*
X55820000Y-92392500D03*
X55820000Y-91757500D03*
X55820000Y-91122500D03*
X55820000Y-90487500D03*
X55820000Y-89852500D03*
X55820000Y-89217500D03*
X55820000Y-88582500D03*
X55820000Y-87947500D03*
X55820000Y-87312500D03*
X55820000Y-86677500D03*
X55820000Y-86042500D03*
X55820000Y-85407500D03*
D45*
X57346954Y-32622081D03*
X49346954Y-32622081D03*
D46*
X56546954Y-43122081D03*
X55446954Y-43122081D03*
X54346954Y-43122081D03*
X53246954Y-43122081D03*
X52146954Y-43122081D03*
D47*
X46546954Y-33022081D03*
X62046954Y-32922081D03*
D48*
X46546954Y-42522081D03*
D49*
X61146954Y-42522081D03*
D46*
X51046954Y-43122081D03*
X49946954Y-43122081D03*
X48846954Y-43122081D03*
X47746954Y-43122081D03*
D50*
X64609274Y-30616715D03*
D35*
X64609274Y-31712815D03*
D50*
X64609274Y-34934715D03*
D35*
X64609274Y-33787815D03*
D51*
X63942000Y-64437500D03*
X62042000Y-64437500D03*
X62992000Y-62562500D03*
D52*
X61878746Y-75127388D03*
X63778746Y-75127388D03*
X62828746Y-77002388D03*
D35*
X63948800Y-66489864D03*
X63948800Y-68564864D03*
D34*
X42958000Y-88646000D03*
X44958000Y-88646000D03*
D41*
X60059180Y-62555978D03*
X60059180Y-64555978D03*
D35*
X55968362Y-81241819D03*
X55968362Y-83316819D03*
D39*
X73406000Y-73264000D03*
D40*
X73406000Y-74564000D03*
D51*
X57865109Y-76672994D03*
X55965109Y-76672994D03*
X56915109Y-74797994D03*
D34*
X57801000Y-97917000D03*
X59801000Y-97917000D03*
D41*
X68215000Y-110125000D03*
X68215000Y-112125000D03*
D32*
X56898598Y-54541109D03*
X56898598Y-52541109D03*
D34*
X27000000Y-107100000D03*
X29000000Y-107100000D03*
X76851000Y-96901000D03*
D13*
X75438000Y-96901000D03*
D17*
X80264000Y-96901000D03*
D34*
X78851000Y-96901000D03*
D35*
X56207869Y-58398500D03*
X56207869Y-60473500D03*
D33*
X55901500Y-95984343D03*
X53826500Y-95984343D03*
D35*
X64075555Y-58398500D03*
X64075555Y-60473500D03*
D34*
X43450000Y-60305500D03*
D17*
X42037000Y-60305500D03*
D34*
X45450000Y-60305500D03*
D17*
X46863000Y-60305500D03*
D36*
X40503752Y-37845000D03*
X38503752Y-37845000D03*
X40503752Y-40385000D03*
X38503752Y-40385000D03*
D42*
X62871046Y-97024159D03*
D43*
X62871046Y-95724159D03*
D17*
X42037000Y-73005500D03*
D34*
X43450000Y-73005500D03*
D17*
X46863000Y-73005500D03*
D34*
X45450000Y-73005500D03*
D36*
X40503752Y-42925000D03*
X38503752Y-42925000D03*
D35*
X63490000Y-101197500D03*
X63490000Y-103272500D03*
D37*
X43596809Y-92374968D03*
D33*
X42500709Y-92374968D03*
X40425709Y-92374968D03*
D37*
X39278809Y-92374968D03*
D34*
X63334781Y-73138065D03*
X65334781Y-73138065D03*
D38*
X40318577Y-83107724D03*
X42393577Y-83107724D03*
D17*
X42037000Y-80625500D03*
D34*
X43450000Y-80625500D03*
X45450000Y-80625500D03*
D17*
X46863000Y-80625500D03*
X42545000Y-56615064D03*
D32*
X42545000Y-55202064D03*
D17*
X42545000Y-51789064D03*
D32*
X42545000Y-53202064D03*
X58811000Y-54541109D03*
X58811000Y-52541109D03*
D34*
X33782000Y-34036000D03*
X35782000Y-34036000D03*
D39*
X73533000Y-55992000D03*
D40*
X73533000Y-57292000D03*
D34*
X43450000Y-65385500D03*
D17*
X42037000Y-65385500D03*
D34*
X45450000Y-65385500D03*
D17*
X46863000Y-65385500D03*
D32*
X71120000Y-98155000D03*
X71120000Y-96155000D03*
D42*
X39889512Y-62111367D03*
D43*
X39889512Y-60811367D03*
D32*
X76200000Y-112125000D03*
X76200000Y-110125000D03*
D17*
X42037000Y-78085500D03*
D34*
X43450000Y-78085500D03*
X45450000Y-78085500D03*
D17*
X46863000Y-78085500D03*
D41*
X59595770Y-74689984D03*
X59595770Y-76689984D03*
D34*
X34000000Y-96000000D03*
X36000000Y-96000000D03*
D13*
X75438000Y-94615000D03*
D34*
X76851000Y-94615000D03*
D17*
X80264000Y-94615000D03*
D34*
X78851000Y-94615000D03*
D42*
X39889512Y-67150004D03*
D43*
X39889512Y-65850004D03*
D41*
X65701947Y-62553347D03*
X65701947Y-64553347D03*
D34*
X34000000Y-91000000D03*
X36000000Y-91000000D03*
D36*
X30300000Y-95250000D03*
D13*
X31713000Y-95250000D03*
D17*
X26887000Y-95250000D03*
D36*
X28300000Y-95250000D03*
D53*
X65549418Y-77138686D03*
X65549418Y-75063686D03*
D54*
X64784193Y-82986932D03*
D55*
X60783693Y-82986932D03*
X60783693Y-80578932D03*
D54*
X64784193Y-80578932D03*
D34*
X43450000Y-75505500D03*
D17*
X42037000Y-75505500D03*
D34*
X45450000Y-75505500D03*
D17*
X46863000Y-75505500D03*
D32*
X61965275Y-68535584D03*
X61965275Y-66535584D03*
D56*
X59690000Y-72658621D03*
X57023000Y-72658621D03*
D32*
X65926063Y-68515524D03*
X65926063Y-66515524D03*
D13*
X31719854Y-97573448D03*
D36*
X30306854Y-97573448D03*
D17*
X26893854Y-97573448D03*
D36*
X28306854Y-97573448D03*
D57*
X65332500Y-85090000D03*
X65332500Y-86360000D03*
X65332500Y-87630000D03*
X65332500Y-88900000D03*
X65332500Y-90170000D03*
X65332500Y-91440000D03*
X65332500Y-92710000D03*
X65332500Y-93980000D03*
X58407500Y-93980000D03*
X58407500Y-92710000D03*
X58407500Y-91440000D03*
X58407500Y-90170000D03*
X58407500Y-88900000D03*
X58407500Y-87630000D03*
X58407500Y-86360000D03*
X58407500Y-85090000D03*
D36*
X40503752Y-35305000D03*
X38503752Y-35305000D03*
D51*
X58308336Y-64437500D03*
X56408336Y-64437500D03*
X57358336Y-62562500D03*
D32*
X73025000Y-98155000D03*
X73025000Y-96155000D03*
D35*
X58223241Y-58399500D03*
X58223241Y-60474500D03*
X60004588Y-66498084D03*
X60004588Y-68573084D03*
D42*
X65374646Y-97024159D03*
D43*
X65374646Y-95724159D03*
D41*
X73660000Y-45101000D03*
X73660000Y-47101000D03*
D34*
X41665961Y-96281587D03*
X43665961Y-96281587D03*
M02*
