G04 #@! TF.GenerationSoftware,KiCad,Pcbnew,6.0.11-2627ca5db0~126~ubuntu20.04.1*
G04 #@! TF.CreationDate,2024-04-17T12:53:05+05:00*
G04 #@! TF.ProjectId,16RPI24,31365250-4932-4342-9e6b-696361645f70,rev?*
G04 #@! TF.SameCoordinates,Original*
G04 #@! TF.FileFunction,Paste,Top*
G04 #@! TF.FilePolarity,Positive*
%FSLAX46Y46*%
G04 Gerber Fmt 4.6, Leading zero omitted, Abs format (unit mm)*
G04 Created by KiCad (PCBNEW 6.0.11-2627ca5db0~126~ubuntu20.04.1) date 2024-04-17 12:53:05*
%MOMM*%
%LPD*%
G01*
G04 APERTURE LIST*
G04 Aperture macros list*
%AMRoundRect*
0 Rectangle with rounded corners*
0 $1 Rounding radius*
0 $2 $3 $4 $5 $6 $7 $8 $9 X,Y pos of 4 corners*
0 Add a 4 corners polygon primitive as box body*
4,1,4,$2,$3,$4,$5,$6,$7,$8,$9,$2,$3,0*
0 Add four circle primitives for the rounded corners*
1,1,$1+$1,$2,$3*
1,1,$1+$1,$4,$5*
1,1,$1+$1,$6,$7*
1,1,$1+$1,$8,$9*
0 Add four rect primitives between the rounded corners*
20,1,$1+$1,$2,$3,$4,$5,0*
20,1,$1+$1,$4,$5,$6,$7,0*
20,1,$1+$1,$6,$7,$8,$9,0*
20,1,$1+$1,$8,$9,$2,$3,0*%
%AMOutline4P*
0 Free polygon, 4 corners , with rotation*
0 The origin of the aperture is its center*
0 number of corners: always 4*
0 $1 to $8 corner X, Y*
0 $9 Rotation angle, in degrees counterclockwise*
0 create outline with 4 corners*
4,1,4,$1,$2,$3,$4,$5,$6,$7,$8,$1,$2,$9*%
G04 Aperture macros list end*
%ADD10RoundRect,0.250000X-0.337500X-0.475000X0.337500X-0.475000X0.337500X0.475000X-0.337500X0.475000X0*%
%ADD11RoundRect,0.250000X0.337500X0.475000X-0.337500X0.475000X-0.337500X-0.475000X0.337500X-0.475000X0*%
%ADD12R,2.600000X0.300000*%
%ADD13RoundRect,0.250000X-0.475000X0.337500X-0.475000X-0.337500X0.475000X-0.337500X0.475000X0.337500X0*%
%ADD14R,1.200000X2.500000*%
%ADD15RoundRect,0.250000X-0.350000X-0.450000X0.350000X-0.450000X0.350000X0.450000X-0.350000X0.450000X0*%
%ADD16RoundRect,0.250001X-0.462499X-0.624999X0.462499X-0.624999X0.462499X0.624999X-0.462499X0.624999X0*%
%ADD17RoundRect,0.250000X-0.450000X0.350000X-0.450000X-0.350000X0.450000X-0.350000X0.450000X0.350000X0*%
%ADD18RoundRect,0.250000X0.450000X-0.350000X0.450000X0.350000X-0.450000X0.350000X-0.450000X-0.350000X0*%
%ADD19R,1.450000X0.600000*%
%ADD20R,1.450000X0.300000*%
%ADD21RoundRect,0.150000X0.150000X-0.800000X0.150000X0.800000X-0.150000X0.800000X-0.150000X-0.800000X0*%
%ADD22R,1.650000X0.400000*%
%ADD23R,1.825000X0.300000*%
%ADD24R,1.100000X2.000000*%
%ADD25Outline4P,-0.675000X-0.675000X0.675000X-0.675000X0.675000X0.675000X-0.675000X0.675000X270.000000*%
%ADD26R,2.500000X1.430000*%
%ADD27R,0.700000X1.825000*%
%ADD28RoundRect,0.250000X0.475000X-0.337500X0.475000X0.337500X-0.475000X0.337500X-0.475000X-0.337500X0*%
%ADD29RoundRect,0.150000X-0.800000X-0.150000X0.800000X-0.150000X0.800000X0.150000X-0.800000X0.150000X0*%
G04 APERTURE END LIST*
D10*
X60430500Y-55245000D03*
X62505500Y-55245000D03*
D11*
X62251500Y-68326000D03*
X60176500Y-68326000D03*
D12*
X35760000Y-65500000D03*
X35760000Y-65000000D03*
X35760000Y-64500000D03*
X35760000Y-64000000D03*
X35760000Y-63500000D03*
X35760000Y-63000000D03*
X35760000Y-62500000D03*
X35760000Y-62000000D03*
X35760000Y-61500000D03*
X35760000Y-61000000D03*
X35760000Y-60500000D03*
X35760000Y-60000000D03*
X35760000Y-59500000D03*
X35760000Y-59000000D03*
X35760000Y-58500000D03*
X35760000Y-58000000D03*
X35760000Y-57500000D03*
X35760000Y-57000000D03*
X35760000Y-56500000D03*
D13*
X35560000Y-43768100D03*
X35560000Y-45843100D03*
D14*
X31825000Y-79250000D03*
X28825000Y-79250000D03*
X36925000Y-85750000D03*
X35825000Y-79250000D03*
D15*
X60468000Y-53071000D03*
X62468000Y-53071000D03*
D10*
X49762500Y-42418000D03*
X51837500Y-42418000D03*
D16*
X33840500Y-30480000D03*
X36815500Y-30480000D03*
D17*
X36400000Y-40000000D03*
X36400000Y-42000000D03*
D18*
X36400000Y-38300000D03*
X36400000Y-36300000D03*
D19*
X32710000Y-36375000D03*
X32710000Y-37150000D03*
D20*
X32710000Y-37850000D03*
X32710000Y-38350000D03*
X32710000Y-38850000D03*
X32710000Y-39350000D03*
X32710000Y-39850000D03*
X32710000Y-40350000D03*
X32710000Y-40850000D03*
X32710000Y-41350000D03*
D19*
X32710000Y-42050000D03*
X32710000Y-42825000D03*
D21*
X59817000Y-64968000D03*
X61087000Y-64968000D03*
X62357000Y-64968000D03*
X63627000Y-64968000D03*
X63627000Y-57968000D03*
X62357000Y-57968000D03*
X61087000Y-57968000D03*
X59817000Y-57968000D03*
D22*
X30065000Y-38275000D03*
X30065000Y-38925000D03*
X30065000Y-39575000D03*
X30065000Y-40225000D03*
X30065000Y-40875000D03*
D23*
X28102460Y-37401118D03*
D24*
X29951000Y-42475000D03*
D23*
X28069735Y-41792427D03*
D25*
X28427000Y-36845000D03*
D26*
X26915000Y-38615000D03*
X26915000Y-40535000D03*
D27*
X28865000Y-42575000D03*
D25*
X28427000Y-42325000D03*
D24*
X29976400Y-36729800D03*
D27*
X28865000Y-36625000D03*
D28*
X56808273Y-63011758D03*
X56808273Y-60936758D03*
D29*
X57623674Y-70842817D03*
X57623674Y-72112817D03*
X57623674Y-73382817D03*
X57623674Y-74652817D03*
X64623674Y-74652817D03*
X64623674Y-73382817D03*
X64623674Y-72112817D03*
X64623674Y-70842817D03*
D15*
X60468000Y-50927000D03*
X62468000Y-50927000D03*
M02*
